<?xml version="1.0" encoding="UTF-8" standalone="no"?>
<!DOCTYPE svg PUBLIC "-//W3C//DTD SVG 1.1//EN" "http://www.w3.org/Graphics/SVG/1.1/DTD/svg11.dtd">
<svg width="100%" height="100%" viewBox="0 0 4022 1520" version="1.1" xmlns="http://www.w3.org/2000/svg" xmlns:xlink="http://www.w3.org/1999/xlink" xml:space="preserve" xmlns:serif="http://www.serif.com/" style="fill-rule:evenodd;clip-rule:evenodd;stroke-linejoin:round;stroke-miterlimit:2;">
    <g transform="matrix(4.16667,0,0,4.16667,-5401.6,-5318)">
        <path d="M1296.38,1401.09C1340.8,1383.27 1393.6,1387.92 1434.22,1413.23C1428.15,1416.03 1422.08,1418.83 1416.01,1421.63C1401.06,1428.53 1385.63,1435.56 1369.18,1436.33C1354.65,1437.01 1340.4,1432.75 1326.48,1428.54C1321.56,1427.05 1316.54,1425.51 1312.3,1422.6C1309.56,1420.7 1307.22,1418.29 1304.9,1415.89C1300.68,1411.51 1296.45,1407.13 1296.38,1401.09Z" style="fill:rgb(180,206,208);fill-rule:nonzero;"/>
    </g>
    <g transform="matrix(4.16667,0,0,4.16667,-5401.6,-5318)">
        <path d="M1420.57,1413.73C1435.98,1396.84 1462.13,1390.77 1483.41,1399.13C1479.7,1397.42 1475.22,1398.63 1471.79,1400.86C1468.36,1403.09 1465.64,1406.24 1462.51,1408.87C1453.19,1416.71 1440,1419.7 1428.21,1416.64C1435.55,1417.82 1443.07,1419.07 1449.5,1422.8C1458.93,1428.26 1465,1439.1 1464.72,1450C1456.14,1445.36 1447.56,1440.73 1438.98,1436.09C1434.84,1433.85 1430.56,1431.51 1427.7,1427.76C1423.57,1422.34 1423.15,1415.04 1420.57,1413.73Z" style="fill:rgb(180,206,208);fill-rule:nonzero;"/>
    </g>
    <g transform="matrix(4.16667,0,0,4.16667,-5401.6,-5318)">
        <path d="M1439.78,1477.14C1481.29,1460.48 1530.62,1464.83 1568.57,1488.48C1562.9,1491.09 1557.23,1493.71 1551.56,1496.33C1537.59,1502.78 1523.17,1509.34 1507.8,1510.06C1494.23,1510.69 1480.91,1506.72 1467.9,1502.78C1463.3,1501.39 1458.62,1499.96 1454.66,1497.23C1452.09,1495.46 1449.91,1493.2 1447.74,1490.96C1443.79,1486.87 1439.85,1482.78 1439.78,1477.14Z" style="fill:rgb(180,206,208);fill-rule:nonzero;"/>
    </g>
    <g transform="matrix(4.16667,0,0,4.16667,-5401.6,-5318)">
        <path d="M1555.82,1488.94C1570.22,1473.17 1594.65,1467.5 1614.54,1475.31C1611.07,1473.71 1606.88,1474.84 1603.68,1476.92C1600.47,1479.01 1597.93,1481.94 1595.01,1484.4C1586.3,1491.73 1573.97,1494.52 1562.96,1491.66C1569.81,1492.77 1576.84,1493.94 1582.85,1497.42C1591.67,1502.53 1597.33,1512.65 1597.07,1522.84C1589.06,1518.5 1581.04,1514.17 1573.02,1509.84C1569.15,1507.75 1565.15,1505.56 1562.49,1502.06C1558.62,1496.99 1558.23,1490.17 1555.82,1488.94Z" style="fill:rgb(180,206,208);fill-rule:nonzero;"/>
    </g>
    <g transform="matrix(4.16667,0,0,4.16667,-5401.6,-5318)">
        <path d="M1459.29,1349.85C1500.8,1333.2 1550.12,1337.55 1588.08,1361.19C1582.41,1363.81 1576.74,1366.43 1571.07,1369.05C1557.1,1375.5 1542.68,1382.06 1527.31,1382.78C1513.73,1383.41 1500.42,1379.43 1487.41,1375.5C1482.81,1374.11 1478.13,1372.67 1474.16,1369.95C1471.6,1368.18 1469.41,1365.92 1467.25,1363.68C1463.3,1359.59 1459.35,1355.5 1459.29,1349.85Z" style="fill:rgb(180,206,208);fill-rule:nonzero;"/>
    </g>
    <g transform="matrix(4.16667,0,0,4.16667,-5401.6,-5318)">
        <path d="M1575.32,1361.66C1589.73,1345.89 1614.16,1340.21 1634.05,1348.03C1630.58,1346.42 1626.39,1347.56 1623.18,1349.64C1619.98,1351.72 1617.44,1354.66 1614.51,1357.12C1605.81,1364.45 1593.48,1367.24 1582.47,1364.38C1589.32,1365.49 1596.35,1366.66 1602.36,1370.14C1611.18,1375.25 1616.84,1385.37 1616.58,1395.55C1608.57,1391.22 1600.55,1386.89 1592.53,1382.56C1588.66,1380.47 1584.66,1378.27 1582,1374.77C1578.13,1369.71 1577.74,1362.89 1575.32,1361.66Z" style="fill:rgb(180,206,208);fill-rule:nonzero;"/>
    </g>
    <g transform="matrix(4.16667,0,0,4.16667,-5401.6,-5318)">
        <path d="M1659.79,1440.16C1701.29,1423.51 1750.62,1427.85 1788.58,1451.5C1782.91,1454.12 1777.24,1456.73 1771.57,1459.35C1757.59,1465.8 1743.18,1472.36 1727.81,1473.08C1714.23,1473.72 1700.92,1469.74 1687.91,1465.8C1683.31,1464.41 1678.62,1462.98 1674.66,1460.25C1672.1,1458.48 1669.91,1456.23 1667.75,1453.98C1663.8,1449.89 1659.85,1445.8 1659.79,1440.16Z" style="fill:rgb(180,206,208);fill-rule:nonzero;"/>
    </g>
    <g transform="matrix(4.16667,0,0,4.16667,-5401.6,-5318)">
        <path d="M1775.82,1451.96C1790.23,1436.19 1814.66,1430.52 1834.55,1438.33C1831.08,1436.73 1826.89,1437.86 1823.68,1439.94C1820.48,1442.03 1817.94,1444.96 1815.01,1447.42C1806.31,1454.75 1793.98,1457.54 1782.97,1454.68C1789.82,1455.79 1796.85,1456.96 1802.86,1460.44C1811.67,1465.55 1817.34,1475.67 1817.08,1485.86L1793.03,1472.86C1789.16,1470.77 1785.16,1468.58 1782.49,1465.08C1778.63,1460.01 1778.24,1453.19 1775.82,1451.96Z" style="fill:rgb(180,206,208);fill-rule:nonzero;"/>
    </g>
    <g transform="matrix(4.16667,0,0,4.16667,-5401.6,-5318)">
        <path d="M1723.31,1519.25C1767.73,1501.43 1820.52,1506.08 1861.14,1531.39C1855.07,1534.19 1849,1536.99 1842.94,1539.79C1827.98,1546.69 1812.55,1553.72 1796.1,1554.49C1781.58,1555.16 1767.32,1550.91 1753.4,1546.69C1748.48,1545.2 1743.47,1543.67 1739.23,1540.75C1736.48,1538.86 1734.14,1536.45 1731.83,1534.05C1727.6,1529.67 1723.38,1525.29 1723.31,1519.25Z" style="fill:rgb(180,206,208);fill-rule:nonzero;"/>
    </g>
    <g transform="matrix(4.16667,0,0,4.16667,-5401.6,-5318)">
        <path d="M1847.49,1531.89C1862.91,1515 1889.06,1508.93 1910.34,1517.29C1906.62,1515.58 1902.14,1516.79 1898.71,1519.02C1895.28,1521.25 1892.56,1524.39 1889.43,1527.03C1880.11,1534.87 1866.92,1537.86 1855.13,1534.8C1862.47,1535.98 1869.99,1537.23 1876.42,1540.96C1885.86,1546.42 1891.92,1557.26 1891.65,1568.16C1883.07,1563.52 1874.49,1558.89 1865.9,1554.25C1861.76,1552.01 1857.49,1549.66 1854.63,1545.92C1850.5,1540.5 1850.08,1533.2 1847.49,1531.89Z" style="fill:rgb(180,206,208);fill-rule:nonzero;"/>
    </g>
    <g transform="matrix(4.16667,0,0,4.16667,-5401.6,-5318)">
        <path d="M1866.71,1595.3C1908.21,1578.64 1957.54,1582.99 1995.5,1606.63C1989.83,1609.25 1984.15,1611.87 1978.48,1614.49C1964.51,1620.94 1950.1,1627.5 1934.72,1628.22C1921.15,1628.85 1907.83,1624.88 1894.83,1620.94C1890.23,1619.55 1885.54,1618.12 1881.58,1615.39C1879.01,1613.62 1876.83,1611.36 1874.67,1609.12C1870.72,1605.03 1866.77,1600.94 1866.71,1595.3Z" style="fill:rgb(180,206,208);fill-rule:nonzero;"/>
    </g>
    <g transform="matrix(4.16667,0,0,4.16667,-5401.6,-5318)">
        <path d="M1982.74,1607.1C1997.15,1591.33 2021.58,1585.65 2041.46,1593.47C2037.99,1591.87 2033.81,1593 2030.6,1595.08C2027.4,1597.16 2024.86,1600.1 2021.93,1602.56C2013.22,1609.89 2000.9,1612.68 1989.88,1609.82C1996.74,1610.93 2003.77,1612.1 2009.78,1615.58C2018.59,1620.68 2024.26,1630.81 2024,1640.99C2015.98,1636.66 2007.96,1632.33 1999.95,1628C1996.07,1625.91 1992.08,1623.71 1989.41,1620.21C1985.55,1615.15 1985.16,1608.33 1982.74,1607.1Z" style="fill:rgb(180,206,208);fill-rule:nonzero;"/>
    </g>
    <g transform="matrix(4.16667,0,0,4.16667,-5401.6,-5318)">
        <path d="M2086.72,1558.32C2128.22,1541.66 2177.55,1546.01 2215.5,1569.66C2209.83,1572.27 2204.16,1574.89 2198.49,1577.51C2184.52,1583.96 2170.1,1590.52 2154.73,1591.24C2141.16,1591.88 2127.84,1587.9 2114.84,1583.96C2110.23,1582.57 2105.55,1581.14 2101.59,1578.41C2099.02,1576.64 2096.84,1574.38 2094.67,1572.14C2090.72,1568.05 2086.78,1563.96 2086.72,1558.32Z" style="fill:rgb(180,206,208);fill-rule:nonzero;"/>
    </g>
    <g transform="matrix(4.16667,0,0,4.16667,-5401.6,-5318)">
        <path d="M2202.75,1570.12C2217.16,1554.35 2241.59,1548.67 2261.47,1556.49C2258,1554.89 2253.81,1556.02 2250.61,1558.1C2247.4,1560.18 2244.86,1563.12 2241.94,1565.58C2233.23,1572.91 2220.9,1575.7 2209.89,1572.84C2216.74,1573.95 2223.77,1575.12 2229.78,1578.6C2238.6,1583.71 2244.26,1593.83 2244.01,1604.02C2235.99,1599.68 2227.97,1595.35 2219.95,1591.02C2216.08,1588.93 2212.09,1586.74 2209.42,1583.24C2205.56,1578.17 2205.16,1571.35 2202.75,1570.12Z" style="fill:rgb(180,206,208);fill-rule:nonzero;"/>
    </g>
    <g transform="matrix(4.16667,0,0,4.16667,-5401.6,-5318)">
        <path d="M1822.96,1368.76C1864.46,1352.1 1913.79,1356.45 1951.75,1380.1C1946.08,1382.71 1940.41,1385.33 1934.74,1387.95C1920.76,1394.4 1906.35,1400.96 1890.97,1401.68C1877.4,1402.32 1864.08,1398.34 1851.08,1394.4C1846.48,1393.01 1841.79,1391.58 1837.83,1388.85C1835.27,1387.08 1833.08,1384.82 1830.92,1382.58C1826.97,1378.49 1823.02,1374.4 1822.96,1368.76Z" style="fill:rgb(180,206,208);fill-rule:nonzero;"/>
    </g>
    <g transform="matrix(4.16667,0,0,4.16667,-5401.6,-5318)">
        <path d="M1938.99,1380.56C1953.4,1364.79 1977.83,1359.12 1997.72,1366.93C1994.24,1365.33 1990.06,1366.46 1986.85,1368.54C1983.65,1370.62 1981.11,1373.56 1978.18,1376.02C1969.48,1383.35 1957.15,1386.14 1946.13,1383.28C1952.99,1384.39 1960.02,1385.56 1966.03,1389.04C1974.84,1394.15 1980.51,1404.27 1980.25,1414.46C1972.23,1410.12 1964.22,1405.79 1956.2,1401.46C1952.32,1399.37 1948.33,1397.17 1945.66,1393.67C1941.8,1388.61 1941.41,1381.79 1938.99,1380.56Z" style="fill:rgb(180,206,208);fill-rule:nonzero;"/>
    </g>
    <g transform="matrix(4.16667,0,0,4.16667,-5401.6,-5318)">
        <path d="M1546.67,1578.17C1588.17,1561.52 1637.5,1565.86 1675.46,1589.51C1669.79,1592.13 1664.12,1594.75 1658.45,1597.36C1644.47,1603.82 1630.06,1610.38 1614.68,1611.1C1601.11,1611.73 1587.8,1607.75 1574.79,1603.82C1570.19,1602.42 1565.5,1600.99 1561.54,1598.27C1558.98,1596.5 1556.79,1594.24 1554.63,1592C1550.68,1587.91 1546.73,1583.82 1546.67,1578.17Z" style="fill:rgb(180,206,208);fill-rule:nonzero;"/>
    </g>
    <g transform="matrix(4.16667,0,0,4.16667,-5401.6,-5318)">
        <path d="M1662.7,1589.98C1677.11,1574.2 1701.54,1568.53 1721.42,1576.34C1717.95,1574.74 1713.77,1575.87 1710.56,1577.96C1707.36,1580.04 1704.82,1582.98 1701.89,1585.44C1693.18,1592.77 1680.86,1595.56 1669.84,1592.7C1676.7,1593.81 1683.73,1594.97 1689.74,1598.45C1698.55,1603.56 1704.22,1613.69 1703.96,1623.87C1695.94,1619.54 1687.92,1615.21 1679.91,1610.88C1676.03,1608.78 1672.04,1606.59 1669.37,1603.09C1665.51,1598.02 1665.12,1591.21 1662.7,1589.98Z" style="fill:rgb(180,206,208);fill-rule:nonzero;"/>
    </g>
    <g transform="matrix(4.16667,0,0,4.16667,-5401.6,-5318)">
        <path d="M1659.79,1286.33C1701.29,1269.68 1750.62,1274.02 1788.58,1297.67C1782.91,1300.29 1777.24,1302.91 1771.57,1305.53C1757.59,1311.98 1743.18,1318.54 1727.81,1319.26C1714.23,1319.89 1700.92,1315.92 1687.91,1311.98C1683.31,1310.59 1678.62,1309.15 1674.66,1306.43C1672.1,1304.66 1669.91,1302.4 1667.75,1300.16C1663.8,1296.07 1659.85,1291.98 1659.79,1286.33Z" style="fill:rgb(180,206,208);fill-rule:nonzero;"/>
    </g>
    <g transform="matrix(4.16667,0,0,4.16667,-5401.6,-5318)">
        <path d="M1775.82,1298.14C1790.23,1282.37 1814.66,1276.69 1834.55,1284.51C1831.08,1282.9 1826.89,1284.03 1823.68,1286.12C1820.48,1288.2 1817.94,1291.14 1815.01,1293.6C1806.31,1300.93 1793.98,1303.72 1782.97,1300.86C1789.82,1301.97 1796.85,1303.13 1802.86,1306.62C1811.67,1311.72 1817.34,1321.85 1817.08,1332.03L1793.03,1319.04C1789.16,1316.95 1785.16,1314.75 1782.49,1311.25C1778.63,1306.18 1778.24,1299.37 1775.82,1298.14Z" style="fill:rgb(180,206,208);fill-rule:nonzero;"/>
    </g>
    <g transform="matrix(4.16667,0,0,4.16667,-5401.6,-5318)">
        <path d="M2077.79,1432.16C2119.3,1415.5 2168.63,1419.85 2206.58,1443.5C2200.91,1446.11 2195.24,1448.73 2189.57,1451.35C2175.6,1457.8 2161.18,1464.36 2145.81,1465.08C2132.24,1465.71 2118.92,1461.74 2105.91,1457.8C2101.31,1456.41 2096.63,1454.98 2092.67,1452.25C2090.1,1450.48 2087.92,1448.23 2085.75,1445.98C2081.8,1441.89 2077.86,1437.8 2077.79,1432.16Z" style="fill:rgb(180,206,208);fill-rule:nonzero;"/>
    </g>
    <g transform="matrix(4.16667,0,0,4.16667,-5401.6,-5318)">
        <path d="M2193.83,1443.96C2208.23,1428.19 2232.66,1422.52 2252.55,1430.33C2249.08,1428.73 2244.89,1429.86 2241.69,1431.94C2238.48,1434.03 2235.94,1436.96 2233.02,1439.42C2224.31,1446.75 2211.98,1449.54 2200.97,1446.68C2207.82,1447.79 2214.85,1448.96 2220.86,1452.44C2229.68,1457.55 2235.34,1467.67 2235.09,1477.86C2227.07,1473.52 2219.05,1469.19 2211.03,1464.86C2207.16,1462.77 2203.17,1460.58 2200.5,1457.08C2196.64,1452.01 2196.24,1445.19 2193.83,1443.96Z" style="fill:rgb(180,206,208);fill-rule:nonzero;"/>
    </g>
</svg>
