<?xml version="1.0" encoding="UTF-8" standalone="no"?>
<!DOCTYPE svg PUBLIC "-//W3C//DTD SVG 1.1//EN" "http://www.w3.org/Graphics/SVG/1.1/DTD/svg11.dtd">
<svg width="100%" height="100%" viewBox="0 0 1792 603" version="1.1" xmlns="http://www.w3.org/2000/svg" xmlns:xlink="http://www.w3.org/1999/xlink" xml:space="preserve" xmlns:serif="http://www.serif.com/" style="fill-rule:evenodd;clip-rule:evenodd;stroke-linejoin:round;stroke-miterlimit:2;">
    <g transform="matrix(4.05036,0,0,4.05036,-139.896,-179.378)">
        <path d="M240.699,171.821C237.616,172.51 222.46,179.545 220.246,179.681C217.635,179.841 220.46,174.871 220.22,171.965C219.977,169.009 217.456,167.721 216.967,166.88C215.997,165.211 228.624,165.808 232.885,166.661C237.146,167.515 240.699,171.821 240.699,171.821Z" style="fill:rgb(106,147,168);fill-rule:nonzero;"/>
    </g>
    <g transform="matrix(4.05036,0,0,4.05036,-139.896,-179.378)">
        <path d="M348.15,170.924C348.15,170.924 330.237,188.755 321.165,189.842C312.094,190.93 326.449,168.462 326.449,168.462L348.15,170.924Z" style="fill:rgb(103,143,163);fill-rule:nonzero;"/>
    </g>
    <g transform="matrix(4.05036,0,0,4.05036,-139.896,-179.378)">
        <path d="M476.69,100.813C476.817,101.631 476.635,102.683 475.922,103.97C475.662,104.484 475.269,105.075 474.778,105.722C473.844,106.968 472.843,108.183 471.726,109.342L471.738,109.38C471.464,109.685 471.184,109.991 470.903,110.287C470.639,110.576 470.368,110.86 470.098,111.145L470.01,111.229C469.739,111.513 469.461,111.794 469.184,112.074C468.716,112.551 468.241,113.019 467.759,113.482C467.535,113.704 467.304,113.922 467.073,114.134C466.787,114.406 466.501,114.667 466.213,114.924C466.01,115.118 465.8,115.307 465.589,115.491C465.286,115.765 464.975,116.036 464.664,116.306C464.398,116.539 464.126,116.774 463.859,117.002C463.321,117.47 462.774,117.923 462.225,118.367C461.953,118.597 461.678,118.816 461.403,119.03C460.977,119.374 460.551,119.713 460.123,120.037C459.854,120.251 459.578,120.466 459.301,120.67C458.974,120.918 458.648,121.166 458.314,121.41C457.665,121.894 457.008,122.37 456.357,122.84L456.351,122.841C454.717,124.004 453.091,125.096 451.503,126.106C449.792,127.215 448.172,128.261 446.636,129.202C445.789,129.672 444.991,130.13 444.241,130.575C444.149,130.634 444.058,130.694 443.967,130.759C443.82,130.827 443.68,130.899 443.589,130.959C442.514,131.546 441.519,132.115 440.62,132.613C440.492,132.684 440.365,132.754 440.243,132.819C438.822,133.57 437.639,134.189 436.737,134.668C436.256,134.894 435.871,135.055 435.536,135.209L435.5,135.224L435.477,135.238L435.436,135.255L435.284,135.329C435.219,135.359 435.137,135.397 435.043,135.442C434.867,135.525 434.767,135.571 434.767,135.571L434.767,135.576C432.041,136.885 422.961,141.254 420.692,142.345L420.669,142.359L420.434,142.471C420.264,142.553 420.177,142.598 420.177,142.598C420.177,142.598 438.154,157.991 437.568,160.453L437.562,160.467L437.562,160.487L437.543,160.522L437.518,160.572C437.051,161.32 436.21,161.933 434.741,162.466C434.523,162.541 434.305,162.615 434.074,162.69C433.85,162.76 433.62,162.829 433.371,162.899L433.122,162.989C432.872,163.064 432.63,163.139 432.38,163.208C431.976,163.323 431.565,163.438 431.148,163.547C431.011,163.587 430.88,163.617 430.743,163.652C430.519,163.712 430.288,163.767 430.064,163.826L430.033,163.836L429.883,163.871C429.08,164.1 428.302,164.295 427.467,164.469C427.287,164.509 427.106,164.554 426.925,164.594C421.95,165.615 416.357,166.268 410.335,166.632C408.448,166.717 406.568,166.796 404.637,166.866C404.475,166.866 404.264,166.856 404.095,166.856C403.715,166.866 404.957,165.981 406.224,165.095C407.486,164.213 408.773,163.33 408.5,163.335C405.915,163.379 403.254,163.339 400.545,163.206C399.048,163.148 379.458,165.862 374.843,166.706C338.103,173.316 299.617,177.056 260.781,175.159C254.175,174.817 247.557,174.222 240.925,173.325C239.286,173.12 237.647,172.876 236.003,172.636C231.046,171.908 226.15,171.068 221.255,170.118C218.186,169.509 215.117,168.865 212.123,168.212L211.972,168.185C209.875,167.71 207.778,167.23 205.717,166.755C201.746,165.827 197.846,164.854 193.942,163.85C192.027,163.361 190.117,162.877 188.198,162.353C174.872,158.83 162.314,155.081 151.076,151.852C146.452,150.515 142.054,149.276 137.888,148.209C137.59,148.152 137.288,148.058 137.026,147.961C135.675,147.628 134.401,147.294 133.126,146.993C131.735,146.624 130.389,146.331 129.075,146.033C127.764,145.735 126.494,145.469 125.259,145.207C122.642,146.051 120.866,150.737 119.933,149.307C118.964,147.845 117.219,143.652 117.219,143.612C115.611,143.297 114.038,143.012 112.55,142.795C110.867,142.484 109.298,142.235 107.806,142.022L107.77,142.022C104.266,141.551 101.214,141.2 98.659,141.191L98.589,141.196C97.882,141.16 97.256,141.16 96.665,141.191C96.256,141.213 95.857,141.271 95.483,141.293C92.538,141.529 90.619,142.302 89.966,143.816C89.9,143.967 89.829,144.047 89.798,144.123C88.674,146.588 86.999,149.751 84.894,153.158C81.838,158.173 77.964,163.712 73.82,168.452C67.699,175.519 60.996,180.734 55.607,179.664C52.876,179.108 68.809,162.104 65.851,135.856C63.678,116.48 51.321,103.656 45.035,98.344C42.823,96.429 41.362,95.474 41.362,95.474C41.362,95.474 42.894,91.654 41.219,89.451C40.38,88.354 38.594,86.821 37.089,85.649C35.694,84.538 34.539,83.716 34.539,83.716C74.557,87.585 88.15,124.938 92.498,127.288C93.262,127.727 94.453,127.883 96.003,127.838L96.558,127.807C102.458,127.483 113.248,124.52 127.107,120.949C129.297,119.754 132.721,116.756 133.183,115.063C133.365,114.352 134.236,114.01 134.849,114.455C136.35,115.485 139.362,116.462 141.432,117.053C170.834,108.889 226.844,96.123 241.48,92.578C243.563,92.058 247.255,91.93 247.33,89.966C247.366,89.891 247.357,89.78 247.352,89.668C247.055,86.946 245.309,84.787 249.596,75.303C253.389,66.956 245.163,51.169 244.154,47.669C243.15,44.173 245.82,44.289 245.82,44.289C284.83,53.391 279.18,84.551 324.448,86.39C337.055,86.919 360.566,86.59 377.508,88.656C396.356,90.988 399.834,90.677 419.646,91.252C433.153,91.613 444.633,92.386 453.58,93.46L453.63,93.452C460.935,94.303 466.585,95.362 470.265,96.607C470.657,96.697 471.007,96.839 471.357,96.981C472.682,97.435 475.476,98.053 476.389,99.983C476.496,100.219 476.613,100.487 476.69,100.813Z" style="fill:rgb(83,115,131);fill-rule:nonzero;"/>
    </g>
    <g transform="matrix(4.05036,0,0,4.05036,-139.896,-179.378)">
        <path d="M471.738,109.377C471.461,109.684 471.183,109.991 470.906,110.288C470.638,110.576 470.371,110.863 470.094,111.14L470.014,111.23C469.737,111.517 469.459,111.794 469.182,112.072C468.716,112.547 468.241,113.023 467.756,113.478C467.538,113.706 467.3,113.924 467.072,114.132L467.013,114.192C466.745,114.439 466.478,114.687 466.21,114.925C466.012,115.113 465.804,115.311 465.586,115.49C465.289,115.767 464.972,116.034 464.665,116.302C464.397,116.539 464.13,116.777 463.862,117.005C463.317,117.461 462.773,117.917 462.228,118.362C461.951,118.6 461.673,118.818 461.406,119.026C460.979,119.373 460.554,119.71 460.128,120.036C459.85,120.254 459.583,120.463 459.305,120.671C458.979,120.918 458.652,121.166 458.315,121.414C457.661,121.899 457.007,122.384 456.353,122.84C454.728,124.009 453.094,125.099 451.499,126.109C449.795,127.219 448.17,128.259 446.635,129.2C445.793,129.676 444.99,130.131 444.238,130.577L443.97,130.755C443.821,130.825 443.683,130.904 443.594,130.964C442.524,131.578 441.523,132.123 440.622,132.618C440.493,132.687 440.364,132.757 440.245,132.816C438.819,133.569 437.64,134.193 436.738,134.669C436.253,134.896 435.866,135.055 435.539,135.213L435.5,135.223L435.48,135.233L435.441,135.253L435.282,135.332L435.044,135.441C434.866,135.52 434.767,135.57 434.767,135.57L434.767,135.58C432.042,136.888 422.958,141.256 420.69,142.346L420.67,142.356L420.432,142.475C420.264,142.554 420.174,142.594 420.174,142.594C420.174,142.594 438.224,151.777 437.699,159.593C437.679,159.881 437.64,160.168 437.57,160.455L437.56,160.465L437.56,160.485L437.541,160.525L437.521,160.574C437.055,161.317 436.213,161.932 434.737,162.466C434.519,162.536 434.301,162.615 434.073,162.694C433.766,162.803 433.449,162.892 433.122,162.991C432.875,163.061 432.627,163.14 432.379,163.209C431.993,163.328 431.567,163.447 431.151,163.546C431.012,163.586 430.883,163.616 430.745,163.655C430.556,163.695 430.378,163.734 430.19,163.774L430.061,163.824L430.031,163.833L429.883,163.873C429.08,164.101 428.298,164.299 427.466,164.467C427.287,164.507 427.119,164.557 426.931,164.596L426.921,164.596C421.948,165.617 416.36,166.27 410.337,166.627C408.445,166.716 406.563,166.796 404.641,166.865C404.473,166.865 404.265,166.855 404.096,166.855L404.066,166.855C402.868,166.855 379.409,165.874 374.842,166.706C338.099,173.314 299.622,177.059 260.778,175.157C259.133,175.077 257.479,174.978 255.825,174.86C254.814,174.79 253.794,174.711 252.783,174.622L252.635,174.612C251.634,174.523 250.634,174.433 249.623,174.334C248.246,174.206 246.869,174.057 245.492,173.899C244.809,173.819 244.115,173.74 243.422,173.651C243.293,173.631 243.174,173.621 243.045,173.601C242.342,173.512 241.628,173.423 240.925,173.324C240.103,173.225 239.291,173.106 238.468,172.997C237.646,172.878 236.824,172.759 235.992,172.64C234.753,172.452 233.525,172.264 232.297,172.066C231.583,171.957 230.86,171.838 230.147,171.709C228.958,171.521 227.769,171.313 226.581,171.105C223.995,170.649 221.419,170.154 218.844,169.639C216.585,169.173 214.336,168.697 212.127,168.212L212.038,168.202L211.978,168.183L211.968,168.183C209.878,167.707 207.778,167.231 205.717,166.756C201.745,165.825 197.842,164.854 193.938,163.853C192.026,163.358 190.114,162.873 188.202,162.357C186.568,161.922 184.953,161.495 183.348,161.06C183.229,161.03 183.101,161 182.982,160.96C181.585,160.574 180.188,160.198 178.811,159.811C177.048,159.316 175.294,158.831 173.561,158.335C168.221,156.82 163.05,155.324 158.096,153.877C157.908,153.828 157.72,153.768 157.532,153.719C156.402,153.392 155.293,153.075 154.203,152.758C152.915,152.382 151.647,152.025 150.399,151.668C148.893,151.232 147.417,150.816 145.961,150.41C144.386,149.964 142.84,149.538 141.315,149.132C140.74,148.974 140.156,148.815 139.581,148.657C138.848,148.468 138.115,148.27 137.392,148.082C137.263,148.052 137.144,148.003 137.025,147.963C136.351,147.795 135.698,147.636 135.044,147.478C131.586,146.596 128.308,145.833 125.256,145.209C122.641,146.051 120.868,150.737 119.936,149.31C118.966,147.844 117.222,143.654 117.222,143.614C115.607,143.297 114.042,143.01 112.546,142.792C110.862,142.485 109.297,142.237 107.811,142.019L107.771,142.019C104.264,141.554 101.213,141.197 98.657,141.187L98.587,141.197C97.884,141.157 97.26,141.157 96.665,141.187C96.259,141.217 95.853,141.266 95.487,141.296C92.534,141.524 90.622,142.306 89.969,143.812C89.899,143.971 89.83,144.05 89.8,144.119C89.453,144.545 89.245,143.486 89.166,142.009C88.938,138.542 91.653,135.511 95.13,135.471C97.706,135.441 100.282,135.471 102.858,135.56C104.182,135.606 105.66,135.458 107.148,135.309C108.866,135.138 110.597,134.967 112.12,135.095C120.115,135.758 123.255,137.611 131.16,139.136C134.777,139.84 140.423,139.483 144.019,140.325C146.337,140.86 147.942,140.474 150.251,141.058C153.044,141.762 157.106,141.316 160.375,141.781C161.213,141.896 163.158,141.639 165.101,141.382C167.019,141.129 168.935,140.876 169.786,140.979C174.888,141.603 180.466,141.167 185.23,142.029C187.44,142.425 199.01,143.911 200.962,144.466C206.292,146.002 208.055,156.641 210.71,159.851C211.146,160.386 211.572,160.862 211.988,161.297C212.86,162.199 213.682,162.902 214.504,163.437C216.793,164.973 219.061,165.31 222.261,165.755C224.015,165.993 226.313,165.745 228.681,165.2C230.157,164.874 231.653,164.438 233.069,163.943C233.812,163.675 234.446,163.427 235.001,163.199C236.923,162.417 238.023,161.813 240.133,161.426C242.887,160.921 245.928,160.079 249.039,159.623C252.684,159.088 257.172,158.751 260.59,157.959C265.365,156.859 270.496,153.749 274.954,152.718C277.867,152.045 284.98,148.993 287.605,148.448C291.142,147.696 295.491,142.326 298.235,141.94C305.363,140.937 308.189,143.413 311.051,145.888C314.072,148.5 317.134,151.112 325.339,149.637C330.53,148.647 344.062,149.756 346.103,144.575C346.747,142.871 349.214,131.122 351.809,127.209C352.562,126.089 354.276,121.711 354.88,120.413C355.468,119.205 355.912,122.885 356.253,126.565C356.567,129.949 356.795,133.333 356.971,132.915C357.417,131.667 358.922,123.335 361.528,124.97C362.409,125.554 360.299,132.221 361.191,133.014C362.185,133.906 363.234,131.969 364.267,130.032C365.22,128.246 366.161,126.459 367.036,126.892C368.135,127.457 365.936,133.202 367.006,133.737C367.523,134.008 368.255,131.41 368.975,128.811C369.676,126.28 370.365,123.748 370.83,123.87C371.801,124.148 371.157,130.617 372.058,130.864C373.286,131.157 373.496,129.985 374.419,128.813C375.307,127.686 376.854,126.559 380.598,126.733C390.504,127.149 397.211,119.036 414.597,115.698C421.176,114.414 424.66,115.72 428.076,117.027C431.332,118.272 434.528,119.516 440.285,118.521C448.953,116.985 449.795,113.469 456.749,112.528L456.968,112.498C465.368,111.408 471.679,109.139 471.728,109.337L471.738,109.377Z" style="fill:rgb(198,226,240);fill-rule:nonzero;"/>
    </g>
    <g transform="matrix(4.05036,0,0,4.05036,-139.896,-179.378)">
        <path d="M243.422,173.651C241.481,173.419 239.542,173.164 237.606,172.888C237.616,172.884 237.625,172.88 237.635,172.876C237.913,172.917 238.191,172.957 238.468,172.997C238.606,173.015 238.744,173.034 238.882,173.053C239.326,173.115 239.77,173.176 240.215,173.234C240.344,173.251 240.474,173.268 240.605,173.284C240.711,173.298 240.818,173.311 240.925,173.325C240.983,173.333 241.042,173.341 241.101,173.348C241.6,173.418 242.103,173.482 242.604,173.545C242.751,173.564 242.899,173.583 243.047,173.602C243.175,173.621 243.293,173.631 243.422,173.651Z" style="fill:rgb(18,31,100);fill-rule:nonzero;"/>
    </g>
    <g transform="matrix(4.05036,0,0,4.05036,-139.896,-179.378)">
        <path d="M237.606,172.888C234.314,172.418 231.03,171.889 227.762,171.315C229.888,171.684 232.02,172.032 234.161,172.36C234.769,172.454 235.379,172.547 235.992,172.64C236.543,172.719 237.089,172.798 237.635,172.876C237.625,172.88 237.616,172.884 237.606,172.888Z" style="fill:rgb(95,137,159);fill-rule:nonzero;"/>
    </g>
    <g transform="matrix(4.05036,0,0,4.05036,-139.896,-179.378)">
        <path d="M243.047,173.602C242.899,173.583 242.751,173.564 242.604,173.545C242.751,173.564 242.898,173.583 243.045,173.601C243.046,173.601 243.046,173.602 243.047,173.602ZM241.101,173.348C241.042,173.341 240.983,173.333 240.925,173.325C240.818,173.311 240.711,173.298 240.605,173.284C240.711,173.298 240.818,173.311 240.925,173.324C240.984,173.332 241.042,173.34 241.101,173.348ZM240.215,173.234C239.77,173.176 239.326,173.115 238.882,173.053C239.327,173.113 239.77,173.175 240.215,173.234ZM234.161,172.36C232.02,172.032 229.888,171.684 227.762,171.315C227.757,171.314 227.751,171.313 227.746,171.312C227.745,171.311 227.744,171.309 227.742,171.308C228.544,171.446 229.345,171.582 230.147,171.709C230.86,171.838 231.583,171.957 232.297,172.066C232.918,172.166 233.538,172.264 234.161,172.36Z" style="fill:rgb(75,107,124);fill-rule:nonzero;"/>
    </g>
    <g transform="matrix(4.05036,0,0,4.05036,-139.896,-179.378)">
        <path d="M204.018,166.376C196.96,164.698 190.049,162.893 183.348,161.06C183.229,161.03 183.101,161 182.982,160.96C181.575,160.584 180.188,160.198 178.811,159.811C177.048,159.316 175.294,158.831 173.561,158.335C175.294,158.831 177.048,159.316 178.811,159.811C180.188,160.198 181.585,160.574 182.982,160.96C183.101,161 183.229,161.03 183.348,161.06C184.953,161.495 186.568,161.922 188.202,162.357C188.578,162.459 188.954,162.559 189.33,162.658C190.386,162.939 191.44,163.211 192.495,163.481C192.976,163.605 193.457,163.729 193.938,163.853C196.561,164.525 199.183,165.184 201.827,165.827C202.362,165.957 202.9,166.087 203.437,166.215C203.626,166.261 203.815,166.306 204.004,166.351C204.008,166.359 204.013,166.367 204.017,166.375C204.018,166.375 204.018,166.376 204.018,166.376Z" style="fill:rgb(18,31,100);fill-rule:nonzero;"/>
    </g>
    <g transform="matrix(4.05036,0,0,4.05036,-139.896,-179.378)">
        <path d="M203.437,166.215C202.9,166.087 202.362,165.957 201.827,165.827C202.363,165.957 202.899,166.087 203.437,166.215ZM228.681,165.2C228.314,165.111 227.948,165.012 227.591,164.923C225.712,164.452 223.842,163.918 221.969,163.402C226.313,163.373 230.659,163.322 235.001,163.199C234.446,163.427 233.812,163.675 233.069,163.943C231.653,164.438 230.157,164.874 228.681,165.2ZM192.495,163.481C191.44,163.211 190.386,162.939 189.33,162.658C190.385,162.937 191.44,163.209 192.495,163.481Z" style="fill:rgb(75,107,124);fill-rule:nonzero;"/>
    </g>
    <g transform="matrix(4.05036,0,0,4.05036,-139.896,-179.378)">
        <path d="M137.317,148.063C136.55,147.862 135.793,147.67 135.044,147.478C132.516,146.833 130.082,146.252 127.765,145.742C130.082,146.252 132.516,146.833 135.044,147.478C135.698,147.636 136.351,147.795 137.025,147.963C137.121,147.995 137.217,148.033 137.317,148.063Z" style="fill:rgb(18,31,100);fill-rule:nonzero;"/>
    </g>
    <g transform="matrix(4.05036,0,0,4.05036,-139.896,-179.378)">
        <path d="M255.825,174.86C254.814,174.79 253.794,174.711 252.783,174.622L252.635,174.612C251.634,174.523 250.634,174.433 249.623,174.334C248.246,174.206 246.869,174.057 245.492,173.899C244.809,173.819 244.115,173.74 243.422,173.651C247.553,174.146 251.684,174.562 255.825,174.86ZM261.127,170.779C250.404,170.779 238.668,167.739 228.681,165.2C230.157,164.874 231.653,164.438 233.069,163.943C233.812,163.675 234.446,163.427 235.001,163.199C244.184,162.942 253.358,162.377 262.452,161.079C265.39,160.668 268.318,160.181 271.242,159.664C273.34,161.205 280.032,162.249 281.671,163.189C291.538,168.856 270.912,169.797 269.377,170.075C266.731,170.566 263.966,170.779 261.127,170.779ZM404.641,166.865C404.473,166.865 404.265,166.855 404.096,166.855C403.68,166.013 409.475,161.842 408.98,161.218C407.543,159.405 405.206,158.494 402.907,157.909C396.32,156.185 392.188,156.542 385.799,154.085C385.068,153.809 384.368,153.473 383.688,153.096C385.871,152.88 388.016,152.754 390.193,152.754C398.111,152.754 406.464,154.419 418.659,159.465C421.779,160.743 424.88,162.367 426.931,164.596L426.921,164.596C421.948,165.617 416.36,166.27 410.337,166.627C408.445,166.716 406.563,166.796 404.641,166.865ZM204.004,166.351C203.815,166.306 203.626,166.261 203.437,166.215C202.899,166.087 202.363,165.957 201.827,165.827C199.183,165.184 196.561,164.525 193.938,163.853C193.457,163.729 192.976,163.605 192.495,163.481C191.44,163.209 190.385,162.937 189.33,162.658C188.954,162.559 188.578,162.459 188.202,162.357C186.568,161.922 184.953,161.495 183.348,161.06C183.229,161.03 183.101,161 182.982,160.96C181.585,160.574 180.188,160.198 178.811,159.811C177.048,159.316 175.294,158.831 173.561,158.335C168.221,156.82 163.05,155.314 158.096,153.877C157.908,153.828 157.72,153.768 157.532,153.719C156.402,153.392 155.293,153.075 154.203,152.758C152.915,152.382 151.647,152.025 150.399,151.668C148.893,151.232 147.417,150.816 145.961,150.41C144.386,149.964 142.84,149.538 141.315,149.132C140.74,148.974 140.156,148.815 139.581,148.657C138.848,148.468 138.115,148.27 137.392,148.082C137.367,148.075 137.342,148.069 137.317,148.063C137.217,148.033 137.121,147.995 137.025,147.963C136.351,147.795 135.698,147.636 135.044,147.478C132.516,146.833 130.082,146.252 127.765,145.742C126.913,145.555 126.076,145.377 125.256,145.209C122.982,145.941 121.345,149.578 120.344,149.579C120.194,149.579 120.058,149.497 119.936,149.31C118.966,147.844 117.222,143.654 117.222,143.614C115.607,143.297 114.042,143.01 112.546,142.792C114.099,142.06 116.033,141.776 118.02,141.776C119.772,141.776 121.565,141.997 123.176,142.326C139.373,145.576 155.57,148.944 171.748,152.342C176.909,153.461 182.15,154.581 187.073,156.602C191.085,158.306 194.87,160.584 199.05,161.862C200.309,162.251 201.588,162.543 202.88,162.764C202.995,163.885 203.595,164.935 204.436,165.766C204.048,165.917 203.881,166.11 204.004,166.351Z" style="fill:rgb(178,211,228);fill-rule:nonzero;"/>
    </g>
    <g transform="matrix(4.05036,0,0,4.05036,-139.896,-179.378)">
        <path d="M227.749,171.316C224.666,172.005 209.51,179.04 207.297,179.176C204.686,179.337 207.51,174.366 207.271,171.46C207.028,168.504 204.506,167.216 204.017,166.375C203.048,164.707 215.674,165.303 219.935,166.157C224.197,167.01 227.749,171.316 227.749,171.316Z" style="fill:rgb(95,131,150);fill-rule:nonzero;"/>
    </g>
    <g transform="matrix(4.05036,0,0,4.05036,-139.896,-179.378)">
        <path d="M349.881,145.021C349.881,145.021 352.064,129.937 345.902,108.407C345.902,108.407 350.617,118.427 351.821,127.2C353.025,135.973 349.881,145.021 349.881,145.021Z" style="fill:rgb(60,94,112);fill-rule:nonzero;"/>
    </g>
    <g transform="matrix(4.05036,0,0,4.05036,-139.896,-179.378)">
        <path d="M309.077,144.258C308.385,143.739 307.647,143.26 306.81,142.861C313.643,140.679 325.371,137.118 328.45,134.815C331.077,132.85 334.028,132.098 337.008,132.098C338.308,132.098 339.613,132.241 340.9,132.488C343.625,133.013 347.663,133.811 348.568,135.519C348.483,135.81 348.399,136.102 348.317,136.392C348.084,136.059 347.764,135.826 347.357,135.702C345.738,135.199 344.278,134.872 342.934,134.65C342.28,134.541 341.65,134.458 341.043,134.399C340.238,134.319 339.47,134.281 338.736,134.281C336.005,134.281 333.721,134.798 331.57,135.566C330.27,136.03 329.02,136.585 327.75,137.176C326.028,137.976 324.269,138.838 322.302,139.619C318.592,141.089 313.753,142.665 309.077,144.258Z" style="fill:rgb(55,87,105);fill-rule:nonzero;"/>
    </g>
    <g transform="matrix(4.05036,0,0,4.05036,-139.896,-179.378)">
        <path d="M293.493,152.905C293.354,152.895 293.221,152.888 293.093,152.884C292.513,152.484 291.794,151.849 291.668,151.096C291.451,149.798 298.265,145.846 303.091,144.097C303.978,143.775 305.269,143.353 306.81,142.861C307.647,143.26 308.385,143.739 309.077,144.258C303.465,146.17 298.089,148.109 295.184,149.924C294.502,150.344 293.954,150.757 293.568,151.161C293.277,151.479 293.156,151.771 293.155,152.05C293.154,152.344 293.287,152.624 293.493,152.905ZM348.598,136.959C348.526,136.746 348.432,136.557 348.317,136.392C348.399,136.102 348.483,135.81 348.568,135.519C348.791,135.94 348.824,136.417 348.598,136.959Z" style="fill:rgb(130,170,192);fill-rule:nonzero;"/>
    </g>
    <g transform="matrix(4.05036,0,0,4.05036,-139.896,-179.378)">
        <path d="M353.304,109.509C351.833,107.109 355.906,123.237 355.852,127.649C355.798,132.06 356.326,137.629 353.577,143.564C353.577,143.564 356.447,141.658 356.628,136.174C356.689,134.346 357.24,131.936 357.14,129.109C357.041,126.282 357.506,122.166 356.557,117.393C355.608,112.62 353.84,110.385 353.304,109.509Z" style="fill:rgb(60,94,112);fill-rule:nonzero;"/>
    </g>
    <g transform="matrix(4.05036,0,0,4.05036,-139.896,-179.378)">
        <path d="M358.217,143.936C357.476,143.915 359.192,142.057 360.292,133.366C361.391,124.674 360.877,122.877 360.47,119.995C360.062,117.113 356.613,107.192 356.742,106.514C356.87,105.836 362.206,115.335 362.436,121.049C362.667,126.762 361.704,131.877 361.637,135.2C361.571,138.524 359.214,143.964 358.217,143.936Z" style="fill:rgb(60,94,112);fill-rule:nonzero;"/>
    </g>
    <g transform="matrix(4.05036,0,0,4.05036,-139.896,-179.378)">
        <path d="M364.781,107.37C365.202,107.55 367.38,119.896 367.192,124.404C367.005,128.911 365.689,142.196 365.689,142.196C365.689,142.196 366.471,140.111 367.668,131.631C368.864,123.151 367.531,113.608 367.107,111.165C366.683,108.723 364.781,107.37 364.781,107.37Z" style="fill:rgb(60,94,112);fill-rule:nonzero;"/>
    </g>
    <g transform="matrix(4.05036,0,0,4.05036,-139.896,-179.378)">
        <path d="M437.71,159.184L437.71,159.182L437.71,159.184ZM437.71,159.168C437.7,158.584 437.591,157.993 437.398,157.399C437.398,157.399 437.399,157.398 437.4,157.398C437.352,157.252 437.299,157.106 437.24,156.96C437.177,156.8 437.108,156.639 437.033,156.478C437.177,156.785 437.3,157.092 437.4,157.398C437.591,157.988 437.7,158.578 437.71,159.168Z" style="fill:rgb(18,31,100);fill-rule:nonzero;"/>
    </g>
    <g transform="matrix(4.05036,0,0,4.05036,-139.896,-179.378)">
        <path d="M443.839,130.821C443.881,130.799 443.925,130.777 443.97,130.755L444.004,130.733C443.992,130.741 443.979,130.75 443.967,130.759C443.923,130.779 443.88,130.8 443.839,130.821Z" style="fill:rgb(75,107,124);fill-rule:nonzero;"/>
    </g>
    <g transform="matrix(4.05036,0,0,4.05036,-139.896,-179.378)">
        <path d="M446.382,129.343C446.466,129.295 446.55,129.248 446.635,129.2C447.255,128.82 447.89,128.423 448.539,128.013C447.89,128.424 447.256,128.821 446.636,129.202C446.551,129.249 446.466,129.296 446.382,129.343Z" style="fill:rgb(75,107,124);fill-rule:nonzero;"/>
    </g>
    <g transform="matrix(4.05036,0,0,4.05036,-139.896,-179.378)">
        <path d="M451.777,125.932C452.461,125.497 453.151,125.047 453.843,124.582C453.151,125.047 452.462,125.497 451.777,125.932ZM456.352,122.841L456.357,122.84C456.397,122.811 456.438,122.782 456.478,122.753C456.864,122.482 457.25,122.201 457.635,121.917C457.21,122.231 456.783,122.54 456.357,122.84L456.352,122.841Z" style="fill:rgb(18,31,100);fill-rule:nonzero;"/>
    </g>
    <g transform="matrix(4.05036,0,0,4.05036,-139.896,-179.378)">
        <path d="M456.352,122.841L456.353,122.84C456.395,122.811 456.436,122.782 456.478,122.753C456.438,122.782 456.397,122.811 456.357,122.84L456.352,122.841Z" style="fill:rgb(75,107,124);fill-rule:nonzero;"/>
    </g>
    <g transform="matrix(4.05036,0,0,4.05036,-139.896,-179.378)">
        <path d="M460.583,119.683C460.857,119.468 461.131,119.249 461.406,119.026C461.673,118.818 461.951,118.6 462.228,118.362C462.563,118.088 462.899,117.81 463.234,117.53C462.899,117.812 462.563,118.09 462.225,118.367C461.953,118.597 461.678,118.816 461.403,119.03C461.13,119.251 460.857,119.469 460.583,119.683Z" style="fill:rgb(75,107,124);fill-rule:nonzero;"/>
    </g>
    <g transform="matrix(4.05036,0,0,4.05036,-139.896,-179.378)">
        <path d="M464.413,116.525C464.497,116.451 464.581,116.376 464.665,116.302C464.972,116.034 465.289,115.767 465.586,115.49C465.618,115.463 465.65,115.437 465.682,115.41C465.651,115.437 465.62,115.464 465.589,115.491C465.286,115.765 464.975,116.036 464.664,116.306C464.581,116.379 464.497,116.452 464.413,116.525Z" style="fill:rgb(75,107,124);fill-rule:nonzero;"/>
    </g>
    <g transform="matrix(4.05036,0,0,4.05036,-139.896,-179.378)">
        <path d="M466.003,115.121C466.073,115.055 466.142,114.989 466.21,114.925C466.439,114.721 466.668,114.51 466.897,114.298C466.671,114.513 466.44,114.721 466.213,114.924C466.144,114.99 466.074,115.056 466.003,115.121Z" style="fill:rgb(75,107,124);fill-rule:nonzero;"/>
    </g>
    <g transform="matrix(4.05036,0,0,4.05036,-139.896,-179.378)">
        <path d="M433.89,160.299C430.712,160.299 427.105,159.224 425.206,157.756C421.813,155.135 408.648,152.419 406.711,149.484C404.768,146.548 403.577,141.283 417.057,135.02C430.531,128.753 445.117,127.593 448.643,125.468C452.169,123.348 453.285,120.163 452.328,118.234C452.078,117.73 452.218,117.585 452.647,117.585C452.938,117.585 453.36,117.651 453.884,117.717C454.408,117.784 455.033,117.85 455.728,117.85C457.236,117.85 459.072,117.537 460.915,116.232C461.976,115.481 464.852,115.167 467.012,114.189C466.974,114.226 466.936,114.262 466.897,114.298C466.668,114.51 466.439,114.721 466.21,114.925C466.142,114.989 466.073,115.055 466.003,115.121C465.897,115.218 465.789,115.315 465.682,115.41C465.65,115.437 465.618,115.463 465.586,115.49C465.289,115.767 464.972,116.034 464.665,116.302C464.581,116.376 464.497,116.451 464.413,116.525C464.228,116.686 464.042,116.845 463.859,117.002C463.65,117.18 463.442,117.355 463.234,117.53C462.899,117.81 462.563,118.088 462.228,118.362C461.951,118.6 461.673,118.818 461.406,119.026C461.131,119.249 460.857,119.468 460.583,119.683C460.43,119.803 460.276,119.921 460.123,120.037C459.854,120.251 459.578,120.466 459.301,120.67C458.974,120.918 458.648,121.166 458.314,121.41C458.089,121.58 457.862,121.749 457.635,121.917C457.25,122.201 456.864,122.482 456.478,122.753C456.436,122.782 456.395,122.811 456.353,122.84L456.352,122.841L456.351,122.841C455.513,123.442 454.676,124.023 453.843,124.582C453.151,125.047 452.461,125.497 451.777,125.932C451.686,125.99 451.595,126.048 451.503,126.106C450.483,126.767 449.496,127.406 448.539,128.013C447.89,128.423 447.255,128.82 446.635,129.2C446.55,129.248 446.466,129.295 446.382,129.343C445.629,129.764 444.916,130.174 444.241,130.575C444.162,130.626 444.082,130.678 444.004,130.733L443.97,130.755C443.925,130.777 443.881,130.799 443.839,130.821C443.741,130.869 443.653,130.917 443.589,130.959C443.589,130.959 445.036,129.42 442.309,129.42C441.87,129.42 441.321,129.461 440.64,129.554C435.739,130.219 414.911,139.113 410.843,141.963C406.769,144.809 407.776,146.967 409.227,148.432C410.672,149.897 430.07,158.474 433.097,158.912C433.296,158.941 433.493,158.955 433.687,158.955C435.202,158.955 436.52,158.132 437.398,157.399C437.591,157.993 437.7,158.584 437.71,159.168L437.71,159.184C437.712,159.321 437.708,159.458 437.699,159.595C436.642,160.084 435.308,160.299 433.89,160.299ZM437.24,156.96C434.602,150.458 420.661,144.087 418.959,143.329L420.214,142.617C421.002,143.029 433.933,149.877 437.033,156.478C437.108,156.639 437.177,156.8 437.24,156.96Z" style="fill:rgb(178,211,228);fill-rule:nonzero;"/>
    </g>
    <g transform="matrix(4.05036,0,0,4.05036,-139.896,-179.378)">
        <path d="M370.35,107.706C370.35,107.706 371.995,119.139 371.372,126.29C370.748,133.441 369.155,141.466 369.32,141.385C369.485,141.304 372.55,139.294 372.949,126.388C373.348,113.483 372.068,107.073 370.35,107.706Z" style="fill:rgb(60,94,112);fill-rule:nonzero;"/>
    </g>
    <g transform="matrix(4.05036,0,0,4.05036,-139.896,-179.378)">
        <path d="M420.217,142.616C420.198,142.606 420.186,142.6 420.179,142.596C420.19,142.591 420.231,142.57 420.302,142.536C420.338,142.519 420.382,142.499 420.432,142.475L420.543,142.419L420.669,142.359L420.217,142.616Z" style="fill:rgb(18,22,63);fill-rule:nonzero;"/>
    </g>
    <g transform="matrix(4.05036,0,0,4.05036,-139.896,-179.378)">
        <path d="M420.214,142.617C420.189,142.604 420.177,142.598 420.177,142.598C420.177,142.598 420.177,142.597 420.179,142.596C420.186,142.6 420.198,142.606 420.217,142.616L420.214,142.617ZM420.302,142.536C420.339,142.518 420.383,142.496 420.434,142.471L420.543,142.419L420.432,142.475C420.382,142.499 420.338,142.519 420.302,142.536Z" style="fill:rgb(180,151,144);fill-rule:nonzero;"/>
    </g>
    <g transform="matrix(4.05036,0,0,4.05036,-139.896,-179.378)">
        <path d="M439.155,133.393C439.5,133.211 439.863,133.02 440.243,132.819C440.259,132.81 440.275,132.801 440.291,132.793C440.397,132.739 440.509,132.678 440.622,132.618C440.975,132.424 441.343,132.222 441.725,132.012C441.653,132.09 441.575,132.173 441.489,132.26C441.469,132.272 440.572,132.707 439.155,133.393Z" style="fill:rgb(18,22,63);fill-rule:nonzero;"/>
    </g>
    <g transform="matrix(4.05036,0,0,4.05036,-139.896,-179.378)">
        <path d="M440.291,132.793C440.399,132.736 440.509,132.675 440.62,132.613C440.974,132.421 441.344,132.22 441.727,132.009C441.726,132.01 441.726,132.011 441.725,132.012C441.343,132.222 440.975,132.424 440.622,132.618C440.509,132.678 440.397,132.739 440.291,132.793Z" style="fill:rgb(180,151,144);fill-rule:nonzero;"/>
    </g>
    <g transform="matrix(4.05036,0,0,4.05036,-139.896,-179.378)">
        <path d="M420.179,142.596C420.178,142.596 420.177,142.595 420.176,142.595C420.2,142.583 420.223,142.572 420.245,142.562C420.262,142.554 420.281,142.546 420.302,142.536C420.231,142.57 420.19,142.591 420.179,142.596Z" style="fill:rgb(68,71,74);fill-rule:nonzero;"/>
    </g>
    <g transform="matrix(4.05036,0,0,4.05036,-139.896,-179.378)">
        <path d="M418.959,143.329C418.848,143.28 418.789,143.254 418.789,143.254C418.789,143.254 419.704,142.819 420.176,142.595C420.177,142.595 420.178,142.596 420.179,142.596C420.177,142.597 420.177,142.598 420.177,142.598C420.177,142.598 420.189,142.604 420.214,142.617L418.959,143.329ZM420.245,142.562C420.337,142.518 420.405,142.485 420.434,142.471C420.383,142.496 420.339,142.518 420.302,142.536C420.281,142.546 420.262,142.554 420.245,142.562Z" style="fill:rgb(162,141,137);fill-rule:nonzero;"/>
    </g>
    <g transform="matrix(4.05036,0,0,4.05036,-139.896,-179.378)">
        <path d="M437.398,157.399C437.35,157.253 437.297,157.107 437.24,156.96C437.299,157.106 437.352,157.252 437.4,157.398C437.399,157.398 437.398,157.399 437.398,157.399Z" style="fill:rgb(16,29,95);fill-rule:nonzero;"/>
    </g>
    <g transform="matrix(4.05036,0,0,4.05036,-139.896,-179.378)">
        <path d="M433.687,158.955C433.493,158.955 433.296,158.941 433.097,158.912C430.07,158.474 410.672,149.897 409.227,148.432C407.776,146.967 406.769,144.809 410.843,141.963C414.911,139.113 435.739,130.219 440.64,129.554C441.321,129.461 441.87,129.42 442.309,129.42C445.036,129.42 443.589,130.959 443.589,130.959C442.94,131.336 442.318,131.684 441.727,132.009C442.53,131.126 442.405,130.783 441.727,130.783C439.519,130.783 431.459,134.417 430.555,134.825C424.04,137.771 407.764,141.518 409.825,146.813C410.182,147.731 411.463,148.208 412.584,148.582C417.488,150.191 429.642,157.755 433.99,157.755C434.583,157.755 435.031,157.614 435.295,157.298C438.756,153.081 420.861,144.257 418.953,143.333L418.959,143.329C420.661,144.087 434.602,150.458 437.24,156.96C437.297,157.107 437.35,157.253 437.398,157.399C436.52,158.132 435.202,158.955 433.687,158.955Z" style="fill:rgb(160,197,216);fill-rule:nonzero;"/>
    </g>
    <g transform="matrix(4.05036,0,0,4.05036,-139.896,-179.378)">
        <path d="M420.692,142.345C420.699,142.342 420.707,142.338 420.715,142.334C420.908,142.241 421.148,142.126 421.428,141.991C421.137,142.131 420.889,142.251 420.692,142.345Z" style="fill:rgb(67,100,118);fill-rule:nonzero;"/>
    </g>
    <g transform="matrix(4.05036,0,0,4.05036,-139.896,-179.378)">
        <path d="M434.767,135.576L434.767,135.573L434.767,135.576Z" style="fill:rgb(67,100,118);fill-rule:nonzero;"/>
    </g>
    <g transform="matrix(4.05036,0,0,4.05036,-139.896,-179.378)">
        <path d="M434.767,135.571L434.767,135.57C434.767,135.57 434.866,135.52 435.044,135.441L435.046,135.441C435.045,135.441 435.044,135.442 435.043,135.442C434.872,135.523 434.772,135.568 434.767,135.571Z" style="fill:rgb(67,100,118);fill-rule:nonzero;"/>
    </g>
    <g transform="matrix(4.05036,0,0,4.05036,-139.896,-179.378)">
        <path d="M435.445,135.251L435.48,135.233L435.5,135.223L435.506,135.222L435.5,135.224L435.477,135.238L435.445,135.251Z" style="fill:rgb(67,100,118);fill-rule:nonzero;"/>
    </g>
    <g transform="matrix(4.05036,0,0,4.05036,-139.896,-179.378)">
        <path d="M438.556,133.709C438.741,133.61 438.933,133.509 439.131,133.404C439.139,133.4 439.147,133.397 439.155,133.393C438.949,133.502 438.749,133.607 438.556,133.709Z" style="fill:rgb(67,100,118);fill-rule:nonzero;"/>
    </g>
    <g transform="matrix(4.05036,0,0,4.05036,-139.896,-179.378)">
        <path d="M420.715,142.334C423.229,141.091 434.238,135.772 439.131,133.404C438.933,133.509 438.741,133.61 438.556,133.709C437.863,134.073 437.254,134.393 436.737,134.668C436.256,134.894 435.871,135.055 435.536,135.209L435.506,135.222L435.5,135.223L435.48,135.233L435.445,135.251L435.436,135.255L435.284,135.329C435.219,135.359 435.138,135.396 435.046,135.441L435.044,135.441C434.866,135.52 434.767,135.57 434.767,135.57L434.767,135.576C432.277,136.771 424.489,140.519 421.428,141.991C421.148,142.126 420.908,142.241 420.715,142.334Z" style="fill:rgb(160,197,216);fill-rule:nonzero;"/>
    </g>
    <g transform="matrix(4.05036,0,0,4.05036,-139.896,-179.378)">
        <path d="M420.176,142.595C420.175,142.594 420.174,142.594 420.174,142.594C420.174,142.594 420.198,142.583 420.245,142.562C420.223,142.572 420.2,142.583 420.176,142.595Z" style="fill:rgb(61,66,70);fill-rule:nonzero;"/>
    </g>
    <g transform="matrix(4.05036,0,0,4.05036,-139.896,-179.378)">
        <path d="M420.543,142.419L420.67,142.356L420.69,142.346C420.698,142.342 420.706,142.338 420.715,142.334C420.707,142.338 420.699,142.342 420.692,142.345L420.669,142.359L420.543,142.419Z" style="fill:rgb(61,66,70);fill-rule:nonzero;"/>
    </g>
    <g transform="matrix(4.05036,0,0,4.05036,-139.896,-179.378)">
        <path d="M439.131,133.404C439.484,133.218 439.855,133.022 440.245,132.816C440.26,132.808 440.276,132.801 440.291,132.793C440.275,132.801 440.259,132.81 440.243,132.819C439.863,133.02 439.5,133.211 439.155,133.393C439.147,133.397 439.139,133.4 439.131,133.404Z" style="fill:rgb(61,66,70);fill-rule:nonzero;"/>
    </g>
    <g transform="matrix(4.05036,0,0,4.05036,-139.896,-179.378)">
        <path d="M433.99,157.755C429.642,157.755 417.488,150.191 412.584,148.582C411.463,148.208 410.182,147.731 409.825,146.813C407.764,141.518 424.04,137.771 430.555,134.825C431.459,134.417 439.519,130.783 441.727,130.783C442.405,130.783 442.53,131.126 441.727,132.009C441.344,132.22 440.974,132.421 440.62,132.613C440.509,132.675 440.399,132.736 440.291,132.793C440.276,132.801 440.26,132.808 440.245,132.816C439.855,133.022 439.484,133.218 439.131,133.404C434.238,135.772 423.229,141.091 420.715,142.334C420.706,142.338 420.698,142.342 420.69,142.346L420.67,142.356L420.543,142.419L420.434,142.471C420.405,142.485 420.337,142.518 420.245,142.562C420.198,142.583 420.174,142.594 420.174,142.594C420.174,142.594 420.175,142.594 420.176,142.595C419.704,142.819 418.789,143.254 418.789,143.254C418.789,143.254 418.848,143.28 418.959,143.329L418.953,143.333C420.861,144.257 438.756,153.081 435.295,157.298C435.031,157.614 434.583,157.755 433.99,157.755Z" style="fill:rgb(145,132,130);fill-rule:nonzero;"/>
    </g>
    <g transform="matrix(4.05036,0,0,4.05036,-139.896,-179.378)">
        <path d="M440.714,109.371C441.19,111.465 442.918,112.893 444.574,112.559C446.229,112.225 447.185,110.257 446.709,108.163C446.233,106.068 444.505,104.641 442.849,104.975C441.194,105.309 440.238,107.277 440.714,109.371Z" style="fill:rgb(55,86,102);fill-rule:nonzero;"/>
    </g>
    <g transform="matrix(4.05036,0,0,4.05036,-139.896,-179.378)">
        <path d="M424.577,175.089C424.013,175.089 423.408,174.919 422.769,174.535C423.13,174.445 423.49,174.403 423.85,174.403C424.516,174.403 425.177,174.547 425.819,174.797C425.433,174.985 425.018,175.089 424.577,175.089Z" style="fill:rgb(17,30,100);fill-rule:nonzero;"/>
    </g>
    <g transform="matrix(4.05036,0,0,4.05036,-139.896,-179.378)">
        <path d="M260.101,175.123C258.673,175.05 257.245,174.962 255.825,174.86C257.23,174.96 258.638,175.047 260.039,175.12C260.06,175.121 260.081,175.122 260.101,175.123Z" style="fill:rgb(18,31,100);fill-rule:nonzero;"/>
    </g>
    <g transform="matrix(4.05036,0,0,4.05036,-139.896,-179.378)">
        <path d="M281.253,175.651C274.443,175.651 267.618,175.492 260.778,175.157C260.552,175.146 260.327,175.135 260.101,175.123C260.081,175.122 260.06,175.121 260.039,175.12C260.285,175.133 260.532,175.145 260.778,175.157C267.618,175.492 274.443,175.651 281.253,175.651C283.729,175.651 286.2,175.63 288.671,175.589C286.2,175.63 283.729,175.651 281.253,175.651Z" style="fill:rgb(75,107,124);fill-rule:nonzero;"/>
    </g>
    <g transform="matrix(4.05036,0,0,4.05036,-139.896,-179.378)">
        <path d="M214.93,163.437L214.504,163.437C213.682,162.902 212.86,162.199 211.988,161.297C215.372,161.645 218.676,162.495 221.969,163.402C219.622,163.418 217.275,163.427 214.93,163.437Z" style="fill:rgb(75,107,124);fill-rule:nonzero;"/>
    </g>
    <g transform="matrix(4.05036,0,0,4.05036,-139.896,-179.378)">
        <path d="M214.504,163.437C210.627,163.437 206.695,163.415 202.88,162.764C202.839,162.365 202.86,161.956 202.953,161.545C204.74,161.247 206.554,161.095 208.371,161.095C209.273,161.095 210.176,161.133 211.077,161.208C211.384,161.228 211.691,161.258 211.988,161.297C212.86,162.199 213.682,162.902 214.504,163.437ZM271.242,159.664C270.753,159.306 270.514,158.921 270.645,158.504C271.047,157.222 277.843,153.68 285.628,153.68C286.09,153.68 286.553,153.693 287.02,153.719C287.213,153.728 287.394,153.732 287.565,153.732C288.799,153.732 289.506,153.518 290.196,153.305C290.886,153.091 291.56,152.877 292.729,152.877C292.845,152.877 292.967,152.88 293.093,152.884C293.512,153.172 293.859,153.339 293.859,153.339L293.86,153.338C294.489,154.011 295.364,154.734 295.723,155.705C287.505,156.563 279.388,158.226 271.242,159.664Z" style="fill:rgb(178,211,228);fill-rule:nonzero;"/>
    </g>
    <g transform="matrix(4.05036,0,0,4.05036,-139.896,-179.378)">
        <path d="M223.718,165.846C223.202,165.846 222.713,165.817 222.261,165.755C219.061,165.31 216.793,164.973 214.504,163.437L214.93,163.437C217.275,163.427 219.622,163.418 221.969,163.402C223.842,163.918 225.712,164.452 227.591,164.923C227.948,165.012 228.314,165.111 228.681,165.2C226.923,165.605 225.204,165.846 223.718,165.846Z" style="fill:rgb(67,100,118);fill-rule:nonzero;"/>
    </g>
    <g transform="matrix(4.05036,0,0,4.05036,-139.896,-179.378)">
        <path d="M281.253,175.651C274.443,175.651 267.618,175.492 260.778,175.157C259.133,175.077 257.479,174.978 255.825,174.86C251.684,174.562 247.553,174.146 243.422,173.651C243.293,173.631 243.174,173.621 243.045,173.601C242.342,173.512 241.628,173.423 240.925,173.324C240.103,173.225 239.291,173.106 238.468,172.997C238.191,172.957 237.913,172.917 237.635,172.876C237.089,172.798 236.543,172.719 235.992,172.64C235.379,172.547 234.769,172.454 234.161,172.36C233.538,172.264 232.918,172.166 232.297,172.066C231.583,171.957 230.86,171.838 230.147,171.709C229.345,171.582 228.544,171.446 227.742,171.308C227.566,171.097 224.087,166.988 219.935,166.157C217.65,165.699 212.958,165.315 209.248,165.315C207.088,165.315 205.261,165.445 204.436,165.766C203.595,164.935 202.995,163.885 202.88,162.764C206.695,163.415 210.627,163.437 214.504,163.437C216.793,164.973 219.061,165.31 222.261,165.755C222.713,165.817 223.202,165.846 223.718,165.846C225.204,165.846 226.923,165.605 228.681,165.2C238.668,167.739 250.404,170.779 261.127,170.779C263.966,170.779 266.731,170.566 269.377,170.075C270.912,169.797 291.538,168.856 281.671,163.189C280.032,162.249 273.34,161.205 271.242,159.664C279.388,158.226 287.505,156.563 295.723,155.705C295.771,155.834 295.809,155.967 295.837,156.104C295.962,156.74 296.023,157.403 296.023,158.09C296.03,163.121 292.855,169.435 288.671,175.589C286.2,175.63 283.729,175.651 281.253,175.651Z" style="fill:rgb(160,197,216);fill-rule:nonzero;"/>
    </g>
    <g transform="matrix(4.05036,0,0,4.05036,-139.896,-179.378)">
        <path d="M227.742,171.308C227.355,171.241 226.968,171.173 226.581,171.105C224.797,170.788 223.024,170.451 221.251,170.114C218.873,169.213 216.396,168.608 213.831,168.341C213.276,168.301 212.721,168.252 212.127,168.212L212.038,168.202L211.978,168.183L211.968,168.183C210.146,168.064 208.293,167.945 206.589,167.221C206.292,167.093 205.985,166.964 205.717,166.756C205.255,166.481 204.82,166.146 204.436,165.766C205.261,165.445 207.088,165.315 209.248,165.315C212.958,165.315 217.65,165.699 219.935,166.157C224.087,166.988 227.566,171.097 227.742,171.308Z" style="fill:rgb(85,122,142);fill-rule:nonzero;"/>
    </g>
    <g transform="matrix(4.05036,0,0,4.05036,-139.896,-179.378)">
        <path d="M293.859,153.339C293.859,153.339 293.512,153.172 293.093,152.884C293.221,152.888 293.354,152.895 293.493,152.905C293.599,153.048 293.724,153.192 293.86,153.338L293.859,153.339Z" style="fill:rgb(117,159,182);fill-rule:nonzero;"/>
    </g>
    <g transform="matrix(4.05036,0,0,4.05036,-139.896,-179.378)">
        <path d="M350.195,156.685C346.497,156.685 342.792,156.562 339.081,156.383C340.223,155 341.265,153.647 342.204,152.345C343.854,152.315 345.503,152.284 347.153,152.253C349.6,152.223 352.067,152.164 354.306,151.153C356.218,150.271 357.803,148.775 359.596,147.646C361.985,146.123 364.81,145.344 367.632,145.344C369.619,145.344 371.605,145.731 373.435,146.517C377.182,148.079 380.156,151.139 383.688,153.096C379.116,153.549 374.376,154.398 368.819,155.314C362.646,156.335 356.433,156.685 350.195,156.685Z" style="fill:rgb(178,211,228);fill-rule:nonzero;"/>
    </g>
    <g transform="matrix(4.05036,0,0,4.05036,-139.896,-179.378)">
        <path d="M320.462,173.97C328.319,168.018 334.514,161.919 339.081,156.383C342.792,156.562 346.497,156.685 350.195,156.685C356.433,156.685 362.646,156.335 368.819,155.314C374.376,154.398 379.116,153.549 383.688,153.096C384.368,153.473 385.068,153.809 385.799,154.085C392.188,156.542 396.32,156.185 402.907,157.909C405.206,158.494 407.543,159.405 408.98,161.218C409.475,161.842 403.68,166.013 404.096,166.855L404.066,166.855C403.225,166.855 391.411,166.371 382.866,166.371C379.24,166.371 376.203,166.459 374.842,166.706C357.069,169.903 338.891,172.429 320.462,173.97Z" style="fill:rgb(160,197,216);fill-rule:nonzero;"/>
    </g>
    <g transform="matrix(4.05036,0,0,4.05036,-139.896,-179.378)">
        <path d="M286.937,192.735C335.116,173.478 354.467,137.864 347.357,135.702C345.738,135.199 344.278,134.872 342.934,134.65C333.6,133.092 329.256,136.844 322.307,139.631C317.745,141.435 311.419,143.447 305.83,145.419C300.205,147.393 295.282,149.365 293.568,151.161C291.998,152.875 295.38,153.836 295.837,156.104C297.069,162.362 292.011,171.296 285.946,179.398C284.845,180.901 283.707,182.407 282.527,183.84C282.109,184.307 281.765,184.77 281.381,185.198C278.189,189.036 282.304,194.58 286.937,192.735Z" style="fill:rgb(103,143,163);fill-rule:nonzero;"/>
    </g>
    <g transform="matrix(4.05036,0,0,4.05036,-139.896,-179.378)">
        <path d="M75.44,135.234C72.551,135.234 70.105,135.191 68.899,135.108C66.489,134.943 83.877,131.271 91.838,130.201C102.65,128.747 114.287,128.941 124.443,127.552C145.411,124.684 171.163,117.683 192.801,114.964C231.287,110.127 263.493,108.468 270.918,108.468C272.026,108.468 272.582,108.505 272.524,108.574C272.302,108.84 232.915,113.144 192.479,118.856C164.917,122.749 137.358,128.475 124.123,128.88C113.827,129.195 102.237,132.99 92.069,134.637C89.558,135.044 81.521,135.234 75.44,135.234Z" style="fill:rgb(92,127,145);fill-rule:nonzero;"/>
    </g>
    <g transform="matrix(4.05036,0,0,4.05036,-139.896,-179.378)">
        <path d="M96.557,127.806C102.458,127.482 113.246,124.521 127.106,120.948C127.357,120.812 127.624,120.651 127.901,120.472C127.624,120.652 127.357,120.812 127.107,120.949C113.453,124.467 102.778,127.395 96.824,127.791C96.735,127.796 96.645,127.801 96.557,127.806ZM137.63,115.806C136.543,115.388 135.537,114.927 134.849,114.455C134.661,114.318 134.447,114.256 134.238,114.256C134.033,114.256 133.831,114.315 133.657,114.423C133.83,114.315 134.032,114.255 134.237,114.255C134.448,114.255 134.661,114.318 134.851,114.456C135.538,114.927 136.543,115.388 137.63,115.806ZM207.424,100.605C210.758,99.818 213.98,99.058 217.046,98.338C213.981,99.058 210.758,99.818 207.424,100.605ZM398.896,90.646C392.951,90.366 387.306,89.868 377.508,88.656C376.141,88.489 374.731,88.338 373.288,88.201C374.732,88.338 376.142,88.489 377.51,88.656C385.141,89.602 392.225,90.218 398.896,90.646ZM247.331,89.964C247.364,89.888 247.358,89.778 247.352,89.667C247.054,86.946 245.308,84.786 249.596,75.302C249.734,74.998 249.856,74.684 249.964,74.361C249.856,74.684 249.734,74.998 249.596,75.303C245.309,84.787 247.055,86.946 247.352,89.668C247.357,89.779 247.366,89.889 247.331,89.964C247.33,89.964 247.332,89.964 247.331,89.964ZM278.59,63.797C270.836,55.94 262.325,48.14 245.82,44.289C245.82,44.289 245.81,44.288 245.791,44.288C245.693,44.288 245.361,44.3 245.005,44.446C245.363,44.299 245.696,44.287 245.792,44.287C245.81,44.287 245.82,44.288 245.82,44.288C262.324,48.139 270.835,55.939 278.59,63.797Z" style="fill:rgb(32,52,121);fill-rule:nonzero;"/>
    </g>
    <g transform="matrix(4.05036,0,0,4.05036,-139.896,-179.378)">
        <path d="M96.824,127.791C102.778,127.395 113.453,124.467 127.107,120.949C127.357,120.812 127.624,120.652 127.901,120.472C130.042,119.086 132.774,116.562 133.183,115.065C133.254,114.786 133.431,114.563 133.657,114.423C133.831,114.315 134.033,114.256 134.238,114.256C134.447,114.256 134.661,114.318 134.849,114.455C135.537,114.927 136.543,115.388 137.63,115.806C138.914,116.3 140.311,116.734 141.431,117.054C158.812,112.228 185.49,105.793 207.424,100.605C210.758,99.818 213.981,99.058 217.046,98.338C227.93,95.778 236.812,93.709 241.482,92.579C241.482,92.579 307.921,89.89 312.752,88.959C317.584,88.027 302.264,85.244 298.634,85.147C298.34,85.142 298.033,85.139 297.713,85.139C287.604,85.139 264.388,87.808 247.331,89.964C247.366,89.889 247.357,89.779 247.352,89.668C247.055,86.946 245.309,84.787 249.596,75.303C249.734,74.998 249.856,74.684 249.964,74.361C252.801,65.821 245.125,51.04 244.156,47.671C243.534,45.511 244.316,44.729 245.005,44.446C245.361,44.3 245.693,44.288 245.791,44.288C245.81,44.288 245.82,44.289 245.82,44.289C262.325,48.14 270.836,55.94 278.59,63.797C289.164,74.511 298.333,85.331 324.449,86.393C336.038,86.878 356.841,86.638 373.288,88.201C374.731,88.338 376.141,88.489 377.508,88.656C387.306,89.868 392.951,90.366 398.896,90.646C406.181,91.112 412.972,91.354 419.438,91.553C419.26,91.877 419.271,92.173 419.518,92.546C419.823,93.004 424.546,93.515 426.754,93.515C426.883,93.515 427.003,93.513 427.113,93.51C428.037,93.504 428.968,93.49 429.897,93.49C431.365,93.49 432.829,93.524 434.261,93.676C436.001,93.857 437.687,94.187 439.351,94.58C384.983,98.799 396.259,97.203 388.662,101.767C381.052,106.393 382.783,113.625 379.192,113.625C378.931,113.625 378.642,113.586 378.32,113.507C373.723,112.356 372.716,105.199 370.508,105.199C370.445,105.199 370.382,105.204 370.318,105.216C367.939,105.68 370.416,117.085 369.536,117.245L369.531,117.245C369.11,117.245 368.655,114.332 368.028,111.419C367.401,108.506 366.601,105.593 365.491,105.593C365.48,105.593 365.468,105.593 365.456,105.594C363.206,105.718 365.081,112.902 364.174,114.58C364.112,114.697 364.038,114.752 363.952,114.752C363.383,114.752 362.319,112.348 361.113,109.945C359.907,107.542 358.56,105.139 357.425,105.139C357.368,105.139 357.312,105.145 357.257,105.157C354.771,105.701 357.185,111.931 357.428,114.322C357.454,114.582 357.434,114.697 357.376,114.697C356.902,114.697 353.895,107.163 352.127,106.733C352.057,106.716 351.991,106.708 351.93,106.708C350.256,106.708 351.802,112.877 352.016,115.47C352.047,115.798 351.982,115.944 351.838,115.944C351.195,115.944 348.973,113.013 346.714,110.243C346.221,109.085 345.902,108.407 345.902,108.407C346.025,108.838 346.145,109.265 346.261,109.691C344.98,108.138 343.719,106.704 342.762,105.954C340.175,103.899 307.574,101.581 273.511,101.581C266.838,101.581 260.104,101.67 253.534,101.868C213.463,103.07 129.438,124.334 121.821,125.752C116.495,126.74 105.172,127.333 96.824,127.791ZM347.772,97.595C348.104,97.595 348.438,97.614 348.771,97.657C351.278,97.983 353.478,99.65 355.996,99.875C356.202,99.893 356.406,99.902 356.609,99.902C359.627,99.902 362.38,97.968 365.327,97.115C366.738,96.707 368.168,96.551 369.61,96.551C374.08,96.551 378.674,98.05 383.224,98.188C383.448,98.195 383.671,98.198 383.895,98.198C387.533,98.198 391.17,97.307 394.393,95.618C395.497,95.04 396.711,94.013 396.397,92.806C396.078,91.585 394.501,91.297 393.239,91.251C388.281,91.068 383.322,90.927 378.361,90.827C372.355,90.705 366.349,90.645 360.342,90.645C357.21,90.645 354.077,90.661 350.945,90.694C350.785,90.696 350.625,90.697 350.465,90.697C347.405,90.697 344.397,90.397 341.395,90.097C338.393,89.797 335.396,89.498 332.357,89.498C331.49,89.498 330.618,89.522 329.743,89.578C322.657,90.029 315.576,90.54 308.499,91.109C304.48,91.432 300.377,91.796 296.688,93.425C309.212,94.473 321.761,95.525 334.115,97.833C336.121,98.208 338.149,98.617 340.18,98.617C340.628,98.617 341.077,98.597 341.526,98.552C343.623,98.343 345.689,97.595 347.772,97.595Z" style="fill:rgb(92,127,145);fill-rule:nonzero;"/>
    </g>
    <g transform="matrix(4.05036,0,0,4.05036,-139.896,-179.378)">
        <path d="M346.714,110.243C346.563,110.058 346.412,109.874 346.261,109.691C346.145,109.265 346.025,108.838 345.902,108.407C345.902,108.407 346.221,109.085 346.714,110.243Z" style="fill:rgb(70,108,128);fill-rule:nonzero;"/>
    </g>
    <g transform="matrix(4.05036,0,0,4.05036,-139.896,-179.378)">
        <path d="M243.773,92.132C245.354,91.828 246.919,91.406 247.263,90.353C246.921,91.407 245.355,91.828 243.773,92.132ZM247.331,89.964C247.332,89.964 247.33,89.964 247.331,89.964Z" style="fill:rgb(29,48,113);fill-rule:nonzero;"/>
    </g>
    <g transform="matrix(4.05036,0,0,4.05036,-139.896,-179.378)">
        <path d="M241.482,92.579C242.14,92.414 242.959,92.289 243.773,92.132C245.355,91.828 246.921,91.407 247.263,90.353C247.302,90.232 247.326,90.103 247.331,89.964C264.388,87.808 287.604,85.139 297.713,85.139C298.033,85.139 298.34,85.142 298.634,85.147C302.264,85.244 317.584,88.027 312.752,88.959C307.921,89.89 241.482,92.579 241.482,92.579Z" style="fill:rgb(78,114,133);fill-rule:nonzero;"/>
    </g>
    <g transform="matrix(4.05036,0,0,4.05036,-139.896,-179.378)">
        <path d="M95.51,127.846C95.269,127.846 95.037,127.84 94.816,127.828C95.029,127.839 95.252,127.845 95.483,127.845C95.652,127.845 95.826,127.842 96.004,127.836C95.981,127.838 95.957,127.839 95.934,127.84C95.789,127.844 95.648,127.846 95.51,127.846ZM74.431,103.405C65.543,94.209 52.789,85.481 34.539,83.716C34.54,83.716 34.539,83.716 34.539,83.716C52.789,85.48 65.544,94.209 74.431,103.405ZM37.028,85.6C36.358,85.069 35.745,84.605 35.296,84.27C35.745,84.604 36.357,85.068 37.028,85.6Z" style="fill:rgb(32,52,121);fill-rule:nonzero;"/>
    </g>
    <g transform="matrix(4.05036,0,0,4.05036,-139.896,-179.378)">
        <path d="M88.133,128.341C82.232,128.341 75.259,110.181 63.932,98.895C56.415,91.355 44.474,87.461 37.087,85.647C37.067,85.632 37.048,85.616 37.028,85.6C36.357,85.068 35.745,84.604 35.296,84.27C34.845,83.935 34.559,83.729 34.54,83.716C52.789,85.481 65.543,94.209 74.431,103.405C85.032,114.375 90.132,126.01 92.496,127.289C93.052,127.608 93.834,127.778 94.816,127.828C95.037,127.84 95.269,127.846 95.51,127.846C95.648,127.846 95.789,127.844 95.934,127.84C92.755,128.015 90.054,128.164 88.41,128.327C88.318,128.336 88.226,128.341 88.133,128.341Z" style="fill:rgb(92,127,145);fill-rule:nonzero;"/>
    </g>
    <g transform="matrix(4.05036,0,0,4.05036,-139.896,-179.378)">
        <path d="M57.784,179.771C62.737,179.339 68.495,174.598 73.814,168.458C73.817,168.456 73.819,168.454 73.821,168.452C68.499,174.597 62.738,179.34 57.784,179.771ZM62.945,123.569C59.059,112.985 52.458,105.248 47.578,100.622C52.459,105.247 59.06,112.984 62.945,123.569Z" style="fill:rgb(18,31,100);fill-rule:nonzero;"/>
    </g>
    <g transform="matrix(4.05036,0,0,4.05036,-139.896,-179.378)">
        <path d="M57.059,179.803C56.566,179.803 56.082,179.757 55.607,179.663C52.877,179.11 68.811,162.106 65.852,135.856C65.353,131.411 64.319,127.312 62.945,123.569C59.06,112.984 52.459,105.247 47.578,100.622C46.659,99.752 45.802,98.991 45.035,98.343C47.389,99.434 49.74,100.488 52.094,101.58C54.675,102.77 57.329,103.956 59.537,105.758C63.176,108.702 65.486,113.051 66.66,117.574C67.798,122.136 67.873,126.866 67.649,131.54C67.568,133.431 67.413,135.326 67.699,137.16C67.897,138.74 68.423,140.228 68.766,141.762C71.042,151.551 67.231,161.638 63.339,170.915C62.945,171.824 62.602,172.99 63.309,173.728C63.606,174.041 64.002,174.158 64.426,174.158C64.956,174.158 65.53,173.975 66.011,173.764C69.009,172.491 71.494,170.618 73.814,168.458C68.495,174.598 62.737,179.339 57.784,179.771C57.541,179.792 57.299,179.803 57.059,179.803Z" style="fill:rgb(75,107,124);fill-rule:nonzero;"/>
    </g>
    <g transform="matrix(4.05036,0,0,4.05036,-139.896,-179.378)">
        <path d="M232.692,153.366C228.67,153.366 224.713,152.732 221.041,151.091C216.363,149 212.468,145.405 207.745,143.421C202.816,141.35 197.357,141.174 191.983,141.174C191.351,141.174 190.721,141.177 190.092,141.179C189.244,141.181 188.394,141.183 187.546,141.183C181.629,141.183 175.712,141.115 169.797,140.98C169.793,140.98 169.79,140.98 169.786,140.979C169.652,140.963 169.492,140.955 169.31,140.955C169.211,140.955 169.106,140.958 168.995,140.962C161.494,140.783 153.997,140.496 146.504,140.1C141.393,139.831 136.285,139.511 131.181,139.14C131.174,139.139 131.167,139.138 131.16,139.136C123.255,137.611 120.115,135.758 112.12,135.095C111.75,135.064 111.367,135.05 110.976,135.05C109.88,135.05 108.713,135.155 107.545,135.27C109.784,134.746 112.399,134.646 115.006,134.646C115.816,134.646 116.625,134.656 117.422,134.665C118.221,134.675 119.007,134.685 119.77,134.685C120.619,134.685 121.439,134.673 122.213,134.635C127.901,134.359 133.59,134.084 139.278,133.808C150.413,133.268 161.547,132.729 172.682,132.188C191.278,131.287 209.88,130.385 228.428,128.779C261.976,125.873 295.412,120.659 329.08,120.659C329.429,120.659 329.775,120.66 330.124,120.661C333.645,120.672 338.36,121.9 338.245,125.42C338.179,127.427 336.378,128.923 334.596,129.85C323.473,135.634 308.303,130.1 298.336,137.703C297.866,138.062 297.013,138.197 295.932,138.197C294.289,138.197 292.118,137.886 289.952,137.575C287.787,137.264 285.628,136.953 284.01,136.953C283.009,136.953 282.214,137.072 281.754,137.384C275.534,141.604 271.513,143.608 264.004,143.944C255.723,144.315 253.518,149.769 245.451,151.673C241.298,152.653 236.958,153.366 232.692,153.366Z" style="fill:rgb(75,107,124);fill-rule:nonzero;"/>
    </g>
    <g transform="matrix(4.05036,0,0,4.05036,-139.896,-179.378)">
        <path d="M169.797,140.98C169.529,140.974 169.263,140.968 168.995,140.962C169.106,140.958 169.211,140.955 169.31,140.955C169.492,140.955 169.652,140.963 169.786,140.979C169.79,140.98 169.793,140.98 169.797,140.98ZM131.181,139.14C129.095,138.989 127.013,138.829 124.929,138.661C124.619,138.636 124.182,138.617 123.647,138.599C118.981,138.445 106.856,138.406 106.199,135.655C106.629,135.506 107.079,135.379 107.545,135.27C108.713,135.155 109.88,135.05 110.976,135.05C111.367,135.05 111.75,135.064 112.12,135.095C120.115,135.758 123.255,137.611 131.16,139.136C131.167,139.138 131.174,139.139 131.181,139.14Z" style="fill:rgb(178,211,228);fill-rule:nonzero;"/>
    </g>
    <g transform="matrix(4.05036,0,0,4.05036,-139.896,-179.378)">
        <path d="M356.609,99.902C356.406,99.902 356.202,99.893 355.996,99.875C353.478,99.65 351.278,97.983 348.771,97.657C348.438,97.614 348.104,97.595 347.772,97.595C345.689,97.595 343.623,98.343 341.526,98.552C341.077,98.597 340.628,98.617 340.18,98.617C338.149,98.617 336.121,98.208 334.115,97.833C321.761,95.525 309.212,94.473 296.688,93.425C300.377,91.796 304.48,91.432 308.499,91.109C315.576,90.54 322.657,90.029 329.743,89.578C330.618,89.522 331.49,89.498 332.357,89.498C335.396,89.498 338.393,89.797 341.395,90.097C344.397,90.397 347.405,90.697 350.465,90.697C350.625,90.697 350.785,90.696 350.945,90.694C354.077,90.661 357.21,90.645 360.342,90.645C366.349,90.645 372.355,90.705 378.361,90.827C383.322,90.927 388.281,91.068 393.239,91.251C394.501,91.297 396.078,91.585 396.397,92.806C396.711,94.013 395.497,95.04 394.393,95.618C391.17,97.307 387.533,98.198 383.895,98.198C383.671,98.198 383.448,98.195 383.224,98.188C378.674,98.05 374.08,96.551 369.61,96.551C368.168,96.551 366.738,96.707 365.327,97.115C362.38,97.968 359.627,99.902 356.609,99.902Z" style="fill:rgb(100,138,157);fill-rule:nonzero;"/>
    </g>
    <g transform="matrix(4.05036,0,0,4.05036,-139.896,-179.378)">
        <path d="M460.173,94.34C458.171,94.023 455.987,93.726 453.63,93.452L453.583,93.459L453.63,93.45C455.986,93.725 458.171,94.022 460.173,94.34ZM429.814,91.618C426.569,91.469 423.177,91.347 419.646,91.252C419.647,91.252 419.648,91.251 419.648,91.25C423.178,91.346 426.57,91.469 429.814,91.618Z" style="fill:rgb(32,52,121);fill-rule:nonzero;"/>
    </g>
    <g transform="matrix(4.05036,0,0,4.05036,-139.896,-179.378)">
        <path d="M465.528,97.55C458.474,97.55 445.899,96.327 443.067,95.537C441.833,95.206 440.598,94.875 439.351,94.58C443.667,94.245 448.393,93.874 453.579,93.46L453.583,93.459L453.63,93.452C455.987,93.726 458.171,94.023 460.173,94.34C464.376,95.006 467.774,95.765 470.266,96.609C470.856,97.291 468.778,97.55 465.528,97.55ZM453.579,93.46C442.59,92.158 431.585,91.929 419.438,91.553C419.491,91.457 419.561,91.357 419.647,91.252C423.177,91.347 426.569,91.469 429.814,91.618C438.982,92.039 446.971,92.668 453.579,93.46Z" style="fill:rgb(92,127,145);fill-rule:nonzero;"/>
    </g>
    <g transform="matrix(4.05036,0,0,4.05036,-139.896,-179.378)">
        <path d="M439.351,94.58C437.687,94.187 436.001,93.857 434.261,93.676C432.829,93.524 431.365,93.49 429.897,93.49C428.968,93.49 428.037,93.504 427.113,93.51C427.003,93.513 426.883,93.515 426.754,93.515C424.546,93.515 419.823,93.004 419.518,92.546C419.271,92.173 419.26,91.877 419.438,91.553C431.585,91.929 442.59,92.158 453.579,93.46C448.393,93.874 443.667,94.245 439.351,94.58Z" style="fill:rgb(100,138,157);fill-rule:nonzero;"/>
    </g>
    <g transform="matrix(4.05036,0,0,4.05036,-139.896,-179.378)">
        <path d="M285.089,193.101C282.393,193.101 280.248,190.756 280.251,188.208C280.252,187.192 280.595,186.143 281.381,185.198C281.765,184.77 282.109,184.307 282.527,183.84L282.566,183.875C282.96,184.297 283.246,184.8 283.604,185.261C284.502,186.353 285.82,186.737 287.25,186.737C288.6,186.737 290.05,186.395 291.338,185.982C297.849,183.96 304.292,181.387 309.884,177.454C312.446,175.612 314.773,173.523 317.137,171.433C321.013,167.927 324.926,164.42 328.84,160.912C331.661,158.39 334.516,155.828 336.87,152.888C339.089,150.176 340.844,147.12 342.143,143.831C343.087,141.485 343.683,138.863 343.101,136.343C342.943,135.5 342.659,135.035 342.934,134.65C344.278,134.872 345.738,135.199 347.357,135.702C348.308,135.991 348.785,136.879 348.784,138.247C348.773,147.1 328.67,176.054 286.937,192.735C286.306,192.987 285.684,193.101 285.089,193.101Z" style="fill:rgb(92,133,155);fill-rule:nonzero;"/>
    </g>
    <g transform="matrix(4.05036,0,0,4.05036,-139.896,-179.378)">
        <path d="M285.946,179.398C291.395,172.119 296.031,164.169 296.023,158.09C296.023,157.403 295.962,156.74 295.837,156.104C295.6,154.926 294.572,154.1 293.86,153.338C293.724,153.192 293.599,153.048 293.493,152.905C293.287,152.624 293.154,152.344 293.155,152.05C293.156,151.771 293.277,151.479 293.568,151.161C295.282,149.365 300.205,147.393 305.83,145.419C306.467,145.569 307.034,145.797 307.54,146.25C308.707,147.296 309.059,148.978 309.255,150.521C309.742,154.009 309.9,157.551 309.052,160.964C307.544,167.188 302.753,172.223 297.154,175.342C293.671,177.272 289.855,178.518 285.946,179.398Z" style="fill:rgb(111,153,173);fill-rule:nonzero;"/>
    </g>
    <g transform="matrix(4.05036,0,0,4.05036,-139.896,-179.378)">
        <path d="M457.828,115.159C457.73,115.21 457.597,115.255 457.512,115.2L457.44,115.079C457.325,114.618 457.581,114.091 458.065,113.791C458.279,113.658 458.527,113.57 458.775,113.489C458.887,113.453 459.01,113.417 459.121,113.443C459.784,113.595 458.11,115.015 457.828,115.159Z" style="fill:rgb(55,86,102);fill-rule:nonzero;"/>
    </g>
    <g transform="matrix(4.05036,0,0,4.05036,-139.896,-179.378)">
        <path d="M456.907,116.842C456.631,116.842 456.396,116.729 456.271,116.423C456.101,116.005 456.027,115.49 456.207,115.049C456.585,114.123 458.144,112.71 459.341,112.605C459.392,112.601 459.444,112.598 459.496,112.598C459.747,112.598 459.995,112.654 460.171,112.786C460.382,112.944 460.464,113.19 460.469,113.43C460.479,113.918 460.209,114.399 459.878,114.827C459.446,115.384 458.898,115.888 458.267,116.306C457.889,116.558 457.346,116.842 456.907,116.842ZM459.344,112.928C458.385,113.143 457.739,113.671 457.136,114.178C457.003,114.29 456.913,114.37 456.882,114.519C456.782,115.014 456.765,115.516 456.834,116.005L456.892,116.16C456.94,116.211 457.018,116.23 457.102,116.23C457.162,116.23 457.225,116.22 457.282,116.206C457.803,116.081 458.203,115.727 458.532,115.369C458.846,115.029 459.125,114.669 459.366,114.295C459.501,114.086 459.625,113.869 459.668,113.64C459.711,113.412 459.662,113.168 459.483,113.002L459.344,112.928Z" style="fill:rgb(178,211,228);fill-rule:nonzero;"/>
    </g>
    <g transform="matrix(4.05036,0,0,4.05036,-139.896,-179.378)">
        <path d="M457.102,116.23C457.018,116.23 456.94,116.211 456.892,116.16L456.834,116.005C456.765,115.516 456.782,115.014 456.882,114.519C456.913,114.37 457.003,114.29 457.136,114.178C457.739,113.671 458.385,113.143 459.344,112.928L459.483,113.002C459.662,113.168 459.711,113.412 459.668,113.64C459.625,113.869 459.501,114.086 459.366,114.295C459.125,114.669 458.846,115.029 458.532,115.369C458.203,115.727 457.803,116.081 457.282,116.206C457.225,116.22 457.162,116.23 457.102,116.23ZM459.041,113.434C458.953,113.434 458.861,113.462 458.775,113.489C458.527,113.57 458.279,113.658 458.065,113.791C457.581,114.091 457.325,114.618 457.44,115.079L457.512,115.2C457.54,115.218 457.572,115.225 457.607,115.225C457.68,115.225 457.762,115.193 457.828,115.159C458.11,115.015 459.784,113.595 459.121,113.443C459.095,113.437 459.068,113.434 459.041,113.434Z" style="fill:rgb(160,197,216);fill-rule:nonzero;"/>
    </g>
    <g transform="matrix(4.05036,0,0,4.05036,-139.896,-179.378)">
        <path d="M457.607,115.225C457.572,115.225 457.54,115.218 457.512,115.2L457.44,115.079C457.325,114.618 457.581,114.091 458.065,113.791C458.279,113.658 458.527,113.57 458.775,113.489C458.861,113.462 458.953,113.434 459.041,113.434C459.068,113.434 459.095,113.437 459.121,113.443C459.784,113.595 458.11,115.015 457.828,115.159C457.762,115.193 457.68,115.225 457.607,115.225Z" style="fill:rgb(44,75,92);fill-rule:nonzero;"/>
    </g>
    <g transform="matrix(4.05036,0,0,4.05036,-139.896,-179.378)">
        <path d="M439.889,113.17C439.449,113.17 439.002,113.047 438.662,112.836C438.014,112.435 437.666,111.799 437.37,111.177C436.876,110.141 436.482,108.905 437.166,107.796C437.831,106.718 438.73,105.87 440.019,105.254C441.006,104.783 442.078,104.403 443.191,104.308C443.356,104.294 443.522,104.287 443.686,104.287C445.887,104.287 447.934,105.525 448.453,107.236C448.549,107.552 448.589,107.913 448.366,108.202C448.13,108.508 447.666,108.64 447.226,108.64C447.144,108.64 447.063,108.635 446.985,108.626C446.918,108.619 446.853,108.609 446.788,108.598C446.768,108.454 446.742,108.308 446.709,108.163C446.279,106.273 444.831,104.927 443.336,104.927C443.174,104.927 443.011,104.942 442.849,104.975C441.194,105.309 440.238,107.277 440.714,109.371C440.883,110.112 441.208,110.769 441.631,111.295C441.63,111.34 441.629,111.386 441.627,111.431C441.605,111.937 441.461,112.49 440.985,112.843C440.68,113.07 440.287,113.17 439.889,113.17Z" style="fill:rgb(75,107,124);fill-rule:nonzero;"/>
    </g>
    <g transform="matrix(4.05036,0,0,4.05036,-139.896,-179.378)">
        <path d="M441.631,111.295C441.208,110.769 440.883,110.112 440.714,109.371C440.238,107.277 441.194,105.309 442.849,104.975C443.011,104.942 443.174,104.927 443.336,104.927C444.831,104.927 446.279,106.273 446.709,108.163C446.742,108.308 446.768,108.454 446.788,108.598C446.492,108.545 446.21,108.455 445.924,108.375C445.85,108.116 445.765,107.86 445.68,107.605C445.533,107.161 445.384,106.716 445.161,106.297C445.072,106.132 444.963,105.962 444.769,105.875C444.667,105.829 444.555,105.811 444.437,105.811C444.212,105.811 443.97,105.878 443.75,105.945C443.638,105.98 443.525,106.015 443.416,106.055C443.335,106.041 443.253,106.033 443.17,106.029C443.148,106.028 443.127,106.028 443.105,106.028C441.963,106.028 441.571,107.252 441.593,107.96C441.611,108.507 441.731,109.043 441.851,109.576C441.856,109.599 441.861,109.622 441.866,109.645C441.819,109.733 441.779,109.824 441.747,109.917C441.594,110.369 441.638,110.833 441.631,111.295Z" style="fill:rgb(49,80,97);fill-rule:nonzero;"/>
    </g>
    <g transform="matrix(4.05036,0,0,4.05036,-139.896,-179.378)">
        <path d="M442.983,111.459C442.837,111.459 442.699,111.435 442.581,111.37C442.397,111.27 442.306,111.093 442.235,110.921C442.065,110.508 441.963,110.076 441.866,109.645C441.941,109.506 442.034,109.373 442.143,109.248C442.185,109.403 442.243,109.555 442.317,109.702C442.618,110.298 443.384,110.987 444.247,111.164C444.046,111.26 443.82,111.314 443.598,111.366C443.4,111.413 443.184,111.459 442.983,111.459Z" style="fill:rgb(49,80,97);fill-rule:nonzero;"/>
    </g>
    <g transform="matrix(4.05036,0,0,4.05036,-139.896,-179.378)">
        <path d="M441.866,109.645C441.861,109.622 441.856,109.599 441.851,109.576C441.731,109.043 441.611,108.507 441.593,107.96C441.571,107.252 441.963,106.028 443.105,106.028C443.127,106.028 443.148,106.028 443.17,106.029C443.253,106.033 443.335,106.041 443.416,106.055C443.281,106.105 443.152,106.163 443.036,106.239C442.766,106.417 442.599,106.675 442.466,106.932C442.085,107.673 441.938,108.5 442.143,109.248C442.034,109.373 441.941,109.506 441.866,109.645Z" style="fill:rgb(44,75,92);fill-rule:nonzero;"/>
    </g>
    <g transform="matrix(4.05036,0,0,4.05036,-139.896,-179.378)">
        <path d="M444.664,111.208C444.523,111.208 444.384,111.193 444.247,111.164C444.277,111.15 444.306,111.135 444.335,111.119C444.62,110.958 444.812,110.71 444.969,110.461C445.398,109.78 445.626,109.008 445.539,108.279L445.542,108.279C445.671,108.306 445.798,108.34 445.924,108.375C446,108.643 446.063,108.915 446.101,109.19C446.196,109.904 445.913,111.176 444.713,111.207C444.697,111.208 444.68,111.208 444.664,111.208Z" style="fill:rgb(49,80,97);fill-rule:nonzero;"/>
    </g>
    <g transform="matrix(4.05036,0,0,4.05036,-139.896,-179.378)">
        <path d="M445.924,108.375C445.798,108.34 445.671,108.306 445.542,108.279L445.539,108.279C445.515,108.08 445.467,107.885 445.394,107.695C445.136,107.026 444.348,106.213 443.416,106.055C443.525,106.015 443.638,105.98 443.75,105.945C443.97,105.878 444.212,105.811 444.437,105.811C444.555,105.811 444.667,105.829 444.769,105.875C444.963,105.962 445.072,106.132 445.161,106.297C445.384,106.716 445.533,107.161 445.68,107.605C445.765,107.86 445.85,108.116 445.924,108.375Z" style="fill:rgb(44,75,92);fill-rule:nonzero;"/>
    </g>
    <g transform="matrix(4.05036,0,0,4.05036,-139.896,-179.378)">
        <path d="M444.247,111.164C443.384,110.987 442.618,110.298 442.317,109.702C442.243,109.555 442.185,109.403 442.143,109.248C442.426,108.921 442.816,108.649 443.255,108.47C443.71,108.283 444.213,108.194 444.71,108.194C444.992,108.194 445.271,108.223 445.539,108.279C445.626,109.008 445.398,109.78 444.969,110.461C444.812,110.71 444.62,110.958 444.335,111.119C444.306,111.135 444.277,111.15 444.247,111.164Z" style="fill:rgb(44,75,92);fill-rule:nonzero;"/>
    </g>
    <g transform="matrix(4.05036,0,0,4.05036,-139.896,-179.378)">
        <path d="M442.143,109.248C441.938,108.5 442.085,107.673 442.466,106.932C442.599,106.675 442.766,106.417 443.036,106.239C443.152,106.163 443.281,106.105 443.416,106.055C444.348,106.213 445.136,107.026 445.394,107.695C445.467,107.885 445.515,108.08 445.539,108.279C445.271,108.223 444.992,108.194 444.71,108.194C444.213,108.194 443.71,108.283 443.255,108.47C442.816,108.649 442.426,108.921 442.143,109.248Z" style="fill:rgb(40,70,87);fill-rule:nonzero;"/>
    </g>
    <g transform="matrix(4.05036,0,0,4.05036,-139.896,-179.378)">
        <path d="M452.881,109.635C452.774,109.635 452.667,109.626 452.562,109.606C451.368,109.372 451.815,108.155 451.764,107.43C451.698,106.483 451.377,105.559 450.797,104.761C449.927,103.564 448.469,102.664 446.772,102.351C446.224,102.251 445.661,102.21 445.091,102.21C444.34,102.21 443.578,102.281 442.826,102.376C438.119,102.972 433.604,104.507 428.973,105.525C426.447,106.08 423.803,106.472 421.237,106.473C419.098,106.473 417.014,106.199 415.098,105.519C415.611,104.997 416.451,104.789 417.232,104.612C422.046,103.523 426.869,102.464 431.699,101.435C434.588,100.819 437.482,100.215 440.397,99.719C441.657,99.504 442.928,99.31 444.198,99.3C444.234,99.299 444.27,99.299 444.306,99.299C445.433,99.299 446.541,99.441 447.633,99.613C449.64,99.93 451.647,100.362 453.337,101.241C455.027,102.12 456.378,103.507 456.623,105.157C456.867,106.807 455.8,108.692 453.876,109.426C453.561,109.546 453.216,109.635 452.881,109.635Z" style="fill:rgb(88,122,138);fill-rule:nonzero;"/>
    </g>
    <g transform="matrix(4.05036,0,0,4.05036,-139.896,-179.378)">
        <path d="M445.095,106.562C445.272,106.8 445.401,107.11 445.456,107.428L445.451,107.635L445.368,107.709C445.195,107.787 444.983,107.74 444.803,107.584C444.623,107.429 444.48,107.168 444.422,106.89C444.384,106.709 444.386,106.505 444.474,106.4L444.611,106.311C444.768,106.242 444.958,106.378 445.095,106.562Z" style="fill:white;fill-rule:nonzero;"/>
    </g>
    <g transform="matrix(4.05036,0,0,4.05036,-139.896,-179.378)">
        <path d="M412.584,148.582L416.816,145.893L415.463,149.835L412.584,148.582Z" style="fill:rgb(224,210,176);fill-rule:nonzero;"/>
    </g>
    <g transform="matrix(4.05036,0,0,4.05036,-139.896,-179.378)">
        <path d="M416.816,150.415L420.444,147.864L419.165,151.583L416.816,150.415Z" style="fill:rgb(224,210,176);fill-rule:nonzero;"/>
    </g>
    <g transform="matrix(4.05036,0,0,4.05036,-139.896,-179.378)">
        <path d="M420.706,152.364L424.125,149.724L422.685,153.366L420.706,152.364Z" style="fill:rgb(224,210,176);fill-rule:nonzero;"/>
    </g>
    <g transform="matrix(4.05036,0,0,4.05036,-139.896,-179.378)">
        <path d="M424.829,154.428L428.162,151.785L426.895,155.414L424.829,154.428Z" style="fill:rgb(224,210,176);fill-rule:nonzero;"/>
    </g>
    <g transform="matrix(4.05036,0,0,4.05036,-139.896,-179.378)">
        <path d="M428.402,156.074L432.011,153.599C432.011,153.599 430.918,157.045 430.755,157.045C430.593,157.045 428.402,156.074 428.402,156.074Z" style="fill:rgb(224,210,176);fill-rule:nonzero;"/>
    </g>
    <g transform="matrix(4.05036,0,0,4.05036,-139.896,-179.378)">
        <path d="M433.004,157.634C432.799,157.563 434.249,154.644 434.303,154.818C434.357,154.991 434.785,157.634 434.785,157.634C434.785,157.634 433.762,157.894 433.004,157.634Z" style="fill:rgb(224,210,176);fill-rule:nonzero;"/>
    </g>
    <g transform="matrix(4.05036,0,0,4.05036,-139.896,-179.378)">
        <path d="M419.144,143.595L423.518,141.417L421.796,145.477L419.144,143.595Z" style="fill:rgb(204,191,160);fill-rule:nonzero;"/>
    </g>
    <g transform="matrix(4.05036,0,0,4.05036,-139.896,-179.378)">
        <path d="M423.513,146.415L426.34,141.327L425.536,147.286L423.513,146.415Z" style="fill:rgb(204,191,160);fill-rule:nonzero;"/>
    </g>
    <g transform="matrix(4.05036,0,0,4.05036,-139.896,-179.378)">
        <path d="M426.96,148.022L430.951,145.096C430.951,145.096 429.82,149.781 429.463,149.724C429.106,149.667 426.96,148.022 426.96,148.022Z" style="fill:rgb(204,191,160);fill-rule:nonzero;"/>
    </g>
    <g transform="matrix(4.05036,0,0,4.05036,-139.896,-179.378)">
        <path d="M430.951,150.533L435.056,147.864C435.056,147.864 433.411,151.889 432.984,152.087C432.557,152.285 430.951,150.533 430.951,150.533Z" style="fill:rgb(204,191,160);fill-rule:nonzero;"/>
    </g>
    <g transform="matrix(4.05036,0,0,4.05036,-139.896,-179.378)">
        <path d="M434.104,153.143L437.377,151C437.377,151 435.532,154.1 435.056,154.264C434.58,154.428 434.104,153.143 434.104,153.143Z" style="fill:rgb(204,191,160);fill-rule:nonzero;"/>
    </g>
    <g transform="matrix(4.05036,0,0,4.05036,-139.896,-179.378)">
        <path d="M435.413,155.414L437.853,153.599C437.853,153.599 435.651,156.999 435.592,156.809C435.532,156.618 435.413,155.414 435.413,155.414Z" style="fill:rgb(204,191,160);fill-rule:nonzero;"/>
    </g>
    <g transform="matrix(4.05036,0,0,4.05036,-139.896,-179.378)">
        <path d="M410.73,143.559L413.7,145.757L412.546,142.139L410.73,143.559Z" style="fill:rgb(224,210,176);fill-rule:nonzero;"/>
    </g>
    <g transform="matrix(4.05036,0,0,4.05036,-139.896,-179.378)">
        <path d="M414.242,141.283L416.34,143.739L416.081,140.333L414.242,141.283Z" style="fill:rgb(224,210,176);fill-rule:nonzero;"/>
    </g>
    <g transform="matrix(4.05036,0,0,4.05036,-139.896,-179.378)">
        <path d="M418.318,139.426L420.177,142.335L420.143,138.643L418.318,139.426Z" style="fill:rgb(224,210,176);fill-rule:nonzero;"/>
    </g>
    <g transform="matrix(4.05036,0,0,4.05036,-139.896,-179.378)">
        <path d="M442.111,130.85L442.522,133.481L441.341,130.826L442.111,130.85Z" style="fill:rgb(224,210,176);fill-rule:nonzero;"/>
    </g>
    <g transform="matrix(4.05036,0,0,4.05036,-139.896,-179.378)">
        <path d="M441.489,132.26L441.764,135.527C441.764,135.527 439.865,133.024 440.243,132.819C440.62,132.613 441.489,132.26 441.489,132.26Z" style="fill:rgb(204,191,160);fill-rule:nonzero;"/>
    </g>
    <g transform="matrix(4.05036,0,0,4.05036,-139.896,-179.378)">
        <path d="M438.131,133.531L438.954,136.418L436.537,134.416L437.488,133.767L438.131,133.531Z" style="fill:rgb(204,191,160);fill-rule:nonzero;"/>
    </g>
    <g transform="matrix(4.05036,0,0,4.05036,-139.896,-179.378)">
        <path d="M435.569,134.85L436.411,137.965C436.411,137.965 433.786,135.825 433.958,135.691C434.13,135.558 435.569,134.85 435.569,134.85Z" style="fill:rgb(204,191,160);fill-rule:nonzero;"/>
    </g>
    <g transform="matrix(4.05036,0,0,4.05036,-139.896,-179.378)">
        <path d="M432.422,136.542L433.225,138.902L431.228,136.939C431.197,136.922 432.308,136.207 432.422,136.542Z" style="fill:rgb(204,191,160);fill-rule:nonzero;"/>
    </g>
    <g transform="matrix(4.05036,0,0,4.05036,-139.896,-179.378)">
        <path d="M429.662,137.871C429.834,137.895 430.606,140.38 430.461,140.332C430.315,140.284 427.804,138.861 427.832,138.726C427.861,138.592 429.406,137.834 429.662,137.871Z" style="fill:rgb(204,191,160);fill-rule:nonzero;"/>
    </g>
    <g transform="matrix(4.05036,0,0,4.05036,-139.896,-179.378)">
        <path d="M425.743,139.632L427.097,144.585L424.298,140.408L425.743,139.632Z" style="fill:rgb(204,191,160);fill-rule:nonzero;"/>
    </g>
    <g transform="matrix(4.05036,0,0,4.05036,-139.896,-179.378)">
        <path d="M421.553,138.388L424.213,141.309L424.6,137.215L421.553,138.388Z" style="fill:rgb(224,210,176);fill-rule:nonzero;"/>
    </g>
    <g transform="matrix(4.05036,0,0,4.05036,-139.896,-179.378)">
        <path d="M426.273,136.523L428.249,139.098L428.569,135.662L426.273,136.523Z" style="fill:rgb(224,210,176);fill-rule:nonzero;"/>
    </g>
    <g transform="matrix(4.05036,0,0,4.05036,-139.896,-179.378)">
        <path d="M430.555,134.825L432.41,137.441L432.456,133.985L430.555,134.825Z" style="fill:rgb(224,210,176);fill-rule:nonzero;"/>
    </g>
    <g transform="matrix(4.05036,0,0,4.05036,-139.896,-179.378)">
        <path d="M435.247,132.793L436.737,134.668L436.659,132.257L435.247,132.793Z" style="fill:rgb(224,210,176);fill-rule:nonzero;"/>
    </g>
    <g transform="matrix(4.05036,0,0,4.05036,-139.896,-179.378)">
        <path d="M438.202,131.606L439.99,134.159L440.008,131.179L438.202,131.606Z" style="fill:rgb(224,210,176);fill-rule:nonzero;"/>
    </g>
</svg>
