<?xml version="1.0" encoding="UTF-8" standalone="no"?>
<!DOCTYPE svg PUBLIC "-//W3C//DTD SVG 1.1//EN" "http://www.w3.org/Graphics/SVG/1.1/DTD/svg11.dtd">
<svg width="100%" height="100%" viewBox="0 0 839 382" version="1.1" xmlns="http://www.w3.org/2000/svg" xmlns:xlink="http://www.w3.org/1999/xlink" xml:space="preserve" xmlns:serif="http://www.serif.com/" style="fill-rule:evenodd;clip-rule:evenodd;stroke-linejoin:round;stroke-miterlimit:2;">
    <g transform="matrix(4.16667,0,0,4.16667,-127.925,-975.25)">
        <path d="M231.46,282.69L226.94,301.75L226.68,302.85L226.44,303.87L226.28,304.53L223.68,315.51L223.13,317.81C221.93,322.84 217.13,326.16 212,325.5L93.97,310.18C85.9,309.14 79.33,303.19 77.48,295.27L77,293.22L60.89,293.22C59.23,293.22 57.89,291.88 57.89,290.22L57.89,268.89C57.89,267.23 59.23,265.89 60.89,265.89L218.18,265.89C220.32,265.89 222.33,266.38 224.11,267.24C224.67,267.51 225.22,267.82 225.73,268.17C227.35,269.24 228.71,270.65 229.74,272.28C231.6,275.24 232.35,278.94 231.46,282.69Z" style="fill:rgb(217,51,74);fill-rule:nonzero;"/>
    </g>
    <g transform="matrix(4.16667,0,0,4.16667,-127.925,-975.25)">
        <path d="M229.74,272.28L229.74,272.31L57.89,272.31L57.89,268.89C57.89,267.23 59.23,265.89 60.89,265.89L218.18,265.89C220.32,265.89 222.33,266.38 224.11,267.24C224.67,267.51 225.22,267.82 225.73,268.17C227.35,269.24 228.71,270.65 229.74,272.28Z" style="fill:rgb(250,162,43);fill-rule:nonzero;"/>
    </g>
    <g transform="matrix(4.16667,0,0,4.16667,-127.925,-975.25)">
        <path d="M146.25,254.11L123,254.11L123,240.85C123,239.09 124.43,237.67 126.19,237.67L141.14,237.67C142.73,237.67 144.07,238.83 144.3,240.4L145.7,250.25L146.25,254.11Z" style="fill:rgb(217,51,74);fill-rule:nonzero;"/>
    </g>
    <g transform="matrix(4.16667,0,0,4.16667,-127.925,-975.25)">
        <path d="M92.888,265.89C92.888,262.903 94.748,260.322 96.881,258.343C99.853,255.586 103.792,254.111 107.846,254.111L193.005,254.111C198.336,254.111 203.028,257.628 204.524,262.744L205.444,265.89L92.888,265.89Z" style="fill:rgb(181,37,64);fill-rule:nonzero;"/>
    </g>
    <g transform="matrix(4.16667,0,0,4.16667,-127.925,-975.25)">
        <path d="M214.771,320.584L96.741,305.264C88.671,304.224 82.101,298.274 80.251,290.354L79.771,288.304L63.661,288.304C62.001,288.304 60.661,286.964 60.661,285.304L60.661,265.913C59.11,266.031 57.889,267.308 57.889,268.89L57.889,290.22C57.889,291.88 59.229,293.22 60.889,293.22L76.999,293.22L77.479,295.27C79.329,303.19 85.899,309.14 93.969,310.18L212,325.5C217.13,326.16 221.93,322.84 223.13,317.81L223.139,317.772C220.992,319.874 217.946,320.993 214.771,320.584Z" style="fill:rgb(181,37,64);fill-rule:nonzero;"/>
    </g>
    <g transform="matrix(4.16667,0,0,4.16667,-127.925,-975.25)">
        <path d="M169.242,277.209C164.597,277.209 160.833,280.974 160.833,285.618C160.833,290.262 164.597,294.027 169.242,294.027L170.355,294.027C174.712,294.027 178.295,290.713 178.721,286.468C178.749,286.188 178.764,285.905 178.764,285.618C178.764,280.974 174.999,277.209 170.355,277.209L169.242,277.209Z" style="fill:rgb(210,131,41);fill-rule:nonzero;"/>
    </g>
    <g transform="matrix(4.16667,0,0,4.16667,-127.925,-975.25)">
        <path d="M178.764,285.618C178.764,290.262 174.999,294.027 170.355,294.027C165.71,294.027 161.946,290.262 161.946,285.618C161.946,280.974 165.71,277.209 170.355,277.209C174.999,277.209 178.764,280.974 178.764,285.618Z" style="fill:rgb(250,162,43);fill-rule:nonzero;"/>
    </g>
    <g transform="matrix(4.16667,0,0,4.16667,-127.925,-975.25)">
        <path d="M175.611,285.619C175.611,288.521 173.257,290.874 170.356,290.874L170.077,290.856C167.301,290.722 165.101,288.431 165.101,285.619C165.101,282.808 167.301,280.517 170.077,280.382L170.356,280.364C173.257,280.364 175.611,282.718 175.611,285.619Z" style="fill:rgb(7,59,69);fill-rule:nonzero;"/>
    </g>
    <g transform="matrix(4.16667,0,0,4.16667,-127.925,-975.25)">
        <path d="M175.05,285.619C175.05,285.91 175.021,286.202 174.975,286.483C174.618,288.69 172.871,290.437 170.664,290.794C170.476,290.831 170.279,290.85 170.082,290.859C169.115,290.803 168.232,290.503 167.471,290.005C167.283,289.883 167.105,289.751 166.945,289.61C166.673,289.376 166.419,289.122 166.203,288.84C165.508,287.948 165.105,286.84 165.105,285.619C165.105,282.811 167.302,280.52 170.082,280.379C171.331,280.445 172.458,280.942 173.322,281.722C173.585,281.966 173.829,282.229 174.035,282.52C174.167,282.699 174.289,282.886 174.383,283.084C174.815,283.835 175.05,284.699 175.05,285.619Z" style="fill:rgb(13,101,110);fill-rule:nonzero;"/>
    </g>
    <g transform="matrix(4.16667,0,0,4.16667,-127.925,-975.25)">
        <path d="M170.866,278.812C170.866,279.095 170.637,279.324 170.355,279.324C170.072,279.324 169.843,279.095 169.843,278.812C169.843,278.53 170.072,278.301 170.355,278.301C170.637,278.301 170.866,278.53 170.866,278.812Z" style="fill:rgb(210,131,41);fill-rule:nonzero;"/>
    </g>
    <g transform="matrix(4.16667,0,0,4.16667,-127.925,-975.25)">
        <path d="M170.866,292.424C170.866,292.707 170.637,292.936 170.355,292.936C170.072,292.936 169.843,292.707 169.843,292.424C169.843,292.142 170.072,291.913 170.355,291.913C170.637,291.913 170.866,292.142 170.866,292.424Z" style="fill:rgb(210,131,41);fill-rule:nonzero;"/>
    </g>
    <g transform="matrix(4.16667,0,0,4.16667,-127.925,-975.25)">
        <path d="M177.161,286.13C176.878,286.13 176.649,285.901 176.649,285.618C176.649,285.336 176.878,285.107 177.161,285.107C177.443,285.107 177.672,285.336 177.672,285.618C177.672,285.901 177.443,286.13 177.161,286.13Z" style="fill:rgb(210,131,41);fill-rule:nonzero;"/>
    </g>
    <g transform="matrix(4.16667,0,0,4.16667,-127.925,-975.25)">
        <path d="M163.549,286.13C163.266,286.13 163.037,285.901 163.037,285.618C163.037,285.336 163.266,285.107 163.549,285.107C163.831,285.107 164.06,285.336 164.06,285.618C164.06,285.901 163.831,286.13 163.549,286.13Z" style="fill:rgb(210,131,41);fill-rule:nonzero;"/>
    </g>
    <g transform="matrix(4.16667,0,0,4.16667,-127.925,-975.25)">
        <path d="M175.529,281.167C175.329,281.367 175.005,281.367 174.805,281.167C174.606,280.968 174.606,280.644 174.805,280.444C175.005,280.244 175.329,280.244 175.529,280.444C175.729,280.644 175.729,280.968 175.529,281.167Z" style="fill:rgb(210,131,41);fill-rule:nonzero;"/>
    </g>
    <g transform="matrix(4.16667,0,0,4.16667,-127.925,-975.25)">
        <path d="M165.904,290.792C165.704,290.992 165.38,290.992 165.18,290.792C164.981,290.593 164.981,290.269 165.18,290.069C165.38,289.869 165.704,289.869 165.904,290.069C166.104,290.269 166.104,290.593 165.904,290.792Z" style="fill:rgb(210,131,41);fill-rule:nonzero;"/>
    </g>
    <g transform="matrix(4.16667,0,0,4.16667,-127.925,-975.25)">
        <path d="M174.805,290.792C174.606,290.593 174.606,290.269 174.805,290.069C175.005,289.869 175.329,289.869 175.529,290.069C175.729,290.269 175.729,290.593 175.529,290.792C175.329,290.992 175.005,290.992 174.805,290.792Z" style="fill:rgb(210,131,41);fill-rule:nonzero;"/>
    </g>
    <g transform="matrix(4.16667,0,0,4.16667,-127.925,-975.25)">
        <path d="M165.18,281.167C164.981,280.968 164.981,280.644 165.18,280.444C165.38,280.244 165.704,280.244 165.904,280.444C166.104,280.644 166.104,280.968 165.904,281.167C165.704,281.367 165.38,281.367 165.18,281.167Z" style="fill:rgb(210,131,41);fill-rule:nonzero;"/>
    </g>
    <g transform="matrix(4.16667,0,0,4.16667,-127.925,-975.25)">
        <path d="M173.322,281.722L166.203,288.84C166.419,289.122 166.673,289.376 166.945,289.61L174.035,282.52C173.829,282.229 173.585,281.966 173.322,281.722ZM174.383,283.084L167.471,290.005C168.232,290.503 169.115,290.803 170.082,290.859C170.279,290.85 170.476,290.831 170.664,290.794L174.975,286.483C175.021,286.202 175.05,285.91 175.05,285.619C175.05,284.699 174.815,283.835 174.383,283.084Z" style="fill:rgb(67,146,207);fill-rule:nonzero;"/>
    </g>
    <g transform="matrix(4.16667,0,0,4.16667,-127.925,-975.25)">
        <path d="M147.077,277.209C142.432,277.209 138.668,280.974 138.668,285.618C138.668,290.262 142.432,294.027 147.077,294.027L148.19,294.027C152.547,294.027 156.13,290.713 156.556,286.468C156.584,286.188 156.599,285.905 156.599,285.618C156.599,280.974 152.834,277.209 148.19,277.209L147.077,277.209Z" style="fill:rgb(210,131,41);fill-rule:nonzero;"/>
    </g>
    <g transform="matrix(4.16667,0,0,4.16667,-127.925,-975.25)">
        <path d="M156.599,285.618C156.599,290.262 152.834,294.027 148.19,294.027C143.545,294.027 139.781,290.262 139.781,285.618C139.781,280.974 143.545,277.209 148.19,277.209C152.834,277.209 156.599,280.974 156.599,285.618Z" style="fill:rgb(250,162,43);fill-rule:nonzero;"/>
    </g>
    <g transform="matrix(4.16667,0,0,4.16667,-127.925,-975.25)">
        <path d="M153.446,285.619C153.446,288.521 151.092,290.874 148.191,290.874L147.912,290.856C145.136,290.722 142.936,288.431 142.936,285.619C142.936,282.808 145.136,280.517 147.912,280.382L148.191,280.364C151.092,280.364 153.446,282.718 153.446,285.619Z" style="fill:rgb(7,59,69);fill-rule:nonzero;"/>
    </g>
    <g transform="matrix(4.16667,0,0,4.16667,-127.925,-975.25)">
        <path d="M152.885,285.619C152.885,285.91 152.857,286.202 152.81,286.483C152.453,288.69 150.706,290.437 148.499,290.794C148.311,290.831 148.114,290.85 147.917,290.859C146.95,290.803 146.067,290.503 145.306,290.005C145.118,289.883 144.94,289.751 144.78,289.61C144.508,289.376 144.254,289.122 144.038,288.84C143.343,287.948 142.94,286.84 142.94,285.619C142.94,282.811 145.137,280.52 147.917,280.379C149.166,280.445 150.293,280.942 151.157,281.722C151.42,281.966 151.664,282.229 151.87,282.52C152.002,282.699 152.124,282.886 152.218,283.084C152.65,283.835 152.885,284.699 152.885,285.619Z" style="fill:rgb(13,101,110);fill-rule:nonzero;"/>
    </g>
    <g transform="matrix(4.16667,0,0,4.16667,-127.925,-975.25)">
        <path d="M148.701,278.812C148.701,279.095 148.472,279.324 148.19,279.324C147.907,279.324 147.678,279.095 147.678,278.812C147.678,278.53 147.907,278.301 148.19,278.301C148.472,278.301 148.701,278.53 148.701,278.812Z" style="fill:rgb(210,131,41);fill-rule:nonzero;"/>
    </g>
    <g transform="matrix(4.16667,0,0,4.16667,-127.925,-975.25)">
        <path d="M148.701,292.424C148.701,292.707 148.472,292.936 148.19,292.936C147.907,292.936 147.678,292.707 147.678,292.424C147.678,292.142 147.907,291.913 148.19,291.913C148.472,291.913 148.701,292.142 148.701,292.424Z" style="fill:rgb(210,131,41);fill-rule:nonzero;"/>
    </g>
    <g transform="matrix(4.16667,0,0,4.16667,-127.925,-975.25)">
        <path d="M154.996,286.13C154.713,286.13 154.484,285.901 154.484,285.618C154.484,285.336 154.713,285.107 154.996,285.107C155.278,285.107 155.507,285.336 155.507,285.618C155.507,285.901 155.278,286.13 154.996,286.13Z" style="fill:rgb(210,131,41);fill-rule:nonzero;"/>
    </g>
    <g transform="matrix(4.16667,0,0,4.16667,-127.925,-975.25)">
        <path d="M141.384,286.13C141.101,286.13 140.872,285.901 140.872,285.618C140.872,285.336 141.101,285.107 141.384,285.107C141.666,285.107 141.895,285.336 141.895,285.618C141.895,285.901 141.666,286.13 141.384,286.13Z" style="fill:rgb(210,131,41);fill-rule:nonzero;"/>
    </g>
    <g transform="matrix(4.16667,0,0,4.16667,-127.925,-975.25)">
        <path d="M153.364,281.167C153.164,281.367 152.84,281.367 152.64,281.167C152.441,280.968 152.441,280.644 152.64,280.444C152.84,280.244 153.164,280.244 153.364,280.444C153.564,280.644 153.564,280.968 153.364,281.167Z" style="fill:rgb(210,131,41);fill-rule:nonzero;"/>
    </g>
    <g transform="matrix(4.16667,0,0,4.16667,-127.925,-975.25)">
        <path d="M143.739,290.792C143.539,290.992 143.215,290.992 143.016,290.792C142.816,290.593 142.816,290.269 143.016,290.069C143.215,289.869 143.539,289.869 143.739,290.069C143.939,290.269 143.939,290.593 143.739,290.792Z" style="fill:rgb(210,131,41);fill-rule:nonzero;"/>
    </g>
    <g transform="matrix(4.16667,0,0,4.16667,-127.925,-975.25)">
        <path d="M152.64,290.792C152.441,290.593 152.441,290.269 152.64,290.069C152.84,289.869 153.164,289.869 153.364,290.069C153.564,290.269 153.564,290.593 153.364,290.792C153.164,290.992 152.84,290.992 152.64,290.792Z" style="fill:rgb(210,131,41);fill-rule:nonzero;"/>
    </g>
    <g transform="matrix(4.16667,0,0,4.16667,-127.925,-975.25)">
        <path d="M143.016,281.167C142.816,280.968 142.816,280.644 143.016,280.444C143.215,280.244 143.539,280.244 143.739,280.444C143.939,280.644 143.939,280.968 143.739,281.167C143.539,281.367 143.215,281.367 143.016,281.167Z" style="fill:rgb(210,131,41);fill-rule:nonzero;"/>
    </g>
    <g transform="matrix(4.16667,0,0,4.16667,-127.925,-975.25)">
        <path d="M151.157,281.722L144.038,288.84C144.254,289.122 144.508,289.376 144.78,289.61L151.87,282.52C151.664,282.229 151.42,281.966 151.157,281.722ZM152.218,283.084L145.306,290.005C146.067,290.503 146.95,290.803 147.917,290.859C148.114,290.85 148.311,290.831 148.499,290.794L152.81,286.483C152.857,286.202 152.885,285.91 152.885,285.619C152.885,284.699 152.65,283.835 152.218,283.084Z" style="fill:rgb(67,146,207);fill-rule:nonzero;"/>
    </g>
    <g transform="matrix(4.16667,0,0,4.16667,-127.925,-975.25)">
        <path d="M212.938,283.54L185.312,283.54C184.361,283.54 183.583,282.762 183.583,281.812C183.583,280.861 184.361,280.083 185.312,280.083L212.938,280.083C213.889,280.083 214.666,280.861 214.666,281.812C214.666,282.762 213.889,283.54 212.938,283.54Z" style="fill:rgb(82,47,77);fill-rule:nonzero;"/>
    </g>
    <g transform="matrix(4.16667,0,0,4.16667,-127.925,-975.25)">
        <path d="M189.436,262.374L161.81,262.374C160.859,262.374 160.081,261.597 160.081,260.645C160.081,259.694 160.859,258.916 161.81,258.916L189.436,258.916C190.387,258.916 191.165,259.694 191.165,260.645C191.165,261.597 190.387,262.374 189.436,262.374Z" style="fill:rgb(82,47,77);fill-rule:nonzero;"/>
    </g>
    <g transform="matrix(4.16667,0,0,4.16667,-127.925,-975.25)">
        <path d="M129.938,283.54L67.478,283.54C66.527,283.54 65.749,282.762 65.749,281.812C65.749,280.861 66.527,280.083 67.478,280.083L129.938,280.083C130.889,280.083 131.666,280.861 131.666,281.812C131.666,282.762 130.889,283.54 129.938,283.54Z" style="fill:rgb(82,47,77);fill-rule:nonzero;"/>
    </g>
    <g transform="matrix(4.16667,0,0,4.16667,-127.925,-975.25)">
        <path d="M207.887,301.75L134.395,301.75C133.444,301.75 132.666,300.972 132.666,300.021C132.666,299.07 133.444,298.292 134.395,298.292L207.887,298.292C208.837,298.292 209.615,299.07 209.615,300.021C209.615,300.972 208.837,301.75 207.887,301.75Z" style="fill:rgb(82,47,77);fill-rule:nonzero;"/>
    </g>
    <g transform="matrix(4.16667,0,0,4.16667,-127.925,-975.25)">
        <path d="M99.616,301.75L92.252,301.75C91.301,301.75 90.524,300.972 90.524,300.021C90.524,299.07 91.301,298.292 92.252,298.292L99.616,298.292C100.567,298.292 101.345,299.07 101.345,300.021C101.345,300.972 100.567,301.75 99.616,301.75Z" style="fill:rgb(82,47,77);fill-rule:nonzero;"/>
    </g>
    <g transform="matrix(4.16667,0,0,4.16667,-127.925,-975.25)">
        <path d="M127.468,301.75L105.118,301.75C104.167,301.75 103.39,300.972 103.39,300.021C103.39,299.07 104.167,298.292 105.118,298.292L127.468,298.292C128.419,298.292 129.197,299.07 129.197,300.021C129.197,300.972 128.419,301.75 127.468,301.75Z" style="fill:rgb(82,47,77);fill-rule:nonzero;"/>
    </g>
    <g transform="matrix(4.16667,0,0,4.16667,-127.925,-975.25)">
        <path d="M219.793,306.083L221.657,306.083C222.323,306.083 222.816,306.702 222.667,307.351L221.424,312.755C221.273,313.41 220.69,313.875 220.017,313.875L217.934,313.875C217.256,313.875 216.761,313.234 216.932,312.578L218.33,307.214C218.504,306.548 219.105,306.083 219.793,306.083Z" style="fill:rgb(82,47,77);fill-rule:nonzero;"/>
    </g>
    <g transform="matrix(4.16667,0,0,4.16667,-127.925,-975.25)">
        <path d="M57.249,289.666L57.889,289.666L57.889,268.89L57.249,268.89C56.559,268.89 55.999,269.449 55.999,270.14L55.999,288.416C55.999,289.107 56.559,289.666 57.249,289.666Z" style="fill:rgb(82,47,77);fill-rule:nonzero;"/>
    </g>
    <g transform="matrix(4.16667,0,0,4.16667,-127.925,-975.25)">
        <path d="M56,271.67L56,286.89L52.86,286.89C51.99,286.89 51.28,286.18 51.28,285.31L51.28,273.25C51.28,272.38 51.99,271.67 52.86,271.67L56,271.67Z" style="fill:rgb(217,51,74);fill-rule:nonzero;"/>
    </g>
    <g transform="matrix(4.16667,0,0,4.16667,-127.925,-975.25)">
        <rect x="47.166" y="277.778" width="4.111" height="3" style="fill:rgb(181,37,64);fill-rule:nonzero;"/>
    </g>
    <g transform="matrix(4.16667,0,0,4.16667,-127.925,-975.25)">
        <path d="M31.522,260.543L38.298,260.543C39.44,260.543 40.499,261.141 41.09,262.119L43.444,266.015L36.057,266.015C35.016,266.015 34.027,265.559 33.351,264.766L30.899,261.891C30.447,261.36 30.824,260.543 31.522,260.543Z" style="fill:rgb(181,37,64);fill-rule:nonzero;"/>
    </g>
    <g transform="matrix(4.16667,0,0,4.16667,-127.925,-975.25)">
        <path d="M43.44,292.54L42.89,293.46L41.88,295.13L41.09,296.44C40.5,297.42 39.44,298.01 38.3,298.01L31.52,298.01C30.82,298.01 30.45,297.2 30.9,296.66L31.14,296.38L33.35,293.79C34.03,293 35.02,292.54 36.06,292.54L43.44,292.54Z" style="fill:rgb(181,37,64);fill-rule:nonzero;"/>
    </g>
    <g transform="matrix(4.16667,0,0,4.16667,-127.925,-975.25)">
        <path d="M47.17,266.35L47.17,292.21C47.17,292.9 46.61,293.46 45.92,293.46L39.08,293.46C38.39,293.46 37.83,292.9 37.83,292.21L37.83,266.35C37.83,265.66 38.39,265.1 39.08,265.1L45.92,265.1C46.61,265.1 47.17,265.66 47.17,266.35Z" style="fill:rgb(217,51,74);fill-rule:nonzero;"/>
    </g>
    <g transform="matrix(4.16667,0,0,4.16667,-127.925,-975.25)">
        <path d="M42.458,280.264L31.688,280.264C31.146,280.264 30.702,279.82 30.702,279.278C30.702,278.736 31.146,278.292 31.688,278.292L42.458,278.292C43,278.292 43.444,278.736 43.444,279.278C43.444,279.82 43,280.264 42.458,280.264Z" style="fill:rgb(181,37,64);fill-rule:nonzero;"/>
    </g>
    <g transform="matrix(4.16667,0,0,4.16667,-127.925,-975.25)">
        <path d="M47.17,274.73L47.17,292.21C47.17,292.9 46.61,293.46 45.92,293.46L39.08,293.46C38.39,293.46 37.83,292.9 37.83,292.21L37.83,280.96C38.43,286.6 39.42,289.19 42,289.22C44.47,289.26 46.22,280.87 47.17,274.73Z" style="fill:rgb(181,37,64);fill-rule:nonzero;"/>
    </g>
    <g transform="matrix(4.16667,0,0,4.16667,-127.925,-975.25)">
        <path d="M139.36,237.67L127.64,237.67C128.1,236.77 128.729,236 129.509,235.41C130.63,234.55 132.03,234.06 133.5,234.06C135.36,234.06 137.11,234.85 138.33,236.18C138.74,236.62 139.08,237.12 139.36,237.67Z" style="fill:rgb(252,204,87);fill-rule:nonzero;"/>
    </g>
    <g transform="matrix(4.16667,0,0,4.16667,-127.925,-975.25)">
        <path d="M144.099,265.89C144.099,261.447 145.391,257.083 148.938,254.111L153.294,254.111C149.747,257.083 148.455,261.447 148.455,265.89L144.099,265.89Z" style="fill:rgb(82,47,77);fill-rule:nonzero;"/>
    </g>
    <g transform="matrix(4.16667,0,0,4.16667,-127.925,-975.25)">
        <path d="M149.857,265.89C149.857,261.447 151.149,257.083 154.696,254.111L159.052,254.111C155.505,257.083 154.213,261.447 154.213,265.89L149.857,265.89Z" style="fill:rgb(82,47,77);fill-rule:nonzero;"/>
    </g>
    <g transform="matrix(4.16667,0,0,4.16667,-127.925,-975.25)">
        <path d="M110.158,265.89C110.158,261.447 111.449,257.083 114.997,254.111L119.353,254.111C115.805,257.083 114.514,261.447 114.514,265.89L110.158,265.89Z" style="fill:rgb(82,47,77);fill-rule:nonzero;"/>
    </g>
    <g transform="matrix(4.16667,0,0,4.16667,-127.925,-975.25)">
        <path d="M104.264,265.89C104.264,261.447 105.555,257.083 109.103,254.111L113.459,254.111C109.912,257.083 108.62,261.447 108.62,265.89L104.264,265.89Z" style="fill:rgb(82,47,77);fill-rule:nonzero;"/>
    </g>
    <g transform="matrix(4.16667,0,0,4.16667,-127.925,-975.25)">
        <path d="M134.267,241.492C131.542,241.492 129.332,243.7 129.332,246.425C129.332,249.15 131.542,251.359 134.267,251.359L134.92,251.359C137.476,251.359 139.579,249.414 139.828,246.924C139.845,246.76 139.853,246.594 139.853,246.425C139.853,243.7 137.644,241.492 134.92,241.492L134.267,241.492Z" style="fill:rgb(210,131,41);fill-rule:nonzero;"/>
    </g>
    <g transform="matrix(4.16667,0,0,4.16667,-127.925,-975.25)">
        <path d="M139.853,246.425C139.853,249.15 137.644,251.359 134.92,251.359C132.195,251.359 129.985,249.15 129.985,246.425C129.985,243.7 132.195,241.492 134.92,241.492C137.644,241.492 139.853,243.7 139.853,246.425Z" style="fill:rgb(250,162,43);fill-rule:nonzero;"/>
    </g>
    <g transform="matrix(4.16667,0,0,4.16667,-127.925,-975.25)">
        <path d="M138.003,246.426C138.003,248.128 136.622,249.509 134.92,249.509L134.757,249.499C133.128,249.419 131.837,248.076 131.837,246.426C131.837,244.776 133.128,243.432 134.757,243.353L134.92,243.343C136.622,243.343 138.003,244.723 138.003,246.426Z" style="fill:rgb(7,59,69);fill-rule:nonzero;"/>
    </g>
    <g transform="matrix(4.16667,0,0,4.16667,-127.925,-975.25)">
        <path d="M137.674,246.426C137.674,246.597 137.658,246.767 137.63,246.933C137.421,248.228 136.396,249.252 135.101,249.462C134.991,249.484 134.875,249.495 134.759,249.5C134.192,249.467 133.674,249.291 133.228,248.999C133.118,248.927 133.013,248.85 132.919,248.768C132.759,248.63 132.611,248.481 132.484,248.316C132.076,247.792 131.839,247.142 131.839,246.426C131.839,244.778 133.129,243.434 134.759,243.351C135.492,243.39 136.153,243.682 136.66,244.139C136.815,244.283 136.958,244.437 137.079,244.608C137.156,244.712 137.228,244.822 137.283,244.938C137.536,245.379 137.674,245.886 137.674,246.426Z" style="fill:rgb(13,101,110);fill-rule:nonzero;"/>
    </g>
    <g transform="matrix(4.16667,0,0,4.16667,-127.925,-975.25)">
        <path d="M135.22,242.432C135.22,242.598 135.085,242.732 134.92,242.732C134.754,242.732 134.619,242.598 134.619,242.432C134.619,242.266 134.754,242.132 134.92,242.132C135.085,242.132 135.22,242.266 135.22,242.432Z" style="fill:rgb(210,131,41);fill-rule:nonzero;"/>
    </g>
    <g transform="matrix(4.16667,0,0,4.16667,-127.925,-975.25)">
        <path d="M135.22,250.418C135.22,250.584 135.085,250.718 134.92,250.718C134.754,250.718 134.619,250.584 134.619,250.418C134.619,250.253 134.754,250.118 134.92,250.118C135.085,250.118 135.22,250.253 135.22,250.418Z" style="fill:rgb(210,131,41);fill-rule:nonzero;"/>
    </g>
    <g transform="matrix(4.16667,0,0,4.16667,-127.925,-975.25)">
        <path d="M138.913,246.725C138.747,246.725 138.613,246.591 138.613,246.425C138.613,246.26 138.747,246.125 138.913,246.125C139.078,246.125 139.213,246.26 139.213,246.425C139.213,246.591 139.078,246.725 138.913,246.725Z" style="fill:rgb(210,131,41);fill-rule:nonzero;"/>
    </g>
    <g transform="matrix(4.16667,0,0,4.16667,-127.925,-975.25)">
        <path d="M130.925,246.725C130.761,246.725 130.626,246.591 130.626,246.425C130.626,246.26 130.761,246.125 130.925,246.125C131.092,246.125 131.227,246.26 131.227,246.425C131.227,246.591 131.092,246.725 130.925,246.725Z" style="fill:rgb(210,131,41);fill-rule:nonzero;"/>
    </g>
    <g transform="matrix(4.16667,0,0,4.16667,-127.925,-975.25)">
        <path d="M137.955,243.814C137.838,243.931 137.648,243.931 137.531,243.814C137.414,243.697 137.414,243.507 137.531,243.39C137.648,243.272 137.838,243.272 137.955,243.39C138.073,243.507 138.073,243.697 137.955,243.814Z" style="fill:rgb(210,131,41);fill-rule:nonzero;"/>
    </g>
    <g transform="matrix(4.16667,0,0,4.16667,-127.925,-975.25)">
        <path d="M132.308,249.461C132.191,249.578 132.001,249.578 131.884,249.461C131.767,249.344 131.767,249.154 131.884,249.037C132.001,248.919 132.191,248.919 132.308,249.037C132.425,249.154 132.425,249.344 132.308,249.461Z" style="fill:rgb(210,131,41);fill-rule:nonzero;"/>
    </g>
    <g transform="matrix(4.16667,0,0,4.16667,-127.925,-975.25)">
        <path d="M137.531,249.461C137.414,249.344 137.414,249.154 137.531,249.037C137.648,248.919 137.838,248.919 137.955,249.037C138.073,249.154 138.073,249.344 137.955,249.461C137.838,249.578 137.648,249.578 137.531,249.461Z" style="fill:rgb(210,131,41);fill-rule:nonzero;"/>
    </g>
    <g transform="matrix(4.16667,0,0,4.16667,-127.925,-975.25)">
        <path d="M131.884,243.814C131.767,243.697 131.767,243.507 131.884,243.39C132.001,243.272 132.191,243.272 132.308,243.39C132.425,243.507 132.425,243.697 132.308,243.814C132.191,243.931 132.001,243.931 131.884,243.814Z" style="fill:rgb(210,131,41);fill-rule:nonzero;"/>
    </g>
    <g transform="matrix(4.16667,0,0,4.16667,-127.925,-975.25)">
        <path d="M136.66,244.139L132.484,248.316C132.611,248.481 132.759,248.63 132.919,248.768L137.079,244.608C136.958,244.437 136.815,244.283 136.66,244.139ZM137.283,244.938L133.228,248.999C133.674,249.291 134.192,249.467 134.759,249.5C134.875,249.495 134.991,249.484 135.101,249.462L137.63,246.933C137.658,246.767 137.674,246.597 137.674,246.426C137.674,245.886 137.536,245.379 137.283,244.938Z" style="fill:rgb(67,146,207);fill-rule:nonzero;"/>
    </g>
    <g transform="matrix(4.16667,0,0,4.16667,-127.925,-975.25)">
        <rect x="59.555" y="274.667" width="162.475" height="0.656" style="fill:rgb(181,37,64);fill-rule:nonzero;"/>
    </g>
    <g transform="matrix(4.16667,0,0,4.16667,-127.925,-975.25)">
        <rect x="79.513" y="295.408" width="142.517" height="0.657" style="fill:rgb(181,37,64);fill-rule:nonzero;"/>
    </g>
    <g transform="matrix(4.16667,0,0,4.16667,-127.925,-975.25)">
        <path d="M226.44,303.87L226.28,304.53L87.14,304.53L87.14,303.87L226.44,303.87Z" style="fill:rgb(181,37,64);fill-rule:nonzero;"/>
    </g>
    <g transform="matrix(4.16667,0,0,4.16667,-127.925,-975.25)">
        <path d="M231.46,282.69L226.94,301.75L226.68,302.85L219.25,302.85C218.66,302.85 218.11,302.71 217.61,302.48C217.1,302.22 216.65,301.86 216.3,301.42C215.96,300.98 215.71,300.47 215.58,299.91C215.47,299.37 215.46,298.8 215.6,298.23L222.03,271.25C222.2,270.51 222.57,269.87 223.05,269.37C223.57,268.84 224.22,268.47 224.92,268.29C225.18,268.22 225.46,268.17 225.73,268.17C230.28,271.2 232.84,276.87 231.46,282.69Z" style="fill:rgb(250,162,43);fill-rule:nonzero;"/>
    </g>
    <g transform="matrix(4.16667,0,0,4.16667,-127.925,-975.25)">
        <path d="M231.46,282.69L229.52,290.88L226.94,301.75L219.25,301.75C217.53,301.75 216.27,300.15 216.67,298.49L222.03,275.98L223.09,271.51C223.64,269.23 226.5,268.47 228.1,270.17C231.11,273.37 232.58,277.98 231.46,282.69Z" style="fill:rgb(9,58,75);fill-rule:nonzero;"/>
    </g>
    <g transform="matrix(4.16667,0,0,4.16667,-127.925,-975.25)">
        <path d="M231.46,282.69L229.52,290.88C229.71,281.6 227.07,276.14 222.03,275.98L223.09,271.51C223.64,269.23 226.5,268.47 228.1,270.17C231.11,273.37 232.58,277.98 231.46,282.69Z" style="fill:rgb(67,146,207);fill-rule:nonzero;"/>
    </g>
    <g transform="matrix(4.16667,0,0,4.16667,-127.925,-975.25)">
        <path d="M226.292,271.375C230.667,272.208 231,282.25 227.75,294.375C229.708,283.75 229.534,273.38 226.292,271.375Z" style="fill:rgb(109,204,222);fill-rule:nonzero;"/>
    </g>
    <g transform="matrix(4.16667,0,0,4.16667,-127.925,-975.25)">
        <path d="M63.922,269.025C63.922,269.367 63.644,269.645 63.302,269.645C62.96,269.645 62.682,269.367 62.682,269.025C62.682,268.683 62.96,268.406 63.302,268.406C63.644,268.406 63.922,268.683 63.922,269.025Z" style="fill:rgb(210,131,41);fill-rule:nonzero;"/>
    </g>
    <g transform="matrix(4.16667,0,0,4.16667,-127.925,-975.25)">
        <path d="M67.315,269.025C67.315,269.367 67.037,269.645 66.695,269.645C66.353,269.645 66.076,269.367 66.076,269.025C66.076,268.683 66.353,268.406 66.695,268.406C67.037,268.406 67.315,268.683 67.315,269.025Z" style="fill:rgb(210,131,41);fill-rule:nonzero;"/>
    </g>
    <g transform="matrix(4.16667,0,0,4.16667,-127.925,-975.25)">
        <path d="M70.708,269.025C70.708,269.367 70.43,269.645 70.088,269.645C69.746,269.645 69.469,269.367 69.469,269.025C69.469,268.683 69.746,268.406 70.088,268.406C70.43,268.406 70.708,268.683 70.708,269.025Z" style="fill:rgb(210,131,41);fill-rule:nonzero;"/>
    </g>
    <g transform="matrix(4.16667,0,0,4.16667,-127.925,-975.25)">
        <path d="M74.101,269.025C74.101,269.367 73.824,269.645 73.481,269.645C73.139,269.645 72.862,269.367 72.862,269.025C72.862,268.683 73.139,268.406 73.481,268.406C73.824,268.406 74.101,268.683 74.101,269.025Z" style="fill:rgb(210,131,41);fill-rule:nonzero;"/>
    </g>
    <g transform="matrix(4.16667,0,0,4.16667,-127.925,-975.25)">
        <path d="M77.494,269.025C77.494,269.367 77.217,269.645 76.874,269.645C76.532,269.645 76.255,269.367 76.255,269.025C76.255,268.683 76.532,268.406 76.874,268.406C77.217,268.406 77.494,268.683 77.494,269.025Z" style="fill:rgb(210,131,41);fill-rule:nonzero;"/>
    </g>
    <g transform="matrix(4.16667,0,0,4.16667,-127.925,-975.25)">
        <path d="M80.887,269.025C80.887,269.367 80.61,269.645 80.267,269.645C79.925,269.645 79.648,269.367 79.648,269.025C79.648,268.683 79.925,268.406 80.267,268.406C80.61,268.406 80.887,268.683 80.887,269.025Z" style="fill:rgb(210,131,41);fill-rule:nonzero;"/>
    </g>
    <g transform="matrix(4.16667,0,0,4.16667,-127.925,-975.25)">
        <path d="M84.28,269.025C84.28,269.367 84.003,269.645 83.661,269.645C83.318,269.645 83.041,269.367 83.041,269.025C83.041,268.683 83.318,268.406 83.661,268.406C84.003,268.406 84.28,268.683 84.28,269.025Z" style="fill:rgb(210,131,41);fill-rule:nonzero;"/>
    </g>
    <g transform="matrix(4.16667,0,0,4.16667,-127.925,-975.25)">
        <path d="M87.673,269.025C87.673,269.367 87.396,269.645 87.054,269.645C86.712,269.645 86.434,269.367 86.434,269.025C86.434,268.683 86.712,268.406 87.054,268.406C87.396,268.406 87.673,268.683 87.673,269.025Z" style="fill:rgb(210,131,41);fill-rule:nonzero;"/>
    </g>
    <g transform="matrix(4.16667,0,0,4.16667,-127.925,-975.25)">
        <path d="M91.066,269.025C91.066,269.367 90.789,269.645 90.447,269.645C90.105,269.645 89.827,269.367 89.827,269.025C89.827,268.683 90.105,268.406 90.447,268.406C90.789,268.406 91.066,268.683 91.066,269.025Z" style="fill:rgb(210,131,41);fill-rule:nonzero;"/>
    </g>
    <g transform="matrix(4.16667,0,0,4.16667,-127.925,-975.25)">
        <path d="M94.459,269.025C94.459,269.367 94.182,269.645 93.84,269.645C93.498,269.645 93.22,269.367 93.22,269.025C93.22,268.683 93.498,268.406 93.84,268.406C94.182,268.406 94.459,268.683 94.459,269.025Z" style="fill:rgb(210,131,41);fill-rule:nonzero;"/>
    </g>
    <g transform="matrix(4.16667,0,0,4.16667,-127.925,-975.25)">
        <path d="M97.853,269.025C97.853,269.367 97.575,269.645 97.233,269.645C96.891,269.645 96.613,269.367 96.613,269.025C96.613,268.683 96.891,268.406 97.233,268.406C97.575,268.406 97.853,268.683 97.853,269.025Z" style="fill:rgb(210,131,41);fill-rule:nonzero;"/>
    </g>
    <g transform="matrix(4.16667,0,0,4.16667,-127.925,-975.25)">
        <path d="M101.246,269.025C101.246,269.367 100.969,269.645 100.627,269.645C100.284,269.645 100.007,269.367 100.007,269.025C100.007,268.683 100.284,268.406 100.627,268.406C100.969,268.406 101.246,268.683 101.246,269.025Z" style="fill:rgb(210,131,41);fill-rule:nonzero;"/>
    </g>
    <g transform="matrix(4.16667,0,0,4.16667,-127.925,-975.25)">
        <path d="M104.639,269.025C104.639,269.367 104.362,269.645 104.02,269.645C103.677,269.645 103.4,269.367 103.4,269.025C103.4,268.683 103.677,268.406 104.02,268.406C104.362,268.406 104.639,268.683 104.639,269.025Z" style="fill:rgb(210,131,41);fill-rule:nonzero;"/>
    </g>
    <g transform="matrix(4.16667,0,0,4.16667,-127.925,-975.25)">
        <path d="M108.032,269.025C108.032,269.367 107.755,269.645 107.413,269.645C107.071,269.645 106.793,269.367 106.793,269.025C106.793,268.683 107.071,268.406 107.413,268.406C107.755,268.406 108.032,268.683 108.032,269.025Z" style="fill:rgb(210,131,41);fill-rule:nonzero;"/>
    </g>
    <g transform="matrix(4.16667,0,0,4.16667,-127.925,-975.25)">
        <path d="M111.425,269.025C111.425,269.367 111.148,269.645 110.806,269.645C110.464,269.645 110.186,269.367 110.186,269.025C110.186,268.683 110.464,268.406 110.806,268.406C111.148,268.406 111.425,268.683 111.425,269.025Z" style="fill:rgb(210,131,41);fill-rule:nonzero;"/>
    </g>
    <g transform="matrix(4.16667,0,0,4.16667,-127.925,-975.25)">
        <path d="M114.818,269.025C114.818,269.367 114.541,269.645 114.199,269.645C113.857,269.645 113.579,269.367 113.579,269.025C113.579,268.683 113.857,268.406 114.199,268.406C114.541,268.406 114.818,268.683 114.818,269.025Z" style="fill:rgb(210,131,41);fill-rule:nonzero;"/>
    </g>
    <g transform="matrix(4.16667,0,0,4.16667,-127.925,-975.25)">
        <path d="M118.212,269.025C118.212,269.367 117.934,269.645 117.592,269.645C117.25,269.645 116.972,269.367 116.972,269.025C116.972,268.683 117.25,268.406 117.592,268.406C117.934,268.406 118.212,268.683 118.212,269.025Z" style="fill:rgb(210,131,41);fill-rule:nonzero;"/>
    </g>
    <g transform="matrix(4.16667,0,0,4.16667,-127.925,-975.25)">
        <path d="M121.605,269.025C121.605,269.367 121.327,269.645 120.985,269.645C120.643,269.645 120.366,269.367 120.366,269.025C120.366,268.683 120.643,268.406 120.985,268.406C121.327,268.406 121.605,268.683 121.605,269.025Z" style="fill:rgb(210,131,41);fill-rule:nonzero;"/>
    </g>
    <g transform="matrix(4.16667,0,0,4.16667,-127.925,-975.25)">
        <path d="M124.998,269.025C124.998,269.367 124.72,269.645 124.378,269.645C124.036,269.645 123.759,269.367 123.759,269.025C123.759,268.683 124.036,268.406 124.378,268.406C124.72,268.406 124.998,268.683 124.998,269.025Z" style="fill:rgb(210,131,41);fill-rule:nonzero;"/>
    </g>
    <g transform="matrix(4.16667,0,0,4.16667,-127.925,-975.25)">
        <path d="M128.391,269.025C128.391,269.367 128.113,269.645 127.771,269.645C127.429,269.645 127.152,269.367 127.152,269.025C127.152,268.683 127.429,268.406 127.771,268.406C128.113,268.406 128.391,268.683 128.391,269.025Z" style="fill:rgb(210,131,41);fill-rule:nonzero;"/>
    </g>
    <g transform="matrix(4.16667,0,0,4.16667,-127.925,-975.25)">
        <path d="M131.784,269.025C131.784,269.367 131.507,269.645 131.164,269.645C130.822,269.645 130.545,269.367 130.545,269.025C130.545,268.683 130.822,268.406 131.164,268.406C131.507,268.406 131.784,268.683 131.784,269.025Z" style="fill:rgb(210,131,41);fill-rule:nonzero;"/>
    </g>
    <g transform="matrix(4.16667,0,0,4.16667,-127.925,-975.25)">
        <path d="M135.177,269.025C135.177,269.367 134.9,269.645 134.558,269.645C134.215,269.645 133.938,269.367 133.938,269.025C133.938,268.683 134.215,268.406 134.558,268.406C134.9,268.406 135.177,268.683 135.177,269.025Z" style="fill:rgb(210,131,41);fill-rule:nonzero;"/>
    </g>
    <g transform="matrix(4.16667,0,0,4.16667,-127.925,-975.25)">
        <path d="M138.57,269.025C138.57,269.367 138.293,269.645 137.951,269.645C137.608,269.645 137.331,269.367 137.331,269.025C137.331,268.683 137.608,268.406 137.951,268.406C138.293,268.406 138.57,268.683 138.57,269.025Z" style="fill:rgb(210,131,41);fill-rule:nonzero;"/>
    </g>
    <g transform="matrix(4.16667,0,0,4.16667,-127.925,-975.25)">
        <path d="M141.963,269.025C141.963,269.367 141.686,269.645 141.344,269.645C141.002,269.645 140.724,269.367 140.724,269.025C140.724,268.683 141.002,268.406 141.344,268.406C141.686,268.406 141.963,268.683 141.963,269.025Z" style="fill:rgb(210,131,41);fill-rule:nonzero;"/>
    </g>
    <g transform="matrix(4.16667,0,0,4.16667,-127.925,-975.25)">
        <path d="M145.356,269.025C145.356,269.367 145.079,269.645 144.737,269.645C144.395,269.645 144.117,269.367 144.117,269.025C144.117,268.683 144.395,268.406 144.737,268.406C145.079,268.406 145.356,268.683 145.356,269.025Z" style="fill:rgb(210,131,41);fill-rule:nonzero;"/>
    </g>
    <g transform="matrix(4.16667,0,0,4.16667,-127.925,-975.25)">
        <path d="M148.749,269.025C148.749,269.367 148.472,269.645 148.13,269.645C147.788,269.645 147.51,269.367 147.51,269.025C147.51,268.683 147.788,268.406 148.13,268.406C148.472,268.406 148.749,268.683 148.749,269.025Z" style="fill:rgb(210,131,41);fill-rule:nonzero;"/>
    </g>
    <g transform="matrix(4.16667,0,0,4.16667,-127.925,-975.25)">
        <path d="M152.143,269.025C152.143,269.367 151.865,269.645 151.523,269.645C151.181,269.645 150.903,269.367 150.903,269.025C150.903,268.683 151.181,268.406 151.523,268.406C151.865,268.406 152.143,268.683 152.143,269.025Z" style="fill:rgb(210,131,41);fill-rule:nonzero;"/>
    </g>
    <g transform="matrix(4.16667,0,0,4.16667,-127.925,-975.25)">
        <path d="M155.536,269.025C155.536,269.367 155.258,269.645 154.916,269.645C154.574,269.645 154.297,269.367 154.297,269.025C154.297,268.683 154.574,268.406 154.916,268.406C155.258,268.406 155.536,268.683 155.536,269.025Z" style="fill:rgb(210,131,41);fill-rule:nonzero;"/>
    </g>
    <g transform="matrix(4.16667,0,0,4.16667,-127.925,-975.25)">
        <path d="M158.929,269.025C158.929,269.367 158.651,269.645 158.309,269.645C157.967,269.645 157.69,269.367 157.69,269.025C157.69,268.683 157.967,268.406 158.309,268.406C158.651,268.406 158.929,268.683 158.929,269.025Z" style="fill:rgb(210,131,41);fill-rule:nonzero;"/>
    </g>
    <g transform="matrix(4.16667,0,0,4.16667,-127.925,-975.25)">
        <path d="M162.322,269.025C162.322,269.367 162.044,269.645 161.702,269.645C161.36,269.645 161.083,269.367 161.083,269.025C161.083,268.683 161.36,268.406 161.702,268.406C162.044,268.406 162.322,268.683 162.322,269.025Z" style="fill:rgb(210,131,41);fill-rule:nonzero;"/>
    </g>
    <g transform="matrix(4.16667,0,0,4.16667,-127.925,-975.25)">
        <path d="M165.715,269.025C165.715,269.367 165.438,269.645 165.095,269.645C164.753,269.645 164.476,269.367 164.476,269.025C164.476,268.683 164.753,268.406 165.095,268.406C165.438,268.406 165.715,268.683 165.715,269.025Z" style="fill:rgb(210,131,41);fill-rule:nonzero;"/>
    </g>
    <g transform="matrix(4.16667,0,0,4.16667,-127.925,-975.25)">
        <path d="M169.108,269.025C169.108,269.367 168.831,269.645 168.488,269.645C168.146,269.645 167.869,269.367 167.869,269.025C167.869,268.683 168.146,268.406 168.488,268.406C168.831,268.406 169.108,268.683 169.108,269.025Z" style="fill:rgb(210,131,41);fill-rule:nonzero;"/>
    </g>
    <g transform="matrix(4.16667,0,0,4.16667,-127.925,-975.25)">
        <path d="M172.501,269.025C172.501,269.367 172.224,269.645 171.882,269.645C171.539,269.645 171.262,269.367 171.262,269.025C171.262,268.683 171.539,268.406 171.882,268.406C172.224,268.406 172.501,268.683 172.501,269.025Z" style="fill:rgb(210,131,41);fill-rule:nonzero;"/>
    </g>
    <g transform="matrix(4.16667,0,0,4.16667,-127.925,-975.25)">
        <path d="M175.894,269.025C175.894,269.367 175.617,269.645 175.275,269.645C174.932,269.645 174.655,269.367 174.655,269.025C174.655,268.683 174.932,268.406 175.275,268.406C175.617,268.406 175.894,268.683 175.894,269.025Z" style="fill:rgb(210,131,41);fill-rule:nonzero;"/>
    </g>
    <g transform="matrix(4.16667,0,0,4.16667,-127.925,-975.25)">
        <path d="M179.287,269.025C179.287,269.367 179.01,269.645 178.668,269.645C178.326,269.645 178.048,269.367 178.048,269.025C178.048,268.683 178.326,268.406 178.668,268.406C179.01,268.406 179.287,268.683 179.287,269.025Z" style="fill:rgb(210,131,41);fill-rule:nonzero;"/>
    </g>
    <g transform="matrix(4.16667,0,0,4.16667,-127.925,-975.25)">
        <path d="M182.68,269.025C182.68,269.367 182.403,269.645 182.061,269.645C181.719,269.645 181.441,269.367 181.441,269.025C181.441,268.683 181.719,268.406 182.061,268.406C182.403,268.406 182.68,268.683 182.68,269.025Z" style="fill:rgb(210,131,41);fill-rule:nonzero;"/>
    </g>
    <g transform="matrix(4.16667,0,0,4.16667,-127.925,-975.25)">
        <path d="M186.074,269.025C186.074,269.367 185.796,269.645 185.454,269.645C185.112,269.645 184.834,269.367 184.834,269.025C184.834,268.683 185.112,268.406 185.454,268.406C185.796,268.406 186.074,268.683 186.074,269.025Z" style="fill:rgb(210,131,41);fill-rule:nonzero;"/>
    </g>
    <g transform="matrix(4.16667,0,0,4.16667,-127.925,-975.25)">
        <path d="M189.467,269.025C189.467,269.367 189.189,269.645 188.847,269.645C188.505,269.645 188.228,269.367 188.228,269.025C188.228,268.683 188.505,268.406 188.847,268.406C189.189,268.406 189.467,268.683 189.467,269.025Z" style="fill:rgb(210,131,41);fill-rule:nonzero;"/>
    </g>
    <g transform="matrix(4.16667,0,0,4.16667,-127.925,-975.25)">
        <path d="M192.86,269.025C192.86,269.367 192.582,269.645 192.24,269.645C191.898,269.645 191.621,269.367 191.621,269.025C191.621,268.683 191.898,268.406 192.24,268.406C192.582,268.406 192.86,268.683 192.86,269.025Z" style="fill:rgb(210,131,41);fill-rule:nonzero;"/>
    </g>
    <g transform="matrix(4.16667,0,0,4.16667,-127.925,-975.25)">
        <path d="M196.253,269.025C196.253,269.367 195.975,269.645 195.633,269.645C195.291,269.645 195.014,269.367 195.014,269.025C195.014,268.683 195.291,268.406 195.633,268.406C195.975,268.406 196.253,268.683 196.253,269.025Z" style="fill:rgb(210,131,41);fill-rule:nonzero;"/>
    </g>
    <g transform="matrix(4.16667,0,0,4.16667,-127.925,-975.25)">
        <path d="M199.646,269.025C199.646,269.367 199.369,269.645 199.026,269.645C198.684,269.645 198.407,269.367 198.407,269.025C198.407,268.683 198.684,268.406 199.026,268.406C199.369,268.406 199.646,268.683 199.646,269.025Z" style="fill:rgb(210,131,41);fill-rule:nonzero;"/>
    </g>
    <g transform="matrix(4.16667,0,0,4.16667,-127.925,-975.25)">
        <path d="M203.039,269.025C203.039,269.367 202.762,269.645 202.419,269.645C202.077,269.645 201.8,269.367 201.8,269.025C201.8,268.683 202.077,268.406 202.419,268.406C202.762,268.406 203.039,268.683 203.039,269.025Z" style="fill:rgb(210,131,41);fill-rule:nonzero;"/>
    </g>
    <g transform="matrix(4.16667,0,0,4.16667,-127.925,-975.25)">
        <path d="M206.432,269.025C206.432,269.367 206.155,269.645 205.813,269.645C205.47,269.645 205.193,269.367 205.193,269.025C205.193,268.683 205.47,268.406 205.813,268.406C206.155,268.406 206.432,268.683 206.432,269.025Z" style="fill:rgb(210,131,41);fill-rule:nonzero;"/>
    </g>
    <g transform="matrix(4.16667,0,0,4.16667,-127.925,-975.25)">
        <path d="M209.825,269.025C209.825,269.367 209.548,269.645 209.206,269.645C208.863,269.645 208.586,269.367 208.586,269.025C208.586,268.683 208.863,268.406 209.206,268.406C209.548,268.406 209.825,268.683 209.825,269.025Z" style="fill:rgb(210,131,41);fill-rule:nonzero;"/>
    </g>
    <g transform="matrix(4.16667,0,0,4.16667,-127.925,-975.25)">
        <path d="M213.218,269.025C213.218,269.367 212.941,269.645 212.599,269.645C212.257,269.645 211.979,269.367 211.979,269.025C211.979,268.683 212.257,268.406 212.599,268.406C212.941,268.406 213.218,268.683 213.218,269.025Z" style="fill:rgb(210,131,41);fill-rule:nonzero;"/>
    </g>
    <g transform="matrix(4.16667,0,0,4.16667,-127.925,-975.25)">
        <path d="M216.611,269.025C216.611,269.367 216.334,269.645 215.992,269.645C215.65,269.645 215.372,269.367 215.372,269.025C215.372,268.683 215.65,268.406 215.992,268.406C216.334,268.406 216.611,268.683 216.611,269.025Z" style="fill:rgb(210,131,41);fill-rule:nonzero;"/>
    </g>
    <g transform="matrix(4.16667,0,0,4.16667,-127.925,-975.25)">
        <path d="M220.005,269.025C220.005,269.367 219.727,269.645 219.385,269.645C219.043,269.645 218.765,269.367 218.765,269.025C218.765,268.683 219.043,268.406 219.385,268.406C219.727,268.406 220.005,268.683 220.005,269.025Z" style="fill:rgb(210,131,41);fill-rule:nonzero;"/>
    </g>
    <g transform="matrix(4.16667,0,0,4.16667,-127.925,-975.25)">
        <path d="M121.697,306.703C121.697,307.045 121.42,307.322 121.078,307.322C120.736,307.322 120.458,307.045 120.458,306.703C120.458,306.36 120.736,306.083 121.078,306.083C121.42,306.083 121.697,306.36 121.697,306.703Z" style="fill:rgb(181,37,64);fill-rule:nonzero;"/>
    </g>
    <g transform="matrix(4.16667,0,0,4.16667,-127.925,-975.25)">
        <path d="M125.09,306.703C125.09,307.045 124.813,307.322 124.471,307.322C124.129,307.322 123.851,307.045 123.851,306.703C123.851,306.36 124.129,306.083 124.471,306.083C124.813,306.083 125.09,306.36 125.09,306.703Z" style="fill:rgb(181,37,64);fill-rule:nonzero;"/>
    </g>
    <g transform="matrix(4.16667,0,0,4.16667,-127.925,-975.25)">
        <path d="M128.483,306.703C128.483,307.045 128.205,307.322 127.864,307.322C127.522,307.322 127.244,307.045 127.244,306.703C127.244,306.36 127.522,306.083 127.864,306.083C128.205,306.083 128.483,306.36 128.483,306.703Z" style="fill:rgb(181,37,64);fill-rule:nonzero;"/>
    </g>
    <g transform="matrix(4.16667,0,0,4.16667,-127.925,-975.25)">
        <path d="M131.877,306.703C131.877,307.045 131.599,307.322 131.257,307.322C130.914,307.322 130.636,307.045 130.636,306.703C130.636,306.36 130.914,306.083 131.257,306.083C131.599,306.083 131.877,306.36 131.877,306.703Z" style="fill:rgb(181,37,64);fill-rule:nonzero;"/>
    </g>
    <g transform="matrix(4.16667,0,0,4.16667,-127.925,-975.25)">
        <path d="M135.27,306.703C135.27,307.045 134.992,307.322 134.65,307.322C134.308,307.322 134.031,307.045 134.031,306.703C134.031,306.36 134.308,306.083 134.65,306.083C134.992,306.083 135.27,306.36 135.27,306.703Z" style="fill:rgb(181,37,64);fill-rule:nonzero;"/>
    </g>
    <g transform="matrix(4.16667,0,0,4.16667,-127.925,-975.25)">
        <path d="M138.663,306.703C138.663,307.045 138.385,307.322 138.043,307.322C137.701,307.322 137.424,307.045 137.424,306.703C137.424,306.36 137.701,306.083 138.043,306.083C138.385,306.083 138.663,306.36 138.663,306.703Z" style="fill:rgb(181,37,64);fill-rule:nonzero;"/>
    </g>
    <g transform="matrix(4.16667,0,0,4.16667,-127.925,-975.25)">
        <path d="M142.056,306.703C142.056,307.045 141.779,307.322 141.436,307.322C141.094,307.322 140.817,307.045 140.817,306.703C140.817,306.36 141.094,306.083 141.436,306.083C141.779,306.083 142.056,306.36 142.056,306.703Z" style="fill:rgb(181,37,64);fill-rule:nonzero;"/>
    </g>
    <g transform="matrix(4.16667,0,0,4.16667,-127.925,-975.25)">
        <path d="M145.449,306.703C145.449,307.045 145.172,307.322 144.829,307.322C144.487,307.322 144.21,307.045 144.21,306.703C144.21,306.36 144.487,306.083 144.829,306.083C145.172,306.083 145.449,306.36 145.449,306.703Z" style="fill:rgb(181,37,64);fill-rule:nonzero;"/>
    </g>
    <g transform="matrix(4.16667,0,0,4.16667,-127.925,-975.25)">
        <path d="M148.842,306.703C148.842,307.045 148.565,307.322 148.222,307.322C147.88,307.322 147.603,307.045 147.603,306.703C147.603,306.36 147.88,306.083 148.222,306.083C148.565,306.083 148.842,306.36 148.842,306.703Z" style="fill:rgb(181,37,64);fill-rule:nonzero;"/>
    </g>
    <g transform="matrix(4.16667,0,0,4.16667,-127.925,-975.25)">
        <path d="M152.235,306.703C152.235,307.045 151.958,307.322 151.616,307.322C151.273,307.322 150.996,307.045 150.996,306.703C150.996,306.36 151.273,306.083 151.616,306.083C151.958,306.083 152.235,306.36 152.235,306.703Z" style="fill:rgb(181,37,64);fill-rule:nonzero;"/>
    </g>
    <g transform="matrix(4.16667,0,0,4.16667,-127.925,-975.25)">
        <path d="M155.628,306.703C155.628,307.045 155.351,307.322 155.009,307.322C154.667,307.322 154.389,307.045 154.389,306.703C154.389,306.36 154.667,306.083 155.009,306.083C155.351,306.083 155.628,306.36 155.628,306.703Z" style="fill:rgb(181,37,64);fill-rule:nonzero;"/>
    </g>
    <g transform="matrix(4.16667,0,0,4.16667,-127.925,-975.25)">
        <path d="M159.021,306.703C159.021,307.045 158.744,307.322 158.402,307.322C158.06,307.322 157.782,307.045 157.782,306.703C157.782,306.36 158.06,306.083 158.402,306.083C158.744,306.083 159.021,306.36 159.021,306.703Z" style="fill:rgb(181,37,64);fill-rule:nonzero;"/>
    </g>
    <g transform="matrix(4.16667,0,0,4.16667,-127.925,-975.25)">
        <path d="M162.414,306.703C162.414,307.045 162.137,307.322 161.795,307.322C161.453,307.322 161.175,307.045 161.175,306.703C161.175,306.36 161.453,306.083 161.795,306.083C162.137,306.083 162.414,306.36 162.414,306.703Z" style="fill:rgb(181,37,64);fill-rule:nonzero;"/>
    </g>
    <g transform="matrix(4.16667,0,0,4.16667,-127.925,-975.25)">
        <path d="M165.808,306.703C165.808,307.045 165.53,307.322 165.188,307.322C164.846,307.322 164.568,307.045 164.568,306.703C164.568,306.36 164.846,306.083 165.188,306.083C165.53,306.083 165.808,306.36 165.808,306.703Z" style="fill:rgb(181,37,64);fill-rule:nonzero;"/>
    </g>
    <g transform="matrix(4.16667,0,0,4.16667,-127.925,-975.25)">
        <path d="M169.201,306.703C169.201,307.045 168.923,307.322 168.581,307.322C168.239,307.322 167.962,307.045 167.962,306.703C167.962,306.36 168.239,306.083 168.581,306.083C168.923,306.083 169.201,306.36 169.201,306.703Z" style="fill:rgb(181,37,64);fill-rule:nonzero;"/>
    </g>
    <g transform="matrix(4.16667,0,0,4.16667,-127.925,-975.25)">
        <path d="M172.594,306.703C172.594,307.045 172.316,307.322 171.974,307.322C171.632,307.322 171.355,307.045 171.355,306.703C171.355,306.36 171.632,306.083 171.974,306.083C172.316,306.083 172.594,306.36 172.594,306.703Z" style="fill:rgb(181,37,64);fill-rule:nonzero;"/>
    </g>
    <g transform="matrix(4.16667,0,0,4.16667,-127.925,-975.25)">
        <path d="M175.987,306.703C175.987,307.045 175.709,307.322 175.367,307.322C175.025,307.322 174.748,307.045 174.748,306.703C174.748,306.36 175.025,306.083 175.367,306.083C175.709,306.083 175.987,306.36 175.987,306.703Z" style="fill:rgb(181,37,64);fill-rule:nonzero;"/>
    </g>
    <g transform="matrix(4.16667,0,0,4.16667,-127.925,-975.25)">
        <path d="M179.38,306.703C179.38,307.045 179.103,307.322 178.76,307.322C178.418,307.322 178.141,307.045 178.141,306.703C178.141,306.36 178.418,306.083 178.76,306.083C179.103,306.083 179.38,306.36 179.38,306.703Z" style="fill:rgb(181,37,64);fill-rule:nonzero;"/>
    </g>
    <g transform="matrix(4.16667,0,0,4.16667,-127.925,-975.25)">
        <path d="M182.773,306.703C182.773,307.045 182.496,307.322 182.153,307.322C181.811,307.322 181.534,307.045 181.534,306.703C181.534,306.36 181.811,306.083 182.153,306.083C182.496,306.083 182.773,306.36 182.773,306.703Z" style="fill:rgb(181,37,64);fill-rule:nonzero;"/>
    </g>
    <g transform="matrix(4.16667,0,0,4.16667,-127.925,-975.25)">
        <path d="M186.166,306.703C186.166,307.045 185.889,307.322 185.547,307.322C185.204,307.322 184.927,307.045 184.927,306.703C184.927,306.36 185.204,306.083 185.547,306.083C185.889,306.083 186.166,306.36 186.166,306.703Z" style="fill:rgb(181,37,64);fill-rule:nonzero;"/>
    </g>
    <g transform="matrix(4.16667,0,0,4.16667,-127.925,-975.25)">
        <path d="M189.559,306.703C189.559,307.045 189.282,307.322 188.94,307.322C188.598,307.322 188.32,307.045 188.32,306.703C188.32,306.36 188.598,306.083 188.94,306.083C189.282,306.083 189.559,306.36 189.559,306.703Z" style="fill:rgb(181,37,64);fill-rule:nonzero;"/>
    </g>
    <g transform="matrix(4.16667,0,0,4.16667,-127.925,-975.25)">
        <path d="M192.952,306.703C192.952,307.045 192.675,307.322 192.333,307.322C191.991,307.322 191.713,307.045 191.713,306.703C191.713,306.36 191.991,306.083 192.333,306.083C192.675,306.083 192.952,306.36 192.952,306.703Z" style="fill:rgb(181,37,64);fill-rule:nonzero;"/>
    </g>
    <g transform="matrix(4.16667,0,0,4.16667,-127.925,-975.25)">
        <path d="M196.345,306.703C196.345,307.045 196.068,307.322 195.726,307.322C195.384,307.322 195.106,307.045 195.106,306.703C195.106,306.36 195.384,306.083 195.726,306.083C196.068,306.083 196.345,306.36 196.345,306.703Z" style="fill:rgb(181,37,64);fill-rule:nonzero;"/>
    </g>
    <g transform="matrix(4.16667,0,0,4.16667,-127.925,-975.25)">
        <path d="M199.739,306.703C199.739,307.045 199.461,307.322 199.119,307.322C198.777,307.322 198.499,307.045 198.499,306.703C198.499,306.36 198.777,306.083 199.119,306.083C199.461,306.083 199.739,306.36 199.739,306.703Z" style="fill:rgb(181,37,64);fill-rule:nonzero;"/>
    </g>
    <g transform="matrix(4.16667,0,0,4.16667,-127.925,-975.25)">
        <path d="M203.132,306.703C203.132,307.045 202.854,307.322 202.512,307.322C202.17,307.322 201.893,307.045 201.893,306.703C201.893,306.36 202.17,306.083 202.512,306.083C202.854,306.083 203.132,306.36 203.132,306.703Z" style="fill:rgb(181,37,64);fill-rule:nonzero;"/>
    </g>
    <g transform="matrix(4.16667,0,0,4.16667,-127.925,-975.25)">
        <path d="M206.525,306.703C206.525,307.045 206.247,307.322 205.905,307.322C205.563,307.322 205.286,307.045 205.286,306.703C205.286,306.36 205.563,306.083 205.905,306.083C206.247,306.083 206.525,306.36 206.525,306.703Z" style="fill:rgb(181,37,64);fill-rule:nonzero;"/>
    </g>
    <g transform="matrix(4.16667,0,0,4.16667,-127.925,-975.25)">
        <path d="M209.918,306.703C209.918,307.045 209.64,307.322 209.298,307.322C208.956,307.322 208.679,307.045 208.679,306.703C208.679,306.36 208.956,306.083 209.298,306.083C209.64,306.083 209.918,306.36 209.918,306.703Z" style="fill:rgb(181,37,64);fill-rule:nonzero;"/>
    </g>
    <g transform="matrix(4.16667,0,0,4.16667,-127.925,-975.25)">
        <path d="M213.311,306.703C213.311,307.045 213.034,307.322 212.691,307.322C212.349,307.322 212.072,307.045 212.072,306.703C212.072,306.36 212.349,306.083 212.691,306.083C213.034,306.083 213.311,306.36 213.311,306.703Z" style="fill:rgb(181,37,64);fill-rule:nonzero;"/>
    </g>
    <g transform="matrix(4.16667,0,0,4.16667,-127.925,-975.25)">
        <path d="M216.704,306.703C216.704,307.045 216.427,307.322 216.084,307.322C215.742,307.322 215.465,307.045 215.465,306.703C215.465,306.36 215.742,306.083 216.084,306.083C216.427,306.083 216.704,306.36 216.704,306.703Z" style="fill:rgb(181,37,64);fill-rule:nonzero;"/>
    </g>
    <g transform="matrix(4.16667,0,0,4.16667,-127.925,-975.25)">
        <path d="M68.789,285.51C68.789,285.852 68.512,286.129 68.17,286.129C67.828,286.129 67.55,285.852 67.55,285.51C67.55,285.167 67.828,284.89 68.17,284.89C68.512,284.89 68.789,285.167 68.789,285.51Z" style="fill:rgb(181,37,64);fill-rule:nonzero;"/>
    </g>
    <g transform="matrix(4.16667,0,0,4.16667,-127.925,-975.25)">
        <path d="M72.183,285.51C72.183,285.852 71.905,286.129 71.563,286.129C71.221,286.129 70.943,285.852 70.943,285.51C70.943,285.167 71.221,284.89 71.563,284.89C71.905,284.89 72.183,285.167 72.183,285.51Z" style="fill:rgb(181,37,64);fill-rule:nonzero;"/>
    </g>
    <g transform="matrix(4.16667,0,0,4.16667,-127.925,-975.25)">
        <path d="M75.576,285.51C75.576,285.852 75.298,286.129 74.956,286.129C74.614,286.129 74.336,285.852 74.336,285.51C74.336,285.167 74.614,284.89 74.956,284.89C75.298,284.89 75.576,285.167 75.576,285.51Z" style="fill:rgb(181,37,64);fill-rule:nonzero;"/>
    </g>
    <g transform="matrix(4.16667,0,0,4.16667,-127.925,-975.25)">
        <path d="M78.969,285.51C78.969,285.852 78.691,286.129 78.349,286.129C78.007,286.129 77.73,285.852 77.73,285.51C77.73,285.167 78.007,284.89 78.349,284.89C78.691,284.89 78.969,285.167 78.969,285.51Z" style="fill:rgb(181,37,64);fill-rule:nonzero;"/>
    </g>
    <g transform="matrix(4.16667,0,0,4.16667,-127.925,-975.25)">
        <path d="M82.362,285.51C82.362,285.852 82.084,286.129 81.742,286.129C81.4,286.129 81.123,285.852 81.123,285.51C81.123,285.167 81.4,284.89 81.742,284.89C82.084,284.89 82.362,285.167 82.362,285.51Z" style="fill:rgb(181,37,64);fill-rule:nonzero;"/>
    </g>
    <g transform="matrix(4.16667,0,0,4.16667,-127.925,-975.25)">
        <path d="M85.755,285.51C85.755,285.852 85.477,286.129 85.135,286.129C84.793,286.129 84.516,285.852 84.516,285.51C84.516,285.167 84.793,284.89 85.135,284.89C85.477,284.89 85.755,285.167 85.755,285.51Z" style="fill:rgb(181,37,64);fill-rule:nonzero;"/>
    </g>
    <g transform="matrix(4.16667,0,0,4.16667,-127.925,-975.25)">
        <path d="M89.148,285.51C89.148,285.852 88.871,286.129 88.528,286.129C88.186,286.129 87.909,285.852 87.909,285.51C87.909,285.167 88.186,284.89 88.528,284.89C88.871,284.89 89.148,285.167 89.148,285.51Z" style="fill:rgb(181,37,64);fill-rule:nonzero;"/>
    </g>
    <g transform="matrix(4.16667,0,0,4.16667,-127.925,-975.25)">
        <path d="M92.541,285.51C92.541,285.852 92.264,286.129 91.922,286.129C91.579,286.129 91.302,285.852 91.302,285.51C91.302,285.167 91.579,284.89 91.922,284.89C92.264,284.89 92.541,285.167 92.541,285.51Z" style="fill:rgb(181,37,64);fill-rule:nonzero;"/>
    </g>
    <g transform="matrix(4.16667,0,0,4.16667,-127.925,-975.25)">
        <path d="M95.934,285.51C95.934,285.852 95.657,286.129 95.315,286.129C94.972,286.129 94.695,285.852 94.695,285.51C94.695,285.167 94.972,284.89 95.315,284.89C95.657,284.89 95.934,285.167 95.934,285.51Z" style="fill:rgb(181,37,64);fill-rule:nonzero;"/>
    </g>
    <g transform="matrix(4.16667,0,0,4.16667,-127.925,-975.25)">
        <path d="M99.327,285.51C99.327,285.852 99.05,286.129 98.708,286.129C98.365,286.129 98.088,285.852 98.088,285.51C98.088,285.167 98.365,284.89 98.708,284.89C99.05,284.89 99.327,285.167 99.327,285.51Z" style="fill:rgb(181,37,64);fill-rule:nonzero;"/>
    </g>
    <g transform="matrix(4.16667,0,0,4.16667,-127.925,-975.25)">
        <path d="M102.721,285.51C102.721,285.852 102.443,286.129 102.101,286.129C101.759,286.129 101.482,285.852 101.482,285.51C101.482,285.167 101.759,284.89 102.101,284.89C102.443,284.89 102.721,285.167 102.721,285.51Z" style="fill:rgb(181,37,64);fill-rule:nonzero;"/>
    </g>
    <g transform="matrix(4.16667,0,0,4.16667,-127.925,-975.25)">
        <path d="M106.114,285.51C106.114,285.852 105.837,286.129 105.494,286.129C105.152,286.129 104.875,285.852 104.875,285.51C104.875,285.167 105.152,284.89 105.494,284.89C105.837,284.89 106.114,285.167 106.114,285.51Z" style="fill:rgb(181,37,64);fill-rule:nonzero;"/>
    </g>
    <g transform="matrix(4.16667,0,0,4.16667,-127.925,-975.25)">
        <path d="M109.507,285.51C109.507,285.852 109.23,286.129 108.887,286.129C108.545,286.129 108.268,285.852 108.268,285.51C108.268,285.167 108.545,284.89 108.887,284.89C109.23,284.89 109.507,285.167 109.507,285.51Z" style="fill:rgb(181,37,64);fill-rule:nonzero;"/>
    </g>
    <g transform="matrix(4.16667,0,0,4.16667,-127.925,-975.25)">
        <path d="M112.9,285.51C112.9,285.852 112.623,286.129 112.281,286.129C111.938,286.129 111.661,285.852 111.661,285.51C111.661,285.167 111.938,284.89 112.281,284.89C112.623,284.89 112.9,285.167 112.9,285.51Z" style="fill:rgb(181,37,64);fill-rule:nonzero;"/>
    </g>
    <g transform="matrix(4.16667,0,0,4.16667,-127.925,-975.25)">
        <path d="M116.293,285.51C116.293,285.852 116.016,286.129 115.674,286.129C115.331,286.129 115.054,285.852 115.054,285.51C115.054,285.167 115.331,284.89 115.674,284.89C116.016,284.89 116.293,285.167 116.293,285.51Z" style="fill:rgb(181,37,64);fill-rule:nonzero;"/>
    </g>
    <g transform="matrix(4.16667,0,0,4.16667,-127.925,-975.25)">
        <path d="M119.686,285.51C119.686,285.852 119.409,286.129 119.067,286.129C118.725,286.129 118.447,285.852 118.447,285.51C118.447,285.167 118.725,284.89 119.067,284.89C119.409,284.89 119.686,285.167 119.686,285.51Z" style="fill:rgb(181,37,64);fill-rule:nonzero;"/>
    </g>
    <g transform="matrix(4.16667,0,0,4.16667,-127.925,-975.25)">
        <path d="M123.079,285.51C123.079,285.852 122.802,286.129 122.46,286.129C122.118,286.129 121.84,285.852 121.84,285.51C121.84,285.167 122.118,284.89 122.46,284.89C122.802,284.89 123.079,285.167 123.079,285.51Z" style="fill:rgb(181,37,64);fill-rule:nonzero;"/>
    </g>
    <g transform="matrix(4.16667,0,0,4.16667,-127.925,-975.25)">
        <path d="M126.472,285.51C126.472,285.852 126.195,286.129 125.853,286.129C125.511,286.129 125.233,285.852 125.233,285.51C125.233,285.167 125.511,284.89 125.853,284.89C126.195,284.89 126.472,285.167 126.472,285.51Z" style="fill:rgb(181,37,64);fill-rule:nonzero;"/>
    </g>
    <g transform="matrix(4.16667,0,0,4.16667,-127.925,-975.25)">
        <path d="M129.866,285.51C129.866,285.852 129.588,286.129 129.246,286.129C128.904,286.129 128.626,285.852 128.626,285.51C128.626,285.167 128.904,284.89 129.246,284.89C129.588,284.89 129.866,285.167 129.866,285.51Z" style="fill:rgb(181,37,64);fill-rule:nonzero;"/>
    </g>
    <g transform="matrix(4.16667,0,0,4.16667,-127.925,-975.25)">
        <path d="M182.616,285.51C182.616,285.852 182.338,286.129 181.996,286.129C181.654,286.129 181.377,285.852 181.377,285.51C181.377,285.167 181.654,284.89 181.996,284.89C182.338,284.89 182.616,285.167 182.616,285.51Z" style="fill:rgb(181,37,64);fill-rule:nonzero;"/>
    </g>
    <g transform="matrix(4.16667,0,0,4.16667,-127.925,-975.25)">
        <path d="M186.009,285.51C186.009,285.852 185.731,286.129 185.389,286.129C185.047,286.129 184.77,285.852 184.77,285.51C184.77,285.167 185.047,284.89 185.389,284.89C185.731,284.89 186.009,285.167 186.009,285.51Z" style="fill:rgb(181,37,64);fill-rule:nonzero;"/>
    </g>
    <g transform="matrix(4.16667,0,0,4.16667,-127.925,-975.25)">
        <path d="M189.402,285.51C189.402,285.852 189.124,286.129 188.782,286.129C188.44,286.129 188.163,285.852 188.163,285.51C188.163,285.167 188.44,284.89 188.782,284.89C189.124,284.89 189.402,285.167 189.402,285.51Z" style="fill:rgb(181,37,64);fill-rule:nonzero;"/>
    </g>
    <g transform="matrix(4.16667,0,0,4.16667,-127.925,-975.25)">
        <path d="M192.795,285.51C192.795,285.852 192.518,286.129 192.175,286.129C191.833,286.129 191.556,285.852 191.556,285.51C191.556,285.167 191.833,284.89 192.175,284.89C192.518,284.89 192.795,285.167 192.795,285.51Z" style="fill:rgb(181,37,64);fill-rule:nonzero;"/>
    </g>
    <g transform="matrix(4.16667,0,0,4.16667,-127.925,-975.25)">
        <path d="M196.188,285.51C196.188,285.852 195.911,286.129 195.569,286.129C195.226,286.129 194.949,285.852 194.949,285.51C194.949,285.167 195.226,284.89 195.569,284.89C195.911,284.89 196.188,285.167 196.188,285.51Z" style="fill:rgb(181,37,64);fill-rule:nonzero;"/>
    </g>
    <g transform="matrix(4.16667,0,0,4.16667,-127.925,-975.25)">
        <path d="M199.581,285.51C199.581,285.852 199.304,286.129 198.962,286.129C198.619,286.129 198.342,285.852 198.342,285.51C198.342,285.167 198.619,284.89 198.962,284.89C199.304,284.89 199.581,285.167 199.581,285.51Z" style="fill:rgb(181,37,64);fill-rule:nonzero;"/>
    </g>
    <g transform="matrix(4.16667,0,0,4.16667,-127.925,-975.25)">
        <path d="M202.974,285.51C202.974,285.852 202.697,286.129 202.355,286.129C202.013,286.129 201.735,285.852 201.735,285.51C201.735,285.167 202.013,284.89 202.355,284.89C202.697,284.89 202.974,285.167 202.974,285.51Z" style="fill:rgb(181,37,64);fill-rule:nonzero;"/>
    </g>
    <g transform="matrix(4.16667,0,0,4.16667,-127.925,-975.25)">
        <path d="M206.367,285.51C206.367,285.852 206.09,286.129 205.748,286.129C205.406,286.129 205.128,285.852 205.128,285.51C205.128,285.167 205.406,284.89 205.748,284.89C206.09,284.89 206.367,285.167 206.367,285.51Z" style="fill:rgb(181,37,64);fill-rule:nonzero;"/>
    </g>
    <g transform="matrix(4.16667,0,0,4.16667,-127.925,-975.25)">
        <path d="M209.76,285.51C209.76,285.852 209.483,286.129 209.141,286.129C208.799,286.129 208.521,285.852 208.521,285.51C208.521,285.167 208.799,284.89 209.141,284.89C209.483,284.89 209.76,285.167 209.76,285.51Z" style="fill:rgb(181,37,64);fill-rule:nonzero;"/>
    </g>
    <g transform="matrix(4.16667,0,0,4.16667,-127.925,-975.25)">
        <path d="M213.154,285.51C213.154,285.852 212.876,286.129 212.534,286.129C212.192,286.129 211.914,285.852 211.914,285.51C211.914,285.167 212.192,284.89 212.534,284.89C212.876,284.89 213.154,285.167 213.154,285.51Z" style="fill:rgb(181,37,64);fill-rule:nonzero;"/>
    </g>
    <g transform="matrix(4.16667,0,0,4.16667,-127.925,-975.25)">
        <path d="M56,271.67L56,286.89L52.86,286.89C51.99,286.89 51.28,286.18 51.28,285.31L51.28,284.05C53.17,285.15 55.05,282.32 55.08,279.28C55.11,276.53 54.67,273.29 54.42,271.67L56,271.67Z" style="fill:rgb(181,37,64);fill-rule:nonzero;"/>
    </g>
    <g transform="matrix(4.16667,0,0,4.16667,-127.925,-975.25)">
        <path d="M41.88,295.13L41.09,296.44C40.5,297.42 39.44,298.01 38.3,298.01L31.52,298.01C30.82,298.01 30.45,297.2 30.9,296.66L31.14,296.38C34.14,297.09 39.18,296.69 41.88,295.13Z" style="fill:rgb(82,47,77);fill-rule:nonzero;"/>
    </g>
    <g transform="matrix(4.16667,0,0,4.16667,-127.925,-975.25)">
        <path d="M146.25,254.11L123,254.11L123,246.15C127.59,253.03 137.37,254.13 145.7,250.25L146.25,254.11Z" style="fill:rgb(181,37,64);fill-rule:nonzero;"/>
    </g>
    <g transform="matrix(4.16667,0,0,4.16667,-127.925,-975.25)">
        <path d="M139.36,237.67L127.64,237.67C128.1,236.77 128.729,236 129.509,235.41C130.21,236.99 134.12,237.59 138.33,236.18C138.74,236.62 139.08,237.12 139.36,237.67Z" style="fill:rgb(250,162,43);fill-rule:nonzero;"/>
    </g>
    <g transform="matrix(4.16667,0,0,4.16667,-127.925,-975.25)">
        <path d="M133.115,234.615C133.836,234.05 136.177,234.893 136.771,235.41C137.365,235.927 132.635,234.99 133.115,234.615Z" style="fill:rgb(254,231,172);fill-rule:nonzero;"/>
    </g>
    <g transform="matrix(4.16667,0,0,4.16667,-127.925,-975.25)">
        <path d="M213.298,325.583C212.869,325.583 212.436,325.556 212,325.5L93.97,310.18C87.365,309.329 81.766,305.189 78.935,299.373C81.766,305.189 87.365,309.329 93.969,310.18L212,325.5C212.436,325.556 212.869,325.583 213.298,325.583C217.92,325.583 222.032,322.412 223.13,317.81L223.139,317.772C221.286,319.586 218.764,320.667 216.068,320.667C215.639,320.667 215.206,320.64 214.771,320.584L96.741,305.264C95.592,305.116 94.474,304.869 93.395,304.53L139.03,304.53C140.908,305.072 142.797,305.592 144.709,306.095C144.424,306.151 144.21,306.402 144.21,306.703C144.21,307.045 144.487,307.322 144.829,307.322C145.172,307.322 145.449,307.045 145.449,306.703C145.449,306.514 145.365,306.345 145.232,306.232C146.026,306.439 146.821,306.642 147.619,306.843C147.682,307.117 147.929,307.322 148.222,307.322C148.409,307.322 148.576,307.24 148.69,307.109C172.11,312.889 197.14,315.805 214.767,315.806C218.008,315.806 220.995,315.707 223.68,315.51L223.13,317.81C222.032,322.412 217.919,325.583 213.298,325.583ZM141.436,306.083C141.094,306.083 140.817,306.36 140.817,306.703C140.817,307.045 141.094,307.322 141.436,307.322C141.779,307.322 142.056,307.045 142.056,306.703C142.056,306.36 141.779,306.083 141.436,306.083ZM138.043,306.083C137.701,306.083 137.424,306.36 137.424,306.703C137.424,307.045 137.701,307.322 138.043,307.322C138.385,307.322 138.663,307.045 138.663,306.703C138.663,306.36 138.385,306.083 138.043,306.083ZM134.65,306.083C134.308,306.083 134.031,306.36 134.031,306.703C134.031,307.045 134.308,307.322 134.65,307.322C134.992,307.322 135.27,307.045 135.27,306.703C135.27,306.36 134.992,306.083 134.65,306.083ZM131.257,306.083C130.914,306.083 130.636,306.36 130.636,306.703C130.636,307.045 130.914,307.322 131.257,307.322C131.599,307.322 131.877,307.045 131.877,306.703C131.877,306.36 131.599,306.083 131.257,306.083ZM127.864,306.083C127.522,306.083 127.244,306.36 127.244,306.703C127.244,307.045 127.522,307.322 127.864,307.322C128.205,307.322 128.483,307.045 128.483,306.703C128.483,306.36 128.205,306.083 127.864,306.083ZM124.471,306.083C124.129,306.083 123.851,306.36 123.851,306.703C123.851,307.045 124.129,307.322 124.471,307.322C124.813,307.322 125.09,307.045 125.09,306.703C125.09,306.36 124.813,306.083 124.471,306.083ZM121.078,306.083C120.736,306.083 120.458,306.36 120.458,306.703C120.458,307.045 120.736,307.322 121.078,307.322C121.42,307.322 121.697,307.045 121.697,306.703C121.697,306.36 121.42,306.083 121.078,306.083ZM136.783,303.87L91.605,303.87C87.854,302.274 84.699,299.536 82.585,296.065L115.363,296.065C117.076,296.829 118.837,297.572 120.639,298.292L105.118,298.292C104.167,298.292 103.39,299.07 103.39,300.021C103.39,300.972 104.167,301.75 105.118,301.75L127.468,301.75C127.931,301.75 128.354,301.565 128.664,301.266C131.316,302.177 134.022,303.043 136.783,303.87ZM92.252,298.292C91.301,298.292 90.524,299.07 90.524,300.021C90.524,300.972 91.301,301.75 92.252,301.75L99.616,301.75C100.567,301.75 101.345,300.972 101.345,300.021C101.345,299.07 100.567,298.292 99.616,298.292L92.252,298.292ZM113.915,295.408L82.203,295.408C81.334,293.848 80.671,292.152 80.251,290.354L79.771,288.304L63.661,288.304C62.001,288.304 60.661,286.964 60.661,285.304L60.661,275.323L87.599,275.323C88.584,276.96 89.779,278.544 91.166,280.083L67.478,280.083C66.527,280.083 65.749,280.861 65.749,281.812C65.749,282.762 66.527,283.54 67.478,283.54L94.689,283.54C99.707,287.943 106.303,291.899 113.915,295.408ZM95.315,284.89C94.972,284.89 94.695,285.167 94.695,285.51C94.695,285.852 94.972,286.129 95.315,286.129C95.657,286.129 95.934,285.852 95.934,285.51C95.934,285.167 95.657,284.89 95.315,284.89ZM91.922,284.89C91.579,284.89 91.302,285.167 91.302,285.51C91.302,285.852 91.579,286.129 91.922,286.129C92.264,286.129 92.541,285.852 92.541,285.51C92.541,285.167 92.264,284.89 91.922,284.89ZM88.528,284.89C88.186,284.89 87.909,285.167 87.909,285.51C87.909,285.852 88.186,286.129 88.528,286.129C88.871,286.129 89.148,285.852 89.148,285.51C89.148,285.167 88.871,284.89 88.528,284.89ZM85.135,284.89C84.793,284.89 84.516,285.167 84.516,285.51C84.516,285.852 84.793,286.129 85.135,286.129C85.477,286.129 85.755,285.852 85.755,285.51C85.755,285.167 85.477,284.89 85.135,284.89ZM81.742,284.89C81.4,284.89 81.123,285.167 81.123,285.51C81.123,285.852 81.4,286.129 81.742,286.129C82.084,286.129 82.362,285.852 82.362,285.51C82.362,285.167 82.084,284.89 81.742,284.89ZM78.349,284.89C78.007,284.89 77.73,285.167 77.73,285.51C77.73,285.852 78.007,286.129 78.349,286.129C78.691,286.129 78.969,285.852 78.969,285.51C78.969,285.167 78.691,284.89 78.349,284.89ZM74.956,284.89C74.614,284.89 74.336,285.167 74.336,285.51C74.336,285.852 74.614,286.129 74.956,286.129C75.298,286.129 75.576,285.852 75.576,285.51C75.576,285.167 75.298,284.89 74.956,284.89ZM71.563,284.89C71.221,284.89 70.943,285.167 70.943,285.51C70.943,285.852 71.221,286.129 71.563,286.129C71.905,286.129 72.183,285.852 72.183,285.51C72.183,285.167 71.905,284.89 71.563,284.89ZM68.17,284.89C67.828,284.89 67.55,285.167 67.55,285.51C67.55,285.852 67.828,286.129 68.17,286.129C68.512,286.129 68.789,285.852 68.789,285.51C68.789,285.167 68.512,284.89 68.17,284.89ZM77,293.22L60.89,293.22C59.833,293.22 58.905,292.677 58.371,291.853C58.905,292.676 59.833,293.22 60.889,293.22L76.999,293.22M87.216,274.667L60.661,274.667L60.661,272.31L86.051,272.31C86.391,273.107 86.779,273.891 87.216,274.667Z" style="fill:rgb(184,31,46);fill-rule:nonzero;"/>
    </g>
    <g transform="matrix(4.16667,0,0,4.16667,-127.925,-975.25)">
        <path d="M86.051,272.31L60.661,272.31L60.661,265.913C59.3,266.016 58.193,267.013 57.943,268.324C58.206,266.936 59.423,265.89 60.89,265.89L84.44,265.89C84.619,268.102 85.169,270.243 86.051,272.31ZM83.661,268.406C83.318,268.406 83.041,268.683 83.041,269.025C83.041,269.367 83.318,269.645 83.661,269.645C84.003,269.645 84.28,269.367 84.28,269.025C84.28,268.683 84.003,268.406 83.661,268.406ZM80.267,268.406C79.925,268.406 79.648,268.683 79.648,269.025C79.648,269.367 79.925,269.645 80.267,269.645C80.61,269.645 80.887,269.367 80.887,269.025C80.887,268.683 80.61,268.406 80.267,268.406ZM76.874,268.406C76.532,268.406 76.255,268.683 76.255,269.025C76.255,269.367 76.532,269.645 76.874,269.645C77.217,269.645 77.494,269.367 77.494,269.025C77.494,268.683 77.217,268.406 76.874,268.406ZM73.481,268.406C73.139,268.406 72.862,268.683 72.862,269.025C72.862,269.367 73.139,269.645 73.481,269.645C73.824,269.645 74.101,269.367 74.101,269.025C74.101,268.683 73.824,268.406 73.481,268.406ZM70.088,268.406C69.746,268.406 69.469,268.683 69.469,269.025C69.469,269.367 69.746,269.645 70.088,269.645C70.43,269.645 70.708,269.367 70.708,269.025C70.708,268.683 70.43,268.406 70.088,268.406ZM66.695,268.406C66.353,268.406 66.076,268.683 66.076,269.025C66.076,269.367 66.353,269.645 66.695,269.645C67.037,269.645 67.315,269.367 67.315,269.025C67.315,268.683 67.037,268.406 66.695,268.406ZM63.302,268.406C62.96,268.406 62.682,268.683 62.682,269.025C62.682,269.367 62.96,269.645 63.302,269.645C63.644,269.645 63.922,269.367 63.922,269.025C63.922,268.683 63.644,268.406 63.302,268.406Z" style="fill:rgb(213,95,39);fill-rule:nonzero;"/>
    </g>
    <g transform="matrix(4.16667,0,0,4.16667,-127.925,-975.25)">
        <path d="M213.298,325.583C212.869,325.583 212.436,325.556 212,325.5L93.969,310.18C87.365,309.329 81.766,305.189 78.935,299.373C78.307,298.082 77.816,296.709 77.48,295.27L77,293.22L60.889,293.22C59.833,293.22 58.905,292.676 58.371,291.853C58.066,291.384 57.89,290.823 57.89,290.22L57.89,268.89C57.89,268.697 57.908,268.507 57.943,268.324C58.193,267.013 59.3,266.016 60.661,265.913L60.661,274.667L59.555,274.667L59.555,275.323L60.661,275.323L60.661,285.304C60.661,286.964 62.001,288.304 63.661,288.304L79.771,288.304L80.251,290.354C80.671,292.152 81.334,293.848 82.203,295.408L79.513,295.408L79.513,296.065L82.585,296.065C84.699,299.536 87.854,302.274 91.605,303.87L87.14,303.87L87.14,304.53L93.395,304.53C94.474,304.869 95.592,305.116 96.741,305.264L214.771,320.584C215.206,320.64 215.639,320.667 216.068,320.667C218.764,320.667 221.286,319.586 223.139,317.772L223.13,317.81C222.032,322.412 217.92,325.583 213.298,325.583Z" style="fill:rgb(154,27,40);fill-rule:nonzero;"/>
    </g>
    <g transform="matrix(4.16667,0,0,4.16667,-127.925,-975.25)">
        <path d="M94.689,283.54L67.478,283.54C66.527,283.54 65.749,282.762 65.749,281.812C65.749,280.861 66.527,280.083 67.478,280.083L91.166,280.083C92.231,281.264 93.409,282.417 94.689,283.54Z" style="fill:rgb(70,26,48);fill-rule:nonzero;"/>
    </g>
    <g transform="matrix(4.16667,0,0,4.16667,-127.925,-975.25)">
        <path d="M99.616,301.75L92.252,301.75C91.301,301.75 90.524,300.972 90.524,300.021C90.524,299.07 91.301,298.292 92.252,298.292L99.616,298.292C100.567,298.292 101.345,299.07 101.345,300.021C101.345,300.972 100.567,301.75 99.616,301.75Z" style="fill:rgb(70,26,48);fill-rule:nonzero;"/>
    </g>
    <g transform="matrix(4.16667,0,0,4.16667,-127.925,-975.25)">
        <path d="M127.468,301.75L105.118,301.75C104.167,301.75 103.39,300.972 103.39,300.021C103.39,299.07 104.167,298.292 105.118,298.292L120.639,298.292C123.232,299.328 125.918,300.321 128.664,301.266C128.354,301.565 127.931,301.75 127.468,301.75Z" style="fill:rgb(70,26,48);fill-rule:nonzero;"/>
    </g>
    <g transform="matrix(4.16667,0,0,4.16667,-127.925,-975.25)">
        <path d="M87.599,275.323L59.555,275.323L59.555,274.667L87.216,274.667C87.339,274.886 87.468,275.106 87.599,275.323Z" style="fill:rgb(154,27,40);fill-rule:nonzero;"/>
    </g>
    <g transform="matrix(4.16667,0,0,4.16667,-127.925,-975.25)">
        <path d="M115.363,296.065L79.513,296.065L79.513,295.408L113.915,295.408C114.393,295.629 114.877,295.848 115.363,296.065Z" style="fill:rgb(154,27,40);fill-rule:nonzero;"/>
    </g>
    <g transform="matrix(4.16667,0,0,4.16667,-127.925,-975.25)">
        <path d="M139.03,304.53L87.14,304.53L87.14,303.87L136.783,303.87C137.527,304.092 138.28,304.314 139.03,304.53Z" style="fill:rgb(154,27,40);fill-rule:nonzero;"/>
    </g>
    <g transform="matrix(4.16667,0,0,4.16667,-127.925,-975.25)">
        <path d="M63.302,269.645C62.96,269.645 62.682,269.367 62.682,269.025C62.682,268.683 62.96,268.406 63.302,268.406C63.644,268.406 63.922,268.683 63.922,269.025C63.922,269.367 63.644,269.645 63.302,269.645Z" style="fill:rgb(178,75,38);fill-rule:nonzero;"/>
    </g>
    <g transform="matrix(4.16667,0,0,4.16667,-127.925,-975.25)">
        <path d="M66.695,269.645C66.353,269.645 66.076,269.367 66.076,269.025C66.076,268.683 66.353,268.406 66.695,268.406C67.037,268.406 67.315,268.683 67.315,269.025C67.315,269.367 67.037,269.645 66.695,269.645Z" style="fill:rgb(178,75,38);fill-rule:nonzero;"/>
    </g>
    <g transform="matrix(4.16667,0,0,4.16667,-127.925,-975.25)">
        <path d="M70.088,269.645C69.746,269.645 69.469,269.367 69.469,269.025C69.469,268.683 69.746,268.406 70.088,268.406C70.43,268.406 70.708,268.683 70.708,269.025C70.708,269.367 70.43,269.645 70.088,269.645Z" style="fill:rgb(178,75,38);fill-rule:nonzero;"/>
    </g>
    <g transform="matrix(4.16667,0,0,4.16667,-127.925,-975.25)">
        <path d="M73.481,269.645C73.139,269.645 72.862,269.367 72.862,269.025C72.862,268.683 73.139,268.406 73.481,268.406C73.824,268.406 74.101,268.683 74.101,269.025C74.101,269.367 73.824,269.645 73.481,269.645Z" style="fill:rgb(178,75,38);fill-rule:nonzero;"/>
    </g>
    <g transform="matrix(4.16667,0,0,4.16667,-127.925,-975.25)">
        <path d="M76.874,269.645C76.532,269.645 76.255,269.367 76.255,269.025C76.255,268.683 76.532,268.406 76.874,268.406C77.217,268.406 77.494,268.683 77.494,269.025C77.494,269.367 77.217,269.645 76.874,269.645Z" style="fill:rgb(178,75,38);fill-rule:nonzero;"/>
    </g>
    <g transform="matrix(4.16667,0,0,4.16667,-127.925,-975.25)">
        <path d="M80.267,269.645C79.925,269.645 79.648,269.367 79.648,269.025C79.648,268.683 79.925,268.406 80.267,268.406C80.61,268.406 80.887,268.683 80.887,269.025C80.887,269.367 80.61,269.645 80.267,269.645Z" style="fill:rgb(178,75,38);fill-rule:nonzero;"/>
    </g>
    <g transform="matrix(4.16667,0,0,4.16667,-127.925,-975.25)">
        <path d="M83.661,269.645C83.318,269.645 83.041,269.367 83.041,269.025C83.041,268.683 83.318,268.406 83.661,268.406C84.003,268.406 84.28,268.683 84.28,269.025C84.28,269.367 84.003,269.645 83.661,269.645Z" style="fill:rgb(178,75,38);fill-rule:nonzero;"/>
    </g>
    <g transform="matrix(4.16667,0,0,4.16667,-127.925,-975.25)">
        <path d="M121.078,307.322C120.736,307.322 120.458,307.045 120.458,306.703C120.458,306.36 120.736,306.083 121.078,306.083C121.42,306.083 121.697,306.36 121.697,306.703C121.697,307.045 121.42,307.322 121.078,307.322Z" style="fill:rgb(154,27,40);fill-rule:nonzero;"/>
    </g>
    <g transform="matrix(4.16667,0,0,4.16667,-127.925,-975.25)">
        <path d="M124.471,307.322C124.129,307.322 123.851,307.045 123.851,306.703C123.851,306.36 124.129,306.083 124.471,306.083C124.813,306.083 125.09,306.36 125.09,306.703C125.09,307.045 124.813,307.322 124.471,307.322Z" style="fill:rgb(154,27,40);fill-rule:nonzero;"/>
    </g>
    <g transform="matrix(4.16667,0,0,4.16667,-127.925,-975.25)">
        <path d="M127.864,307.322C127.522,307.322 127.244,307.045 127.244,306.703C127.244,306.36 127.522,306.083 127.864,306.083C128.205,306.083 128.483,306.36 128.483,306.703C128.483,307.045 128.205,307.322 127.864,307.322Z" style="fill:rgb(154,27,40);fill-rule:nonzero;"/>
    </g>
    <g transform="matrix(4.16667,0,0,4.16667,-127.925,-975.25)">
        <path d="M131.257,307.322C130.914,307.322 130.636,307.045 130.636,306.703C130.636,306.36 130.914,306.083 131.257,306.083C131.599,306.083 131.877,306.36 131.877,306.703C131.877,307.045 131.599,307.322 131.257,307.322Z" style="fill:rgb(154,27,40);fill-rule:nonzero;"/>
    </g>
    <g transform="matrix(4.16667,0,0,4.16667,-127.925,-975.25)">
        <path d="M134.65,307.322C134.308,307.322 134.031,307.045 134.031,306.703C134.031,306.36 134.308,306.083 134.65,306.083C134.992,306.083 135.27,306.36 135.27,306.703C135.27,307.045 134.992,307.322 134.65,307.322Z" style="fill:rgb(154,27,40);fill-rule:nonzero;"/>
    </g>
    <g transform="matrix(4.16667,0,0,4.16667,-127.925,-975.25)">
        <path d="M138.043,307.322C137.701,307.322 137.424,307.045 137.424,306.703C137.424,306.36 137.701,306.083 138.043,306.083C138.385,306.083 138.663,306.36 138.663,306.703C138.663,307.045 138.385,307.322 138.043,307.322Z" style="fill:rgb(154,27,40);fill-rule:nonzero;"/>
    </g>
    <g transform="matrix(4.16667,0,0,4.16667,-127.925,-975.25)">
        <path d="M141.436,307.322C141.094,307.322 140.817,307.045 140.817,306.703C140.817,306.36 141.094,306.083 141.436,306.083C141.779,306.083 142.056,306.36 142.056,306.703C142.056,307.045 141.779,307.322 141.436,307.322Z" style="fill:rgb(154,27,40);fill-rule:nonzero;"/>
    </g>
    <g transform="matrix(4.16667,0,0,4.16667,-127.925,-975.25)">
        <path d="M144.829,307.322C144.487,307.322 144.21,307.045 144.21,306.703C144.21,306.402 144.424,306.151 144.709,306.095C144.881,306.14 145.06,306.187 145.232,306.232C145.365,306.345 145.449,306.514 145.449,306.703C145.449,307.045 145.172,307.322 144.829,307.322Z" style="fill:rgb(154,27,40);fill-rule:nonzero;"/>
    </g>
    <g transform="matrix(4.16667,0,0,4.16667,-127.925,-975.25)">
        <path d="M148.222,307.322C147.929,307.322 147.682,307.117 147.619,306.843C147.977,306.933 148.331,307.021 148.69,307.109C148.576,307.24 148.409,307.322 148.222,307.322Z" style="fill:rgb(154,27,40);fill-rule:nonzero;"/>
    </g>
    <g transform="matrix(4.16667,0,0,4.16667,-127.925,-975.25)">
        <path d="M68.17,286.129C67.828,286.129 67.55,285.852 67.55,285.51C67.55,285.167 67.828,284.89 68.17,284.89C68.512,284.89 68.789,285.167 68.789,285.51C68.789,285.852 68.512,286.129 68.17,286.129Z" style="fill:rgb(154,27,40);fill-rule:nonzero;"/>
    </g>
    <g transform="matrix(4.16667,0,0,4.16667,-127.925,-975.25)">
        <path d="M71.563,286.129C71.221,286.129 70.943,285.852 70.943,285.51C70.943,285.167 71.221,284.89 71.563,284.89C71.905,284.89 72.183,285.167 72.183,285.51C72.183,285.852 71.905,286.129 71.563,286.129Z" style="fill:rgb(154,27,40);fill-rule:nonzero;"/>
    </g>
    <g transform="matrix(4.16667,0,0,4.16667,-127.925,-975.25)">
        <path d="M74.956,286.129C74.614,286.129 74.336,285.852 74.336,285.51C74.336,285.167 74.614,284.89 74.956,284.89C75.298,284.89 75.576,285.167 75.576,285.51C75.576,285.852 75.298,286.129 74.956,286.129Z" style="fill:rgb(154,27,40);fill-rule:nonzero;"/>
    </g>
    <g transform="matrix(4.16667,0,0,4.16667,-127.925,-975.25)">
        <path d="M78.349,286.129C78.007,286.129 77.73,285.852 77.73,285.51C77.73,285.167 78.007,284.89 78.349,284.89C78.691,284.89 78.969,285.167 78.969,285.51C78.969,285.852 78.691,286.129 78.349,286.129Z" style="fill:rgb(154,27,40);fill-rule:nonzero;"/>
    </g>
    <g transform="matrix(4.16667,0,0,4.16667,-127.925,-975.25)">
        <path d="M81.742,286.129C81.4,286.129 81.123,285.852 81.123,285.51C81.123,285.167 81.4,284.89 81.742,284.89C82.084,284.89 82.362,285.167 82.362,285.51C82.362,285.852 82.084,286.129 81.742,286.129Z" style="fill:rgb(154,27,40);fill-rule:nonzero;"/>
    </g>
    <g transform="matrix(4.16667,0,0,4.16667,-127.925,-975.25)">
        <path d="M85.135,286.129C84.793,286.129 84.516,285.852 84.516,285.51C84.516,285.167 84.793,284.89 85.135,284.89C85.477,284.89 85.755,285.167 85.755,285.51C85.755,285.852 85.477,286.129 85.135,286.129Z" style="fill:rgb(154,27,40);fill-rule:nonzero;"/>
    </g>
    <g transform="matrix(4.16667,0,0,4.16667,-127.925,-975.25)">
        <path d="M88.528,286.129C88.186,286.129 87.909,285.852 87.909,285.51C87.909,285.167 88.186,284.89 88.528,284.89C88.871,284.89 89.148,285.167 89.148,285.51C89.148,285.852 88.871,286.129 88.528,286.129Z" style="fill:rgb(154,27,40);fill-rule:nonzero;"/>
    </g>
    <g transform="matrix(4.16667,0,0,4.16667,-127.925,-975.25)">
        <path d="M91.922,286.129C91.579,286.129 91.302,285.852 91.302,285.51C91.302,285.167 91.579,284.89 91.922,284.89C92.264,284.89 92.541,285.167 92.541,285.51C92.541,285.852 92.264,286.129 91.922,286.129Z" style="fill:rgb(154,27,40);fill-rule:nonzero;"/>
    </g>
    <g transform="matrix(4.16667,0,0,4.16667,-127.925,-975.25)">
        <path d="M95.315,286.129C94.972,286.129 94.695,285.852 94.695,285.51C94.695,285.167 94.972,284.89 95.315,284.89C95.657,284.89 95.934,285.167 95.934,285.51C95.934,285.852 95.657,286.129 95.315,286.129Z" style="fill:rgb(154,27,40);fill-rule:nonzero;"/>
    </g>
    <g transform="matrix(4.16667,0,0,4.16667,-127.925,-975.25)">
        <path d="M98.791,308.291L111.541,308.291L118.231,300.583C118.613,300.143 118.301,299.458 117.718,299.458L107.765,299.458C106.935,299.458 106.146,299.818 105.602,300.445L98.791,308.291Z" style="fill:rgb(252,204,87);fill-rule:nonzero;"/>
    </g>
    <g transform="matrix(4.16667,0,0,4.16667,-127.925,-975.25)">
        <path d="M116.187,317.416L91.655,317.416C90.557,317.416 89.666,316.526 89.666,315.427L89.666,310.28C89.666,309.182 90.557,308.291 91.655,308.291L116.187,308.291L116.187,317.416Z" style="fill:rgb(250,162,43);fill-rule:nonzero;"/>
    </g>
    <g transform="matrix(4.16667,0,0,4.16667,-127.925,-975.25)">
        <path d="M115.458,317.416L116.916,317.416C117.561,317.416 118.083,316.894 118.083,316.25L118.083,309.458C118.083,308.814 117.561,308.291 116.916,308.291L115.458,308.291C114.814,308.291 114.291,308.814 114.291,309.458L114.291,316.25C114.291,316.894 114.814,317.416 115.458,317.416Z" style="fill:rgb(252,204,87);fill-rule:nonzero;"/>
    </g>
    <g transform="matrix(4.16667,0,0,4.16667,-127.925,-975.25)">
        <path d="M115.458,316.804L116.916,316.804C117.07,316.804 117.208,316.743 117.309,316.642C117.41,316.541 117.471,316.403 117.471,316.25L117.471,309.458C117.471,309.305 117.41,309.167 117.309,309.066C117.208,308.965 117.07,308.903 116.916,308.903L115.458,308.903C115.305,308.903 115.167,308.965 115.066,309.066C114.965,309.167 114.904,309.305 114.904,309.458L114.904,316.25C114.904,316.403 114.965,316.541 115.066,316.642C115.167,316.743 115.305,316.804 115.458,316.804Z" style="fill:rgb(82,47,77);fill-rule:nonzero;"/>
    </g>
    <g transform="matrix(4.16667,0,0,4.16667,-127.925,-975.25)">
        <path d="M112.728,309.806L91.728,309.806C91.48,309.806 91.277,309.603 91.277,309.354C91.277,309.106 91.48,308.903 91.728,308.903L112.728,308.903C112.977,308.903 113.18,309.106 113.18,309.354C113.18,309.603 112.977,309.806 112.728,309.806Z" style="fill:rgb(252,204,87);fill-rule:nonzero;"/>
    </g>
</svg>
